<svg xmlns="http://www.w3.org/2000/svg" viewBox="0 0 268.3 338.6"><defs><style>.a{fill:#ffa300;stroke:#263238;stroke-miterlimit:10;}.b{fill:#d7ccc8;}.c{fill:#efebe9;}.d{fill:#ac897c;}.e{fill:#80442e;}.f{fill:#757575;}.g{fill:#c5e1a5;}</style></defs><circle class="a" cx="134.1" cy="134.1" r="133.6"/><path class="b" d="M146.1,124.8c.9,1.4-1.7.4-1.2,2s-.6-.9-1.3-.2-2.5-1.6-3.5-2-6.9-2-5.4-5c-.9-2.8-1-7.7.2-10.2l.6-.7.8-.4a3.7,3.7,0,0,0,2.6.3h.2a2.8,2.8,0,0,0,0-1.3A3.7,3.7,0,0,0,136,105l-.6.3a17.5,17.5,0,0,0-2,1.6,3.3,3.3,0,0,1-2.5-.9c-1.3-1.3-1.2-4.4,1.1-7.1a16.9,16.9,0,0,1,4.1-3.6,20.1,20.1,0,0,1,7.1-2.6c3.1-1.7,4.7-1.3,5.4-.9,3.4,1.7,3.4,10.4.4,16.4l-.3.4c.3-.4.6-.5.5.2a3.2,3.2,0,0,0-.8,1.2c1.5-2.6.4,2.6,1.9,4.6S140.4,124.8,146.1,124.8Z" transform="translate(-8.1 -70.2)"/><path class="c" d="M133.6,307.9c.3.2,2.2-3.7,1.9-5.4,1.4.9,1.6-.7,3-.4-.5.4-.7,1.8.1,1.9s.7-3.9,1.7-2c-3.2.7,1,2.6,2.6,2.5,4.9.8,5.1,5.5,6.1,8.6,2.6,2.5.2-2.1,1.9.3,0,1,.6,1.3,1,.4.5.9-1.2,2.1-.8,3.8.6,9.9-13.4,8.7-20.3,7.9-2.7-.2-3.1-4.1-5.2-2-1.6-1,.8-1-1-1.6s-.9-2-1.1-.2c-.7-2.8,4.7-5,6.5-7.2s.5-1.9,1.8-2.5S132.2,308.9,133.6,307.9Z" transform="translate(-8.1 -70.2)"/><path class="b" d="M171.9,130.4c-5.2-5.2-6.3-.1-6.3-.5s-3.5,2.9-4.9,2.6-.7,1.6-.4,2.7-.1-1.2,0-1.8,1.1.7,1.2,1.3c-1.6,2.6-12.5,12-11.4,13.8-1.7-2.8-5.2-1.8-5.2,1.1-.6.1-1-.6-.9.4s-.8.1-.4.7-6,3-5.3,1.9c-1.6-2.5-6.9,1.1-8.6.3-1.3,1.6-8.8-14.9-10.1-14.4-5.5-10.7-6.9-6.1-5.5,1.7h0c.4,3.8,1.3,9.2,1.1,6.8,1.7,16.3-2.3,32.6-.5,49.1-5,21.9,12.6,38.1,13.8,59.3-.5,18.1,4.4,35.3,6.2,53.2,1.7-.2,7.8-.9,12,3a14.5,14.5,0,0,1,1.6,1.8c.8.8,2.1,1.7,2.7,1.3s.1-3.2-.1-3.8c-.8-3.1-.1-11,6.4-31.8-.1-13.5-6.2-30,6-51.9,5.3-9.9,3.4-21.6,5.8-31.7.4-6.6,5.1-19.8,1.2-30.8C169.8,153.7,174.8,141.5,171.9,130.4Zm-27.7,21.3c-.1-.2-.1-.4,0-.4S144.3,151.6,144.2,151.7Z" transform="translate(-8.1 -70.2)"/><path class="d" d="M173,148.5a2.5,2.5,0,0,1,0-1.9A6,6,0,0,1,173,148.5Z" transform="translate(-8.1 -70.2)"/><path class="d" d="M111.4,108.7a.1.1,0,0,1-.1-.1Z" transform="translate(-8.1 -70.2)"/><path class="d" d="M144.1,134.2a.4.4,0,0,1,0-.5C144.5,133.7,144.2,134.1,144.1,134.2Z" transform="translate(-8.1 -70.2)"/><path class="e" d="M134.5,136c.2,0,.2.1.1.2S134.5,136.1,134.5,136Z" transform="translate(-8.1 -70.2)"/><path class="e" d="M135.6,135.9h0Z" transform="translate(-8.1 -70.2)"/><path class="e" d="M131.4,136.2Z" transform="translate(-8.1 -70.2)"/><path class="d" d="M139.5,85.7c0,.2.2.5-.2.7S139.6,85.9,139.5,85.7Z" transform="translate(-8.1 -70.2)"/><path class="f" d="M160.4,122.1" transform="translate(-8.1 -70.2)"/><path class="c" d="M171.9,130.4c-3.3-1.9-5.2-1.9-6.3-.5-.8-.5-6.7,8-6.7,10.9a3.6,3.6,0,0,0-2.2,1.4c-.6,1.9-12.5,9.7-12.8,10.2s-4.1,2-4.9,1.5h-.1c-1.3-.2-9.6-.8-9.9,0-1.3-3.5-8.9-15.3-9-15.4l-.5-.2c-.4-.2-1.3-2.8-2.2-3.4s-3.4-5.6-1.9-6.5c-.4-1.2,3.7-6.5,17.2-9.1,3.7,1-.8-3.3-.7-5.7-2.7-7.9-3.8-16.4-3.4-21.2s5.8-9.7,12-9.5c-1.8-.6-6.7,2.2-4.1,2.8,2.6-2.4,15,1.2,13.6,7.5-3.5-3.7-5.1,2.4-8.8,2.1-.3.8-.8.5-1.5.7s-1.3,2.3.5,1.6c-.7,1.4-1.9,1-2.9,1.5s-.3.5-.4.1a.6.6,0,0,0-1.1,0c-.5-.4-.4-2.3-1.1-2.1s-.3.7-.7,1.4,1,1.7-.5,1.8-.8-1-1.3-.9-1.7,1.2-1.9,3.3c-.9,3.9,3.2,5.6,4.6,2.1s10.2,4.8.1,4.6c-1.5,2.2-1.1,7.4-.3,10.2-2,4,5.3,3.7,6.1,5.8s3,.5,3.8,1.6c.5-.9.5-1.3,1.7-1.5-3.8-1.8-1.8-1.7.6-5,3.8-7.2,4.3-4.6,10.4-1.5,8.2,3.4-5.6-4.4,4.9,1.6A13.7,13.7,0,0,1,171.9,130.4Zm-36.3,23c-.1.1-.1.1,0,.1S135.7,153.4,135.6,153.4Zm1-.1h-.1C136.5,153.3,136.5,153.3,136.6,153.3Z" transform="translate(-8.1 -70.2)"/><path class="g" d="M108.8,386.4Z" transform="translate(-8.1 -70.2)"/><path class="g" d="M132.6,394.4h0Z" transform="translate(-8.1 -70.2)"/><path class="g" d="M132.6,394.4Z" transform="translate(-8.1 -70.2)"/><path class="g" d="M108.6,386.9l.2-.4Z" transform="translate(-8.1 -70.2)"/><path class="g" d="M132.7,394.4Z" transform="translate(-8.1 -70.2)"/><path class="g" d="M120.5,408.5c.1.1.2.2.2.3v-.4Z" transform="translate(-8.1 -70.2)"/><path class="g" d="M118.2,387.1l.3-.5" transform="translate(-8.1 -70.2)"/></svg>