<svg xmlns="http://www.w3.org/2000/svg" xmlns:xlink="http://www.w3.org/1999/xlink" viewBox="0 0 3480.5 2000"><defs><style>.a{mask:url(#a);filter:url(#h);}.b,.d{mix-blend-mode:multiply;}.b{fill:url(#c);}.c{mask:url(#d);filter:url(#k);}.d{fill:url(#f);}.e{fill:#f7f7f7;}.f{mask:url(#g);}.g{fill:url(#i);}.h{mask:url(#j);}.i{fill:url(#l);}.j{fill:url(#m);}.k{fill:#a5b554;}.l{fill:#bacc5f;}.m{fill:url(#n);}.n{fill:url(#o);}.o{fill:#5c8232;}.p{fill:url(#p);}.q{fill:url(#q);}.r{fill:#a7bd48;}.s{fill:#385a36;}.t{fill:#325743;}.u{fill:url(#r);}.v{fill:url(#s);}.w{fill:url(#t);}.x{fill:#8a6f4e;}.y{fill:#404670;}.z{fill:#303554;}.aa{fill:#51598f;}.ab{fill:url(#u);}.ac{fill:url(#v);}.ad{fill:url(#w);}.ae{fill:#996239;}.af{fill:#5478b3;}.ag{fill:#d88a51;}.ah{fill:#eea886;}.ai{fill:#c5cddb;}.aj{fill:#e55353;}.ak{fill:#694327;}.al{fill:#525252;}.am{fill:#292c47;}.an{fill:#292929;}.ao{fill:#a77860;}.ap{fill:#3d4c52;}.aq{fill:#efaa88;}.ar{fill:#494f80;}.as{fill:#eddad3;}.at{fill:#7a6cfa;}.au{fill:#aea5fa;}.av{fill:#cc4a4a;}.aw{fill:#2f4563;}.ax{fill:#323657;}.ay{fill:#993737;}.az{fill:#e8734d;}.ba{fill:#202338;}.bb{fill:#2f6b8c;}.bc{fill:#252e3b;}.bd{fill:#d66a47;}.be{fill:#b3583b;}.bf{fill:#dbd7fa;}.bg{fill:#313557;}.bh{fill:#223247;}.bi{fill:#f08d29;}.bj{fill:#8e4f3a;}.bk{fill:#51578c;}.bl{fill:#c9b9b3;}.bm{fill:#c44747;}.bn{fill:#e68e35;}.bo{fill:#58a668;}.bp{fill:#fae6de;}.bq{fill:#5084c7;}.br{fill:#5e9beb;}.bs{fill:#faa146;}.bt{fill:#6dbd7d;}.bu{fill:#613628;}.bv{fill:#dbdff0;}.bw{fill:#273852;}.bx{fill:#50558a;}.by{fill:#2c405c;}.bz{fill:#d44040;}.ca{fill:#c48a6f;}.cb{fill:#eea987;}.cc{fill:#942d2d;}.cd{fill:#172230;}.ce{fill:#eb4747;}.cf{filter:url(#e);}.cg{filter:url(#b);}</style><filter id="b" x="0.01" y="-9192" width="3480.48" height="32766" filterUnits="userSpaceOnUse" color-interpolation-filters="sRGB"><feFlood flood-color="#fff" result="bg"/><feBlend in="SourceGraphic" in2="bg"/></filter><mask id="a" x="0.01" y="-9192" width="3480.48" height="32766" maskUnits="userSpaceOnUse"><g class="cg"/></mask><linearGradient id="c" x1="-168.11" y1="1174.46" x2="980.97" y2="1174.46" gradientUnits="userSpaceOnUse"><stop offset="0" stop-color="#fff"/><stop offset="1"/></linearGradient><filter id="e" x="0.01" y="-9192" width="3480.48" height="32766" filterUnits="userSpaceOnUse" color-interpolation-filters="sRGB"><feFlood flood-color="#fff" result="bg"/><feBlend in="SourceGraphic" in2="bg"/></filter><mask id="d" x="0.01" y="-9192" width="3480.48" height="32766" maskUnits="userSpaceOnUse"><g class="cf"/></mask><linearGradient id="f" x1="-308.21" y1="1174.46" x2="375.42" y2="1174.46" xlink:href="#c"/><filter id="h" x="0.01" y="744" width="3480.48" height="860.93" filterUnits="userSpaceOnUse" color-interpolation-filters="sRGB"><feFlood flood-color="#fff" result="bg"/><feBlend in="SourceGraphic" in2="bg"/></filter><mask id="g" x="0.01" y="744" width="3480.48" height="860.93" maskUnits="userSpaceOnUse"><g class="a"><polygon class="b" points="3480.5 938.7 3480.5 1604.9 0 1604.9 0 1221.8 24.3 1221.8 24.3 979.3 167.7 979.3 167.7 1102.9 306.9 1102.9 361.9 1160.5 417.8 1160.5 417.8 861.7 546.5 861.7 546.5 938.7 655.6 938.7 655.6 1087.3 802.2 1087.3 802.2 900.8 917.9 900.8 917.9 979.3 978 979.3 1030.1 924.8 1089.3 924.8 1089.3 744 1255 744 1255 1012.3 1424.3 1012.3 1424.3 1077 1490 1077 1490 979.3 1740.2 979.3 1740.2 1087.3 1835.9 1087.3 1835.9 938.7 1981.8 938.7 1981.8 1160.5 1990.4 1160.5 1990.4 861.7 2119 861.7 2119 938.7 2228.1 938.7 2228.1 1087.3 2374.6 1087.3 2374.6 900.8 2490.3 900.8 2490.3 979.3 2550.5 979.3 2602.6 924.8 2661.9 924.8 2661.9 744 2827.5 744 2827.5 1012.3 2996.8 1012.3 2996.8 1077 3062.5 1077 3062.5 979.3 3194.2 979.3 3194.2 1087.3 3408.3 1087.3 3408.3 938.7 3480.5 938.7"/></g></mask><linearGradient id="i" x1="-168.11" y1="1174.46" x2="980.97" y2="1174.46" gradientUnits="userSpaceOnUse"><stop offset="0" stop-color="#b1d9f9"/><stop offset="1" stop-color="#fff"/></linearGradient><filter id="k" x="0.01" y="744" width="3480.48" height="860.93" filterUnits="userSpaceOnUse" color-interpolation-filters="sRGB"><feFlood flood-color="#fff" result="bg"/><feBlend in="SourceGraphic" in2="bg"/></filter><mask id="j" x="0.01" y="744" width="3480.48" height="860.93" maskUnits="userSpaceOnUse"><g class="c"><polygon class="d" points="3480.5 938.7 3480.5 1604.9 0 1604.9 0 1221.8 24.3 1221.8 24.3 979.3 167.7 979.3 167.7 1102.9 306.9 1102.9 361.9 1160.5 417.8 1160.5 417.8 861.7 546.5 861.7 546.5 938.7 655.6 938.7 655.6 1087.3 802.2 1087.3 802.2 900.8 917.9 900.8 917.9 979.3 978 979.3 1030.1 924.8 1089.3 924.8 1089.3 744 1255 744 1255 1012.3 1424.3 1012.3 1424.3 1077 1490 1077 1490 979.3 1740.2 979.3 1740.2 1087.3 1835.9 1087.3 1835.9 938.7 1981.8 938.7 1981.8 1160.5 1990.4 1160.5 1990.4 861.7 2119 861.7 2119 938.7 2228.1 938.7 2228.1 1087.3 2374.6 1087.3 2374.6 900.8 2490.3 900.8 2490.3 979.3 2550.5 979.3 2602.6 924.8 2661.9 924.8 2661.9 744 2827.5 744 2827.5 1012.3 2996.8 1012.3 2996.8 1077 3062.5 1077 3062.5 979.3 3194.2 979.3 3194.2 1087.3 3408.3 1087.3 3408.3 938.7 3480.5 938.7"/></g></mask><linearGradient id="l" x1="-308.21" y1="1174.46" x2="375.42" y2="1174.46" xlink:href="#i"/><linearGradient id="m" x1="1740.25" y1="1809.98" x2="1740.25" y2="1256.64" gradientUnits="userSpaceOnUse"><stop offset="0" stop-color="#b3c45a"/><stop offset="1" stop-color="#639c38"/></linearGradient><linearGradient id="n" x1="1740.25" y1="1409.21" x2="1740.25" y2="2131.83" gradientUnits="userSpaceOnUse"><stop offset="0" stop-color="#faddaf"/><stop offset="1" stop-color="#fabd5a"/></linearGradient><linearGradient id="o" x1="2368.92" y1="359.56" x2="2685.11" y2="609.04" gradientUnits="userSpaceOnUse"><stop offset="0" stop-color="#6b9e34"/><stop offset="0.14" stop-color="#61933c"/><stop offset="1" stop-color="#1f4a6e"/></linearGradient><linearGradient id="p" x1="2901.61" y1="1651.5" x2="2901.61" y2="40.61" gradientUnits="userSpaceOnUse"><stop offset="0" stop-color="#426120"/><stop offset="1" stop-color="#1f4a6e"/></linearGradient><linearGradient id="q" x1="3120.24" y1="1629.49" x2="3120.24" y2="166.52" xlink:href="#p"/><linearGradient id="r" x1="2967.71" y1="1464.68" x2="3437.98" y2="2292.36" gradientUnits="userSpaceOnUse"><stop offset="0.01" stop-color="#b0bd24"/><stop offset="1" stop-color="#1f4a6e"/></linearGradient><linearGradient id="s" x1="3281.05" y1="1620.69" x2="3556.15" y2="2274.36" xlink:href="#r"/><linearGradient id="t" x1="2552.09" y1="739.55" x2="3281.39" y2="-480.91" xlink:href="#o"/><linearGradient id="u" x1="-4923.61" y1="2855.77" x2="-4696.88" y2="3034.65" gradientTransform="matrix(0.64, -0.77, 0.77, 0.64, 2962.39, -4938.07)" xlink:href="#o"/><linearGradient id="v" x1="4476.06" y1="-4825.62" x2="4638.73" y2="-4697.27" gradientTransform="matrix(0.77, 0.64, -0.64, 0.77, -4554.27, 1053.63)" xlink:href="#o"/><linearGradient id="w" x1="3282.99" y1="1245.51" x2="3397.87" y2="1245.51" xlink:href="#o"/></defs><rect class="e" width="3480.5" height="1604.93"/><g class="f"><polygon class="g" points="3480.5 938.7 3480.5 1604.9 0 1604.9 0 1221.8 24.3 1221.8 24.3 979.3 167.7 979.3 167.7 1102.9 306.9 1102.9 361.9 1160.5 417.8 1160.5 417.8 861.7 546.5 861.7 546.5 938.7 655.6 938.7 655.6 1087.3 802.2 1087.3 802.2 900.8 917.9 900.8 917.9 979.3 978 979.3 1030.1 924.8 1089.3 924.8 1089.3 744 1255 744 1255 1012.3 1424.3 1012.3 1424.3 1077 1490 1077 1490 979.3 1740.2 979.3 1740.2 1087.3 1835.9 1087.3 1835.9 938.7 1981.8 938.7 1981.8 1160.5 1990.4 1160.5 1990.4 861.7 2119 861.7 2119 938.7 2228.1 938.7 2228.1 1087.3 2374.6 1087.3 2374.6 900.8 2490.3 900.8 2490.3 979.3 2550.5 979.3 2602.6 924.8 2661.9 924.8 2661.9 744 2827.5 744 2827.5 1012.3 2996.8 1012.3 2996.8 1077 3062.5 1077 3062.5 979.3 3194.2 979.3 3194.2 1087.3 3408.3 1087.3 3408.3 938.7 3480.5 938.7"/></g><g class="h"><polygon class="i" points="3480.5 938.7 3480.5 1604.9 0 1604.9 0 1221.8 24.3 1221.8 24.3 979.3 167.7 979.3 167.7 1102.9 306.9 1102.9 361.9 1160.5 417.8 1160.5 417.8 861.7 546.5 861.7 546.5 938.7 655.6 938.7 655.6 1087.3 802.2 1087.3 802.2 900.8 917.9 900.8 917.9 979.3 978 979.3 1030.1 924.8 1089.3 924.8 1089.3 744 1255 744 1255 1012.3 1424.3 1012.3 1424.3 1077 1490 1077 1490 979.3 1740.2 979.3 1740.2 1087.3 1835.9 1087.3 1835.9 938.7 1981.8 938.7 1981.8 1160.5 1990.4 1160.5 1990.4 861.7 2119 861.7 2119 938.7 2228.1 938.7 2228.1 1087.3 2374.6 1087.3 2374.6 900.8 2490.3 900.8 2490.3 979.3 2550.5 979.3 2602.6 924.8 2661.9 924.8 2661.9 744 2827.5 744 2827.5 1012.3 2996.8 1012.3 2996.8 1077 3062.5 1077 3062.5 979.3 3194.2 979.3 3194.2 1087.3 3408.3 1087.3 3408.3 938.7 3480.5 938.7"/></g><rect class="j" y="1379" width="3480.5" height="620.99"/><rect class="k" y="1591.3" width="3480.5" height="408.7"/><rect class="l" y="1497.3" width="3480.5" height="32.84"/><polygon class="m" points="2000.2 1636 1906.8 1379 1829.5 1379 1752.1 1379 1658.7 1636 0 1636 0 1733.5 3480.5 1733.5 3480.5 1636 2000.2 1636"/><path class="n" d="M2377.7,425s99.4-14.6,135.5,28.9,83.4-.9,83.4-.9S2493.2,626.3,2377.7,425Z"/><path class="o" d="M127.8,1379s-15.3-76.1,55.3-63.9c0,0,22.3-88.2,102.3-55.3s49.3,78.3,49.3,78.3,62.4-34.6,109.4,0c0,0,42.3-84.9,101.1-36.9,0,0,77.6-41.5,89.3,26.2,0,0,61.2-32.5,72.9,24.6,0,0,21.2,10.2,21.2,27Z"/><path class="o" d="M2164,1379s-10.7-53.3,38.7-44.8c0,0,15.7-61.8,71.7-38.7s34.6,54.8,34.6,54.8,43.7-24.2,76.7,0c0,0,29.6-59.5,70.8-25.8,0,0,54.4-29.1,62.6,18.3,0,0,42.9-22.7,51.1,17.3,0,0,14.9,7.1,14.9,18.9Z"/><path class="o" d="M2077.9,1379s-6.7-33.2,24.1-27.9c0,0,9.8-38.5,44.6-24.1s21.6,34.2,21.6,34.2,27.2-15.1,47.7,0c0,0,18.5-37.1,44.1-16.1,0,0,33.9-18.2,39,11.4,0,0,26.7-14.2,31.8,10.7,0,0,9.3,4.5,9.3,11.8Z"/><path class="o" d="M2372.6,1379s-13.9-69,50.1-58c0,0,20.3-80,92.8-50.1s44.8,71,44.8,71,56.6-31.4,99.3,0c0,0,38.4-77.1,91.7-33.5,0,0,70.4-37.7,81.1,23.7,0,0,55.4-29.4,66.1,22.4,0,0,19.2,9.3,19.2,24.5Z"/><path class="o" d="M2684.7,1379s-10.7-53.3,38.8-44.8c0,0,15.6-61.8,71.6-38.7s34.7,54.8,34.7,54.8,43.6-24.2,76.6,0c0,0,29.6-59.5,70.8-25.8,0,0,54.4-29.1,62.7,18.3,0,0,42.8-22.7,51.1,17.3,0,0,14.8,7.1,14.8,18.9Z"/><path class="o" d="M2808.7,1379s-10.7-53.3,38.7-44.8c0,0,15.7-61.8,71.7-38.7s34.6,54.8,34.6,54.8,43.7-24.2,76.7,0c0,0,29.6-59.5,70.8-25.8,0,0,54.4-29.1,62.6,18.3,0,0,42.9-22.7,51.1,17.3,0,0,14.9,7.1,14.9,18.9Z"/><path class="o" d="M3144,1379s-5.3-26.7,19.4-22.4c0,0,7.8-30.9,35.8-19.4s17.3,27.5,17.3,27.5,21.9-12.1,38.3,0c0,0,14.9-29.8,35.5-13,0,0,27.2-14.5,31.3,9.2,0,0,21.4-11.4,25.5,8.7,0,0,7.4,3.5,7.4,9.4Z"/><rect class="p" x="2866.4" y="138.2" width="70.5" height="1701.54"/><rect class="q" x="3009.5" y="138.2" width="221.5" height="1701.54"/><rect class="r" x="3009.5" y="138.2" width="61.7" height="1701.54"/><path class="r" d="M3009.5,1236.9s-16.1-100-79.8-136.4S2826.6,967,2790.2,951.9v-9.1s44.1,27.6,78.8,85.9c27.4,45.9,79.9,49.5,107.2,74.8s55.6,80.9,55.6,80.9Z"/><path class="s" d="M3480.5,748.1v14.2c-52.5,27.1-114.6,155.1-170.7,180.4-64.7,29.4-99.1,147.2-99.1,147.2l-10.3-30.4s42.4-119,90.2-129.6,109.2-89.5,145.6-140.3C3452.9,766.3,3468.5,754.3,3480.5,748.1Z"/><path class="r" d="M3095.5,923.5s-2,808.8,0,835.1C3095.5,1758.6,3121.8,1061,3095.5,923.5Z"/><path class="t" d="M2895.3,694.8s-20.5-88.7-65.4-96.1c-27.7-4.6-64-3.2-72.1-9.3s-35.4-59.4-35.4-59.4,34.4,57.6,57.6,57.6,85.9,7.6,96,34.6,33.4,44.3,33.4,44.3Z"/><path class="u" d="M3211.7,1591.6s.6,38.4-43.2,62.4-87,16-75.5,57.7-82.7,22.4-102.2,65.6,31.6,62.4,31.6,62.4h270.2s49.3-54.4,0-105.6S3211.7,1591.6,3211.7,1591.6Z"/><path class="v" d="M3395.5,1663.6s.4,27.2-26.8,44.3-54.2,11.4-47,40.9-51.5,15.9-63.6,46.6,19.7,44.3,19.7,44.3h168.1s30.7-38.6,0-75S3395.5,1663.6,3395.5,1663.6Z"/><path class="w" d="M2290.8,0c3.3,150.8,154,165.6,165.6,182.9,0,0-88.9,50.9,7.8,116.2s216.2-13,244,66.7,195,95.3,257.7,16.9c16.4-20.5,15.4-38,6.1-53.2a784.4,784.4,0,0,0,83.5,9.6c95.8,5.2,91.9-51.1,113.1-86.9,17.4-4.8,29.6-13,33.7-26,8.3-2.2,18.4-3.1,30.7-2.4,113.7,6.2-96,154.4,105.8,179.3,133.6,16.4,126.5-15.2,141.7-48.1V0Z"/><rect class="x" x="603.6" y="1338.6" width="742.5" height="28.58"/><rect class="x" x="603.6" y="1381" width="742.5" height="28.58"/><rect class="x" x="1343.6" y="1542.3" width="22.9" height="191.27"/><rect class="x" x="1241" y="1542.3" width="22.9" height="191.27"/><rect class="x" x="603.6" y="1513.7" width="793" height="28.58"/><rect class="x" x="603.6" y="1467.3" width="742.5" height="28.58"/><rect class="x" x="603.6" y="1424.1" width="742.5" height="28.58"/><rect class="x" x="621.9" y="1542.3" width="22.9" height="191.27"/><rect class="x" x="729.1" y="1542.3" width="22.9" height="191.27"/><path class="e" d="M576.1,691.8a79.8,79.8,0,0,0-23.2,3.4c-9.4-23-33-39.3-60.6-39.3-30.7,0-56.4,20.1-63.3,47.3a48.1,48.1,0,0,0-17.1-3.1c-25.5,0-46.2,19.6-46.2,43.9H641.2C641.2,715.2,612.1,691.8,576.1,691.8Z"/><path class="e" d="M852.6,381.5a100.1,100.1,0,0,0-29.9,4.4c-12.3-29.8-42.7-50.8-78.3-50.8-39.6,0-72.8,26-81.7,61a61.9,61.9,0,0,0-22.1-4c-32.9,0-59.6,25.4-59.6,56.7H936.6C936.6,411.6,899,381.5,852.6,381.5Z"/><path class="e" d="M2449.5,452.3h-327a42.5,42.5,0,0,1,42.5-42.4,41.7,41.7,0,0,1,25.7,8.7,65,65,0,0,1,113,3.5,34.4,34.4,0,0,1,18.1-5,35.1,35.1,0,0,1,28.8,15,51.5,51.5,0,0,1,98.9,20.2Z"/><path class="y" d="M1264.3,1619.7c-13.9,0-25.3-10.4-25.3-23.3s11.4-23.2,25.3-23.2,25.3,10.4,25.3,23.2S1278.3,1619.7,1264.3,1619.7Zm0-41.4c-10.7,0-19.4,8.2-19.4,18.1s8.7,18.2,19.4,18.2,19.4-8.2,19.4-18.2S1275,1578.3,1264.3,1578.3Z"/><rect class="z" x="1201.2" y="1678.4" width="126.3" height="63.01"/><path class="y" d="M1207,1753.2s-.5-14.1,0-90.1c.5-78.9,58-77.7,58-77.7s57.4-1.2,58,77.7c.5,76,0,90.1,0,90.1Z"/><rect class="aa" x="1220.1" y="1678.4" width="89.8" height="63.01"/><rect class="z" x="1220.1" y="1678.4" width="89.8" height="17.52"/><path class="ab" d="M2032.5,695.9s37.7-61.3,78.3-61.2,37.9-46.2,37.9-46.2S2196.4,725.1,2032.5,695.9Z"/><path class="ac" d="M1957.5,257.1s44,27.1,43.8,56.1,33.2,27.3,33.2,27.3S1936.5,374.6,1957.5,257.1Z"/><path class="ad" d="M3283,1298.5s33.5-60.5,72.4-62.2,34.4-46.1,34.4-46.1S3441.6,1319.3,3283,1298.5Z"/><path class="ae" d="M3015.8,1769.7c-1.1,7.6-46.7,39.6-55.7,45.9-7.2,5.2-13.5,7.5-24.4,11.6h0c-24.8,6.5-180.2,52.9-180.2,52.9a21.8,21.8,0,0,0-1.6-4.7c-5.8,2.3-11.8,3.8-15.6,5-5.7,1.8-51.7,3.3-61.1,5.1s-28.2,4.7-35.8-2.6,4.7-22.8,15.2-26.7,48.8-5.1,55.7-5.8,15.9-3.3,20.3-1.8c1.3.4,7.4-1.4,15-4-.1-2.8-.2-4.6-.2-4.6l40.8-11.8-7.5-72.2s17.7-67,88.7-15.9l21.3,6.1h1.8c10.8-.8,57.3-14.8,74.1-14.8s23.9-1.1,30.4,2.1S3016.9,1762.1,3015.8,1769.7Z"/><path class="ae" d="M2943.1,1882.9c-7.6,7.3-26.4,4.4-35.8,2.6s-55.3-3.3-61.1-5.1-16.7-4.3-24.3-9.4a28.8,28.8,0,0,0-4-1.8h0l-11.5,8.3-159.8-50.8c-9.5-2.7-17.1-6.7-22.2-11.1-8.3-7.2-54.6-38.3-55.7-45.9s12.3-32.9,18.8-36.2,12.3-2.1,30.4-2.1,70.5,16.2,76,14.8c2.4-.7,7.5-3.3,12.4-5.9s11.2-6.4,11.2-6.4c77.7-34.7,86.4,22.1,86.4,22.1l-4.6,70,14.8,7.2,38.6,10.9-5.1,3.7c2.2.7,3.7,1,4.4.8,4.3-1.5,13.4,1.1,20.2,1.8s45.2,1.8,55.7,5.8S2950.7,1875.7,2943.1,1882.9Z"/><path class="af" d="M2706.3,1740.3c5.3.4,41.5,21.3,50.1,26.3-13-6.8-62.5-20.4-62.5-20.4C2696.3,1745.5,2701.4,1742.9,2706.3,1740.3Z"/><path class="ag" d="M2892.5,1746.2s-62.4,15.2-73.8,21.5c.5-.4,32.9-24.9,49.8-28.2,0,0,16.7,5.2,22.2,6.7Z"/><path class="ah" d="M2943.1,1882.9c-7.6,7.3-26.4,4.4-35.8,2.6s-55.3-3.3-61.1-5.1l-6.1-1.8h0c-5.7-1.7-12.7-4-18.2-7.6a28.8,28.8,0,0,0-4-1.8l28.9-20.8.8-.6c2.2.7,3.7,1,4.4.8,4.3-1.5,13.4,1.1,20.2,1.8s45.2,1.8,55.7,5.8S2950.7,1875.7,2943.1,1882.9Z"/><path class="ai" d="M2943.1,1882.9c-7.6,7.3-26.4,4.4-35.8,2.6s-55.3-3.3-61.1-5.1l-6.1-1.8h0s12.7-12.5,6.7-30.2l.8-.6c2.2.7,3.7,1,4.4.8,4.3-1.5,13.4,1.1,20.2,1.8s45.2,1.8,55.7,5.8S2950.7,1875.7,2943.1,1882.9Z"/><path class="aj" d="M2722.1,1756.3a.3.3,0,0,1,0,.4C2721.4,1757.2,2721.5,1757,2722.1,1756.3Z"/><path class="aj" d="M2931.2,1671.7c-.6-1.3-33.5-53.1-42.5-76.7s-30.3-34.5-40.5-37.9l-16.8-5.5-25.6-8.2h-42.2l-30.2,10.3h0c-14.3,5-29.4,10.5-34.5,13.1-10.6,5.3-28.4,43.1-32,47.5s-31.5,55.9-35.5,75.7c-3.1,15.4,88.3,60.5,90.7,66.3,2.9-3.3,16.2-16,16.2-16l-10.2-6.6c24.5,1.1,84.3-1,92.8-.6a53.2,53.2,0,0,0,5.6-.1h0c2.6,1.9,19.7,17,19.7,17s42.2-17.5,61.7-37.1C2935.4,1685,2934.3,1677.8,2931.2,1671.7Zm-240,34.3c-9-10.9-21.4-17.5-18.3-22.3s29.7-50.6,29.7-50.6,13.7,30.1,17.6,45.8,3.5,22.9,1.9,27.7-2.6,7.4-4,20.4C2707.3,1719.6,2695.4,1710.9,2691.2,1706Zm186.7-5.2c-3.6,4-17.6,12.9-30.2,20.3-1-8.8-2.5-22.5-2.6-27.5-.2-7.5,2.9-28.9,6.7-37.1s6.6-30.7,6.6-30.7,31.9,43.5,37,48S2889.8,1687.2,2877.9,1700.8Z"/><path class="ak" d="M2741.1,1807.8s-50.5-30.3-72.6-35.1-28.4-12.3-28.4-12.3,33.2,0,55.2,15.7C2710.3,1786.7,2741.1,1807.8,2741.1,1807.8Z"/><path class="ak" d="M2786,1828.9s87.9-46.2,123.8-56.2c20.5-5.7,28.5-12.3,28.5-12.3s-54.4,5.3-87.4,25.2C2835.1,1795.1,2786,1828.9,2786,1828.9Z"/><path class="ah" d="M2753.9,1875.4c-5.8,2.3-11.8,3.8-15.6,5-5.7,1.8-51.7,3.3-61.1,5.1s-28.2,4.7-35.8-2.6,4.7-22.8,15.2-26.7,48.8-5.1,55.7-5.8,15.9-3.3,20.3-1.8c1.3.4,7.4-1.4,15-4C2747.9,1849.2,2753.9,1875.4,2753.9,1875.4Z"/><path class="ae" d="M2786,1871l86.4-25.5-17.1-5.3S2786.3,1865.3,2786,1871Z"/><polygon class="ak" points="2786 1871 2826.5 1858.7 2798.4 1875 2786 1871"/><path class="al" d="M2758.3,1767.7l-1.9-1.1Z"/><path class="ai" d="M2738.3,1880.4c-5.7,1.8-51.7,3.3-61.1,5.1s-28.2,4.7-35.8-2.6,4.7-22.8,15.2-26.7,48.8-5.1,55.7-5.8,15.9-3.3,20.3-1.8C2732.6,1848.6,2721,1866.3,2738.3,1880.4Z"/><path class="al" d="M2709.8,1760.4l-13.3-75.7,172.1-4-11.1,74.5s-54.9,20.1-73.6,31.9C2783.9,1787.1,2736.8,1767.7,2709.8,1760.4Z"/><path class="ah" d="M2806.2,1543.5h0c-2.1-4.6-1.1-27.1-1.1-27.1s-42-10.7-40.8-2.5-3.6,30.5-3.6,30.5l-21.6,7.4s23,61.7,49.4,53.8,36.4-56,36.4-56Z"/><path class="ah" d="M2782.8,1426s44.4-10.4,39.8,44.7-14.9,62.4-29,63.3c-17.8,1.3-36-6.5-46.2-49.7C2737.8,1443.1,2755.7,1426,2782.8,1426Z"/><path class="am" d="M2750.7,1496s-2.2-8.6.9-10.7,6.3,2,6.3,2l4.3-.2s-6.6-15.2,6.9-16.5,41.9-.6,49.6-5.2c0,0,2,10.2,2,12.7s1.2.3,1.2.3,7.3-39.4-15.6-55.7-51.5-3.8-57.7,10.8S2739.5,1462.9,2750.7,1496Z"/><polygon class="an" points="2743.2 1466.5 2697.1 1446.3 2787.1 1397.4 2863.2 1436.3 2822.8 1457.8 2743.2 1466.5"/><path class="al" d="M2744.1,1470.2s43.7-13.9,78.8-7.8l-.3-9.8s-32.9-7.9-80.7,6.8Z"/><rect class="an" x="2729.1" y="1450.7" width="2.2" height="53.62" transform="translate(-2.7 4.9) rotate(-0.1)"/><path class="an" d="M2730.3,1503.3h-.1c-5,.2-4.4,26.4-4.4,26.4h9S2735.4,1503.5,2730.3,1503.3Z"/><path class="aj" d="M2760.7,1544.3s3.1,26.7,26.6,22.9,18.9-23.8,18.9-23.8,25,8,34.7,11.3c0,0-19.8,83.4-68.9,72.6s-33.3-75.4-33.3-75.4Z"/><path class="ao" d="M2802.1,1532.2s-17.2,7.7-34.2-6.2c0,0,6.4,14.4,18.5,15.3S2802.1,1532.2,2802.1,1532.2Z"/><path class="an" d="M2811.9,1493.5c-5.9,0-10.7-5.2-10.7-11.6s4.8-11.6,10.7-11.6,10.7,5.2,10.7,11.6S2817.8,1493.5,2811.9,1493.5Zm0-21.4c-4.9,0-8.9,4.4-8.9,9.8s4,9.8,8.9,9.8,8.9-4.4,8.9-9.8S2816.8,1472.1,2811.9,1472.1Z"/><path class="an" d="M2781.5,1496.1c-5.9,0-10.7-5.2-10.7-11.6s4.8-11.6,10.7-11.6,10.7,5.2,10.7,11.6S2787.4,1496.1,2781.5,1496.1Zm0-21.4c-4.9,0-8.9,4.4-8.9,9.8s4,9.8,8.9,9.8,8.9-4.4,8.9-9.8S2786.4,1474.7,2781.5,1474.7Z"/><path class="an" d="M2791.4,1484l-.4-1.8c7.4-1.7,11.1-1.1,11.3-1l-.3,1.7C2801.9,1482.9,2798.4,1482.3,2791.4,1484Z"/><rect class="an" x="2759.6" y="1469.6" width="1.8" height="23.34" transform="translate(565.9 3716.9) rotate(-73.7)"/><path class="ah" d="M2755,1475.9s-4.4-4.4-5.6-.5,5.7,22.1,8,22.5S2760.2,1481.3,2755,1475.9Z"/><polygon class="ap" points="2246.9 1675 2260.8 1675 2252.4 1671.6 2246.9 1675"/><path class="aq" d="M2326,1219s-5,6.5-9.6,5.5-9.5.8-11.2,1.3-10.2.2-9.4,3.1,13,1.5,15.6,1.7-5.6,8.6-5.9,11.3,14.3,15.5,19.3,9.2,6.1-16.5,7.2-17.5,3.8-4.5,3.8-4.5Z"/><path class="aq" d="M2306.3,1240.1s-13.9,20.6-13.7,22.7,1.4,2.9,2.8,1l14-19.5s-12.4,27.1-12.6,28.9,2,2.5,2.9,1.6,14.6-27.1,14.6-27.1-11.5,25.3-11.2,26.9a1.9,1.9,0,0,0,3.5.4c1-1.8,13-24.7,13-24.7s-7.2,18.9-6.2,20.1,2.4,2.1,4.1-2.9,7-16.1,7-16.1Z"/><path class="ar" d="M2444.2,1281l-9.2,19.9h0l-5.7,12.2c-13.4,28.9-31.3,67.7-33.2,72.9-3,8.3,12.2,36.4,12.7,56.2s11.3,128.9,11.3,128.9l-16.8-3.8-44-172.7s-5.3-23.1-5.3-37.6c0-6.2,4.7-18.3,8-32.9s31-120.4,31-120.4C2478.4,1173,2444.2,1281,2444.2,1281Z"/><path class="as" d="M2415.4,1569.5s-6.1-5.4-9.1-6-5.8-.5-7.1.9-4.9,7.2-6.9,8.9-16.1,15.4-19.4,16.4-17.8.1-17,8.5,12.5,12.1,33.5,10.2,18.4-6.8,30.1-9.4,12.5-8.4,10.5-15.5-10.4-14.3-9.5-16.2S2415.4,1569.5,2415.4,1569.5Z"/><path class="ap" d="M2469.3,1587.6c0,49.9-25.8,90.2-57.5,90.2s-57.6-40.3-57.6-90.2,25.8-90.2,57.6-90.2S2469.3,1537.8,2469.3,1587.6Z"/><path class="ap" d="M2489.6,1587.6c0,49.9-25.8,90.2-57.5,90.2s-57.6-40.3-57.6-90.2,25.8-90.2,57.6-90.2S2489.6,1537.8,2489.6,1587.6Z"/><path class="at" d="M2482.3,1587.6c0,41-21.2,74.3-47.4,74.3s-47.3-33.3-47.3-74.3,21.2-74.2,47.3-74.2S2482.3,1546.6,2482.3,1587.6Z"/><polygon class="ap" points="2408.8 1497.5 2432.1 1497.4 2413.7 1503.7 2408.8 1497.5"/><polygon class="ap" points="2411.8 1677.8 2432.1 1677.8 2419.8 1672.8 2411.8 1677.8"/><path class="au" d="M2380.3,1622.2l-25.2-1.1s-24.7-81.3,34.4-119.6,93.2,19.4,98.6,41.6Z"/><polygon class="ap" points="2043.6 1533.2 2056.4 1533.2 2043.6 1537.5 2043.6 1533.2"/><polygon class="ap" points="2043.6 1656.8 2056.4 1656.8 2043.6 1653.4 2043.6 1656.8"/><ellipse class="ap" cx="2043.6" cy="1595" rx="39.4" ry="61.8"/><path class="av" d="M2095.9,1595c0,34.1-17.7,61.8-39.5,61.8s-39.4-27.7-39.4-61.8,17.7-61.8,39.4-61.8S2095.9,1560.9,2095.9,1595Z"/><polygon class="av" points="2037.3 1622 2226.1 1636.9 2273.5 1615.4 2090.3 1604 2037.3 1622"/><ellipse class="aw" cx="1975.8" cy="1185.2" rx="4.9" ry="8.2"/><path class="ah" d="M1975.7,1190.7s-5.4-13.7,2-18.8,19.9-2.4,23.3-1.4c11.8,3.4,24.7.1,26.2-1.5s10,10.9,10,10.9l-15.1,1.7s-.8-2.7-9.1-1.8-5.7,12.4-11,12.4S1982.1,1195.9,1975.7,1190.7Z"/><path class="ax" d="M2461.2,1155.8a152.2,152.2,0,0,0,20.5,48.9s24.7,5.6,33.3-10.7c3.5-6.5,4-26.3,1.5-50.9-3.9-38.1-15.2-87.7-34.8-118.1C2481.7,1025,2445.3,1086.3,2461.2,1155.8Z"/><path class="as" d="M2461.2,1155.8a152.2,152.2,0,0,0,20.5,48.9s24.7,5.6,33.3-10.7c3.5-6.5,4-26.3,1.5-50.9Z"/><path class="aj" d="M2336.7,1231.9c2.2-1.7,44-50,46.3-62.5s2.8-15.7,4.2-20.7a12,12,0,0,1,.4-1.7c.8-3.7,2.7-11.9,4.7-19.6.1-.5.3-1,.4-1.6V1123c1.4-5.3-.9-8.1-1.4-12.1a12.2,12.2,0,0,1,.2-4.2h0c1.6-7.2,2.7-13.3,2.6-16.7-.1-11.4,10.1-65.8,10.1-65.8s-19.7,6.7-25.8,17.8-7,36.9-7.2,42.4-3.6,51.6-4.3,61-1.4,10.6-3.2,16.9-45.1,56.7-45.2,61.7C2318.5,1224.9,2332.8,1234.9,2336.7,1231.9Z"/><path class="ar" d="M2477.7,1195.2s16.9,21.9,21.4,47.9-2.7,113.3-2.5,126.1,12.2,44.9,9.8,69.1-22.3,146.1-22.3,146.1l-15.7-2.9s1.8-126.5.3-136.7-4.5-47.2-5.1-51.4-37.9-114-37.9-132.8S2437.1,1164.6,2477.7,1195.2Z"/><path class="as" d="M2424.4,1016.1s-14.8,7-19.9,8-25.1,26.9-28.6,36.3,0,23.7,7.2,40.3.4,22.2,3.7,38.8,3.3,62,2.7,71.3,90.1,32.3,109.2,15.5c0,0-12.8-44.6-23.2-67.1-2-4.4-3-23.8-.8-29.5s27.8-48.7,27.8-48.7,5.2-42.8-5.9-51.5c-9.6-7.5-39.4-10.9-44.1-12.5S2434,1014.6,2424.4,1016.1Z"/><path class="aj" d="M2383.1,1100.7c7.2,16.6.4,22.2,3.7,38.8s-2.9,78.8-3.5,88,96.3,15.6,115.4-1.2c0,0-5-17.4-11.3-36-.7-2.3-1.5-4.6-2.3-6.9-3.2-8.9-6.5-17.5-9.6-24.2-2-4.4-3-23.8-.8-29.5s27.8-48.7,27.8-48.7,5.2-42.8-5.9-51.5c-3.8-2.9-10.7-5.2-17.9-7.1l-8.2-1.8c-8.4-1.7-15.8-2.9-18-3.6-4.7-1.7-18.5-2.4-28.1-.9,0,0-14.8,6.9-19.9,8s-25.1,26.9-28.6,36.3S2375.9,1084.1,2383.1,1100.7Z"/><path class="ah" d="M2452.5,1017c-17.5,33.4-32.8,18-32.8,18,.2-3.9-.2-11.3-.7-18.4-.2-2-.4-4.1-.5-6-.6-6.5-1.2-11.6-1.2-11.6s38.9-33.3,33.4-14.5S2452.5,1017,2452.5,1017Z"/><path class="ah" d="M2464.3,1019.4s-18.6,30.2-39.6,28.9c-29-1.8-13.7-26.4-13.7-26.4s7.2-4.1,9.2-4.5,32.1-.8,32.1-.8Z"/><path class="ax" d="M2423.9,1142.7c2.9,17.1,10.5,30,22.7,38.1s25.4,9.6,36.1,9.6h4.7c-.7-2.3-1.5-4.6-2.3-6.9-10.1.3-23.6-1.1-34.7-8.5s-17.1-18.2-19.7-33.4c-5.4-32.5.6-62,17.7-87.8a125.8,125.8,0,0,1,30.3-31.3s-2.7-1.4-8.2-1.8h0c-.7.4-14.1,8.6-27.7,29C2430.2,1068.4,2416.7,1099.8,2423.9,1142.7Z"/><path class="ah" d="M2419.1,1164a13.3,13.3,0,0,0,4,.6l4.2-.8h1.3c1.3-.1,4.3.2,7.4-.7s15.7-8.7,15.7-8.7l-2.3-8-1-7.7s-19.6-4.9-22.7-4.3l-.8.2c-2.6.7-4.1,2.4-5.4,2.9s-5,2.5-5.4,4a5.2,5.2,0,0,0,1.1,4.7s-.8,4.1.6,6.5a7.5,7.5,0,0,0,1.7,6.3S2417.1,1162.8,2419.1,1164Z"/><path class="aj" d="M2475.7,1025s19.4-3.3,30,13.9c12.1,19.8,11.9,28.8,13.8,38.8s7.5,24.5,8.3,27.2,14.8,29.5,8.9,40.9-86.1,12.8-86.8,15.2-4.2-24-4.2-24,27.1-4,35.5-4.8c10-.8,19.2-6.6,17.9-11.5-2.9-10.8-9.6-25.9-12.3-31S2460.3,1032.4,2475.7,1025Z"/><path class="ay" d="M2375.8,1079.3s4.2,15.2,7.7,22.7,2.9,16.8,2.6,22.4a86.3,86.3,0,0,0,1.7,21.7s-.3,8-1.9,8C2385.9,1154.1,2378.6,1133.9,2375.8,1079.3Z"/><path class="az" d="M2126.5,1090.9s-2.7,13.9-7.1,29.9l-1.2,4.4h0c-.6,2-1.2,4-1.9,6.1s-1.5,4.9-2.3,7.3c-4.6,13.3-10.2,25.2-16.1,29-12.9,8.2-89,16.4-89,16.4l-3.1-13.8s27.3-10.8,44.4-15.1c10.4-2.5,23.7-8.5,24.9-9.9s16.1-53.2,16.7-58.4,3.8-26,8.9-37.2,13.6-12.9,13.6-12.9C2143.3,1044.3,2126.5,1090.9,2126.5,1090.9Z"/><path class="ba" d="M2083,1587.3s-11.5,12.2-23.2,14.7-20,5.8-20.1,12.7,33.8,11.6,47.2,4.6c20-10.5,22.1-7.3,24.3-12.6s-2.7-19.2-2.5-20.9S2083,1587.3,2083,1587.3Z"/><path class="bb" d="M2084.3,1581.5s-1.5,5.7-1.3,5.8,26.5,3.1,25.7-1.5-1.6-7.7-1.6-7.7Z"/><path class="ba" d="M2232.5,1590.5s-8.5,11.8-19.8,14.5-18.5,7.8-19,14.6,26.4,15.6,45.3,3.7c12.5-7.8,17.1-7.3,19.7-12.3s-1.4-18.9-1.1-20.5S2232.5,1590.5,2232.5,1590.5Z"/><path class="am" d="M2110.8,1240.1s-12.2,88.2-17.1,118c-5.8,34.8-7.8,63.6-9.4,81.7-2,22.7-4.7,138.7-6.2,145.4s35.4,3.2,35.4,3.2,19.3-151.4,25.3-175.5c5.7-22.5,22.1-119.7,27.2-113.6s27.2,117.1,31,134.8,22.6,156.3,22.6,156.3,34.2,4.8,41.2-.8c0,0-12.8-122.8-15.2-156-1-12.7.9-152.5-20.5-208.5C2213.8,1195.4,2110.8,1240.1,2110.8,1240.1Z"/><path class="az" d="M2146.4,1028.7s-32.1,6.6-35.9,10-11.5,38.8-11.9,48.6,3.9,50.7,8,66,3.4,90.3.8,111.4c0,0,46.8,21.2,127.1,1.9,0,0-9.6-70.8-7-91.7,3.2-26.7,11.1-88.4,11.1-88.4s-5.6-42.9-11.3-47.7-47.3-10.1-47.3-10.1Z"/><path class="ah" d="M2159.7,929.4s-38.7-14.3-36.3,37,11.5,56.6,36.9,49.4,27.6-39.5,30.9-55.1S2172.3,931.6,2159.7,929.4Z"/><path class="ah" d="M2141.3,1035.7s8.5,6.3,38.7-7c0,0-1.4-21.7,4.5-41s-40.5,25.7-40.5,25.7.6,2.3.3,5a45,45,0,0,1-1.5,7.9C2141.2,1032.8,2141.3,1030,2141.3,1035.7Z"/><path class="bc" d="M2185.8,986.1s.1-13.7-5.6-14.9-8.6,6.6-8.6,6.6l-4.6-.2s4.1-13.9-1.4-17.1-37.9-.4-42-5.1,1.8-32.4,10.7-35.2,33.1-8.2,48.5,5.5c0,0,13.4.2,13.9,11.1S2190.4,978.7,2185.8,986.1Z"/><path class="ao" d="M2142.8,1026.3c30-5,34.5-22,34.5-22.3-11.6,15-33,14.4-33,14.4A45,45,0,0,1,2142.8,1026.3Z"/><path class="ah" d="M2173.8,965.3c1.7-4.5,11.3-3.9,10.3,3.3s-8.9,18.2-12.1,16.1S2171.4,971.6,2173.8,965.3Z"/><path class="az" d="M2209.2,1036.9s-20.2,5.5-9.1,42.4c8.7,28.9,9.8,35.2,9.8,35.2l46.5-11.6s-13.6-63.6-35.9-67C2220.5,1035.9,2213.5,1034.9,2209.2,1036.9Z"/><rect class="bd" x="2110.8" y="1089.2" width="19.7" height="30.11" transform="translate(4241.3 2208.5) rotate(180)"/><path class="az" d="M2142.6,1027.3s21,1.2,37.2-4.2l.7,7.5s-23.7,10.8-41.1,6.9Z"/><path class="be" d="M2217.9,1112.5s2.9,19.1,4.6,31.6h0l-43.9,25.2s52.6-14.1,54-21.4h0C2235.8,1141.5,2235.1,1130.2,2217.9,1112.5Z"/><polygon class="aj" points="2037.3 1622 2037.3 1629.5 2226.1 1645.6 2226.1 1636.9 2037.3 1622"/><rect class="aw" x="2001.3" y="1185" width="149.3" height="11.95" transform="matrix(1, 0.06, -0.06, 1, 79.27, -128.6)"/><path class="ah" d="M2105.6,1200.3s-5.4-13.7,2-18.9,19.9-2.3,23.3-1.4c11.8,3.5,24.7.2,26.2-1.4s10,13.4,10,13.4l-16.8,6.8s.9-10.3-7.4-9.4-5.7,12.4-11,12.4S2112,1205.4,2105.6,1200.3Z"/><path class="aw" d="M2151.1,1196.8c0,4.8-2.9,8.8-6.5,8.8s-6.4-4-6.4-8.8,2.9-8.9,6.4-8.9S2151.1,1191.9,2151.1,1196.8Z"/><path class="az" d="M2206.8,1039.3c-4.3,1.7-5.9,9.1-4.1,30.8s9.3,31.6,12.2,36.6,18.5,35.9,15.7,40-31.4,14.4-33.8,15.5-43.9,16.9-43.9,16.9l9.4,23.8s80.3-25.1,88.8-28.9c6.4-3,21.4-15.3,15.9-32.8s-15.7-59.2-17.5-62.5S2234.6,1028.6,2206.8,1039.3Z"/><ellipse class="aw" cx="2000.6" cy="1185.2" rx="4.9" ry="8.2"/><polygon class="aj" points="2137.1 1635 2047.2 1195.1 2059.3 1195.9 2148.6 1632.6 2137.1 1635"/><path class="ap" d="M2286.3,1613.2c0,34.2-17.6,61.8-39.4,61.8s-39.4-27.6-39.4-61.8,17.6-61.7,39.4-61.7S2286.3,1579.1,2286.3,1613.2Z"/><path class="ap" d="M2300.2,1613.2c0,34.2-17.6,61.8-39.4,61.8s-39.4-27.6-39.4-61.8,17.6-61.7,39.4-61.7S2300.2,1579.1,2300.2,1613.2Z"/><path class="aj" d="M2295.2,1613.2c0,28.1-14.5,50.9-32.4,50.9s-32.5-22.8-32.5-50.9,14.6-50.8,32.5-50.8S2295.2,1585.2,2295.2,1613.2Z"/><polygon class="ap" points="2244.9 1551.5 2260.8 1551.5 2248.2 1555.7 2244.9 1551.5"/><path class="aj" d="M2037.3,1622s-3.4,3,0,7.5Z"/><polygon class="au" points="2432.1 1621 2482.3 1622.2 2482.3 1630 2432.1 1627.9 2432.1 1621"/><polygon class="bf" points="2482.3 1622.2 2502.6 1603.2 2502.6 1608.5 2482.3 1630 2482.3 1622.2"/><polygon class="bf" points="2432.1 1621 2456.1 1602.1 2502.6 1603.2 2482.3 1622.2 2432.1 1621"/><path class="as" d="M2480.9,1583.1s-6.7-3.1-11.2-2.9-4,2.9-5.1,4.5-11.6,17.6-14.4,20.5-13.1,5.9-11.7,13,14.4,10,30.3,8,23.7-16.9,26.2-20.2-6-24.8-8.6-26.4S2480.9,1583.1,2480.9,1583.1Z"/><path class="au" d="M2432.1,1627.9s-3.3-2.8,0-6.9Z"/><path class="ah" d="M2436.7,917.4c-8.8-2.3-40.9-7.2-45.1,33.6s20.2,67.7,40.1,58.5,30.2-38,29.7-59.4S2447.8,920.4,2436.7,917.4Z"/><path class="bc" d="M2391.6,951s-4.3-34.3,29.9-38.2,45.6,23.5,44.4,44.3a50.3,50.3,0,0,1-14.5,32.7s-.1-16.7-7.1-20.5-34.3-10.3-47.5-29.4C2396.8,939.9,2391.9,946.7,2391.6,951Z"/><path class="bc" d="M2441.5,953.8c-2.2,14.3,6.1,27.4,18.6,29.4s24.5-8.1,26.7-22.5-6.2-27.5-18.7-29.4S2443.7,939.4,2441.5,953.8Z"/><path class="ah" d="M2442.8,963.5a5.1,5.1,0,0,1,7.3-2.8c2.4,1.6,4.2,6.7,1.1,13.6S2435.6,987,2442.8,963.5Z"/><path class="ao" d="M2445.1,998.9s-5.7,21.1-26.1,17.7c-.2-2-.4-4.1-.5-6C2418.5,1010.6,2430.3,1015.8,2445.1,998.9Z"/><path class="bg" d="M2435,1300.9h0l-5.7,12.2-1.8-40.6Z"/><path class="bh" d="M694.2,1146.2s-8.5-18.6-25.7-10.5-14.4,33-8,43.4,29.2,26,21.8,44.8a208,208,0,0,1-16.9,33.4s46.3-2.1,51.4-26.6S694.2,1146.2,694.2,1146.2Z"/><path class="bi" d="M786.5,1367.6c-1.4-6.9-2.5-6.6-3.3-16.5s-1.8-57.2-2-63-1.3-33.2-7.6-44.6-27.2-18.8-27.2-18.8,10.8,57.4,10.6,69.3c0,3.6,1.2,10.1,2.8,17.6v.2a10.6,10.6,0,0,1,.2,4.3c-.5,4.3-2.9,7.2-1.4,12.8v3a10.5,10.5,0,0,0,.4,1.7c2.1,8.1,4.1,16.8,5,20.6.2.8.3,1.4.4,1.8,1.4,5.2-.3,2.4,2.2,15.6C766.6,1371.6,789.2,1380.8,786.5,1367.6Z"/><path class="bj" d="M669,1405s-17.8,23.1-22.6,50.5,2.8,119.3,2.6,132.9-12.8,47.2-10.3,72.7,23.6,154,23.6,154l16.5-3.1s-1.9-133.2-.4-143.9,4.8-49.8,5.4-54.2,40-120.2,40-139.9S711.8,1372.7,669,1405Z"/><path class="bj" d="M758.2,1414s29.2,111.4,32.7,126.8,8.5,28.2,8.5,34.7c0,15.2,5.9,44.5,5.9,44.5l31.8,179.6H818.8s-45.1-117.4-50.1-144c-3.9-20.5-4.7-46.2-7.8-55s-56.6-105.1-56.6-105.1S668.2,1381.6,758.2,1414Z"/><path class="am" d="M799.4,1575.5s-67.5,29-168.1,29c0,0,4.4-130.9,19.1-163.7s110.2-18.1,110.2-18.1S799.4,1548.1,799.4,1575.5Z"/><path class="as" d="M725.2,1216.2s15.6,7.4,21,8.5,26.4,28.3,30.1,38.3,0,24.9-7.6,42.4-.4,23.4-3.9,41-3.5,65.3-2.8,75-95,34.1-115.1,16.4c0,0,13.4-47,24.4-70.8,2.1-4.6,3.2-25,.8-31s-29.2-51.3-29.2-51.3-5.5-45.2,6.2-54.3c10.1-7.9,41.5-11.5,46.4-13.2S715,1214.7,725.2,1216.2Z"/><path class="bi" d="M768.7,1305.4c-7.6,17.6-.4,23.4-3.9,41s-3.5,65.3-2.8,75-95,34.1-115.1,16.4c0,0,5.2-18.4,11.8-37.9.9-2.5,1.7-4.9,2.5-7.3,3.3-9.4,6.8-18.5,10.1-25.6,2.1-4.6,3.2-25,.8-31-.9-2.4-5.5-10.6-10.7-19.7l-6.7-11.6c-6.3-10.8-11.8-20-11.8-20s-5.5-45.2,6.2-54.3c4-3.1,11.2-5.5,18.9-7.5l8.6-1.9c8.8-1.8,16.6-3,18.9-3.8,5-1.7,19.5-2.5,29.7-1,0,0,15.6,7.4,21,8.5s26.4,28.3,30.1,38.3S776.3,1287.9,768.7,1305.4Z"/><path class="bj" d="M732.6,1198.3s-.4,3.5-.8,8.6c-.3,2.3-.5,4.9-.7,7.6-.7,8.1-1.3,17.2-.9,21.7,0,0-16.2,16.2-34.7-19,0,0,7.8-14.5,2-34.2S732.6,1198.3,732.6,1198.3Z"/><path class="bj" d="M683.1,1219.7s19.6,31.8,41.7,30.5c30.7-1.9,14.5-27.8,14.5-27.8s-7.6-4.4-9.7-4.8-33.9-.8-33.9-.8Z"/><path class="bi" d="M671.1,1225.7s-20.5-3.5-31.6,14.6c-12.8,20.8-12.6,30.4-14.5,40.9s-8,25.9-8.8,28.6-15.6,31.2-9.4,43.2,64.5,20.9,65.2,23.5,6.9-20.5,6.9-20.5a168.6,168.6,0,0,1-16.9-4.6c-10.1-3.3-20.2-9.6-18.8-14.8,3.1-11.4,13.4-37.4,16.2-42.8S687.3,1233.4,671.1,1225.7Z"/><path class="bk" d="M821.6,1797.7s6.3-5.7,9.5-6.3,6.2-.5,7.5,1,5.2,7.5,7.3,9.3,17,16.2,20.5,17.2,18.7.2,17.9,9.1-13.2,12.7-35.3,10.7-19.4-7.2-31.8-9.9-13.2-8.9-11-16.4,10.9-15,10-17S821.6,1797.7,821.6,1797.7Z"/><path class="bk" d="M665.7,1813.7s7-3.2,11.7-3,4.2,3,5.4,4.8S695,1834,698,1837s13.8,6.2,12.3,13.8-15.1,10.5-31.9,8.4-25-17.8-27.7-21.3,6.4-26.2,9.1-27.8S665.7,1813.7,665.7,1813.7Z"/><path class="bl" d="M776.4,1282.9s-4.5,16-8.1,23.9-3.1,17.7-2.8,23.6a91,91,0,0,1-1.7,22.9s.2,8.4,1.9,8.3C765.7,1361.6,773.4,1340.4,776.4,1282.9Z"/><path class="bk" d="M681.1,1136.9s-9.6,4.8-9.1,18.8,14.3,24.9,20.3,22S681.1,1136.9,681.1,1136.9Z"/><path class="bj" d="M741.9,1115.5s18.6,12.3,17,38.3-10.3,51.9-15.6,54.2-28-6.2-32.5-8.6-14-12.5-15.7-15.5-20.6-44.2-2.5-59.8S720.2,1107.7,741.9,1115.5Z"/><path class="bh" d="M726.9,1146.5s16,5.9,32.1,4.4c0,0,5.3-45.8-40.7-45.8s-39.2,45.8-38.3,52,9.3,28.6,19.2,33.8c0,0-3.6-23.6,3-27.9S723.6,1153.6,726.9,1146.5Z"/><path class="bj" d="M711.6,1158c-.9-5.2-5.8-10.1-11.5-4.8s3.9,18.7,8,18S712.9,1165,711.6,1158Z"/><path class="bm" d="M670.8,1302.9H757a0,0,0,0,1,0,0v20.4a0,0,0,0,1,0,0H670.8a3.6,3.6,0,0,1-3.6-3.6v-13.2A3.6,3.6,0,0,1,670.8,1302.9Z"/><path class="bn" d="M659.1,1323.4h86.2a0,0,0,0,1,0,0v20.5a0,0,0,0,1,0,0H659.1a3.6,3.6,0,0,1-3.6-3.6V1327A3.6,3.6,0,0,1,659.1,1323.4Z"/><path class="bo" d="M670.8,1343.8H757a0,0,0,0,1,0,0v20.5a0,0,0,0,1,0,0H670.8a3.6,3.6,0,0,1-3.6-3.6v-13.2A3.6,3.6,0,0,1,670.8,1343.8Z"/><path class="aj" d="M709.7,1302.9h86.2a0,0,0,0,1,0,0v20.4a0,0,0,0,1,0,0H709.7a3.6,3.6,0,0,1-3.6-3.6v-13.2A3.6,3.6,0,0,1,709.7,1302.9Z"/><path class="bp" d="M712.1,1305.1h83.7a0,0,0,0,1,0,0v16a0,0,0,0,1,0,0H712.1a3.6,3.6,0,0,1-3.6-3.6v-8.7A3.6,3.6,0,0,1,712.1,1305.1Z"/><path class="bq" d="M674.5,1282.5H790.7a0,0,0,0,1,0,0v20.5a0,0,0,0,1,0,0H674.5a4.2,4.2,0,0,1-4.2-4.2v-12A4.2,4.2,0,0,1,674.5,1282.5Z"/><path class="br" d="M742.5,1282.5h48.2a0,0,0,0,1,0,0v20.5a0,0,0,0,1,0,0H742.5a2.7,2.7,0,0,1-2.7-2.7v-15A2.7,2.7,0,0,1,742.5,1282.5Z"/><path class="bp" d="M743.8,1284.7h46.8a0,0,0,0,1,0,0v16a0,0,0,0,1,0,0H743.8a2.7,2.7,0,0,1-2.7-2.7v-10.5A2.7,2.7,0,0,1,743.8,1284.7Z"/><path class="bs" d="M698,1323.4h86.2a0,0,0,0,1,0,0v20.5a0,0,0,0,1,0,0H698a3.6,3.6,0,0,1-3.6-3.6V1327A3.6,3.6,0,0,1,698,1323.4Z"/><path class="bt" d="M709.7,1343.8h86.2a0,0,0,0,1,0,0v20.5a0,0,0,0,1,0,0H709.7a3.6,3.6,0,0,1-3.6-3.6v-13.2A3.6,3.6,0,0,1,709.7,1343.8Z"/><path class="bp" d="M700.5,1325.5h83.7a0,0,0,0,1,0,0v16.2a0,0,0,0,1,0,0H700.5a3.6,3.6,0,0,1-3.6-3.6v-9A3.6,3.6,0,0,1,700.5,1325.5Z"/><path class="bp" d="M712.1,1346.2h83.7a0,0,0,0,1,0,0v15.6a0,0,0,0,1,0,0H712.1a3.6,3.6,0,0,1-3.6-3.6v-8.4A3.6,3.6,0,0,1,712.1,1346.2Z"/><path class="bj" d="M671.5,1358.1s-7.7,4.1-5.5,7,5.4,6.5,5.4,6.5Z"/><path class="bj" d="M734.7,1364.6l-36.5-3.8c3.3-1.6,8.7-4.4,7.8-6s-12.3,1.4-16.5,1.4-9,2.2-9.9,2.6l-9-.9.8,13.7s19.2,4.1,24.7,5c9.1,1.5,38-6.6,38.6-8.3S734.7,1364.6,734.7,1364.6Z"/><path class="bi" d="M678.9,1356s-3.3,16.8-8.6,23.9L626.6,1364l21.8-19.2A115.5,115.5,0,0,0,678.9,1356Z"/><path class="bj" d="M791.5,1357s.6,13.1-7.2,16-16.9,1.5-20.8-.2-13.8-6.6-10.7-10.5C762.8,1349.9,791.5,1357,791.5,1357Z"/><path class="bj" d="M789,1366.1s10.2-.2,9.2-3.8-8-1.7-8-1.7Z"/><path class="bu" d="M731.8,1206.9c-.3,2.3-.5,4.9-.7,7.6-15.6-5.6-22.1-16.1-22.1-16.1C713,1201.6,731.8,1206.9,731.8,1206.9Z"/><path class="ax" d="M1077.5,1191.2l13.9,112.5,10.8,87.6s56.1,15,54.2-27.4a357.6,357.6,0,0,0-8.4-60.2c-11.1-50.1-29.9-93.3-38.8-104.2C1096.9,1184.4,1077.5,1191.2,1077.5,1191.2Z"/><path class="bv" d="M1091.4,1303.7l10.8,87.6s58.3,15.2,56.3-27.2c-.9-20.1-5.8-40.9-10.5-60.4Z"/><path class="bw" d="M956,1813.6s-15,9.9-21.9,13.7-34,6.2-36.5,8.9-1.2,10.8,3.4,11.4,37.8,1.8,48.7-1.4,31.8.1,36.3-1.7.2-26.3-1.8-31.7S956,1813.6,956,1813.6Z"/><polygon class="bx" points="982 1806.2 984.2 1812.8 956 1813.6 956.9 1804.6 982 1806.2"/><path class="bw" d="M1118.3,1799.9s-11.5,13.9-17,19.4-30.8,15.7-32.4,19.1,2,10.6,6.5,9.9,36.8-9.1,46.3-15.3,30.5-9.1,34.3-12.1-7.4-25.2-10.9-29.9S1118.3,1799.9,1118.3,1799.9Z"/><polygon class="bx" points="1141.1 1785.4 1145.1 1791 1118.3 1799.9 1116.6 1791 1141.1 1785.4"/><path class="ah" d="M907.1,1236.6s-24.9-13.5-27.2-12.9-2.9,2-.6,3.4l23.6,13.8s-31.7-10.8-33.8-10.8-2.4,2.7-1.2,3.6,32.1,13.4,32.1,13.4-29.7-10-31.4-9.5a2.4,2.4,0,0,0,.2,4.3l29.2,11.8s-22-5.8-23.1-4.5-1.9,3.2,3.8,4.5,18.9,6,18.9,6Z"/><path class="ah" d="M933.4,1256.9s-7.9-5-7.5-10.5-2.4-11.1-3.3-13.1-1.8-12-4.9-10.6.4,15.5.6,18.6-10.3-5.4-13.3-5.4-14.8,19-7,24,19.1,4.8,20.3,6a50.2,50.2,0,0,0,5.6,3.9Z"/><path class="ah" d="M1018.1,1319.4c-6.1,13.1-7.7,12.2-14.8,13.9-15.2,3.8-82.6-65.6-82.6-65.6l9.9-13s17.7,13.2,32.5,23.2c9.2,6.2,32,23,33.6,22s21.3-36.9,23.5-41.8,18.1-40,23.8-44.2C1044,1213.9,1057.5,1234.5,1018.1,1319.4Z"/><path class="by" d="M1034.9,1492.3s5.3,39.7,10.8,77.8h0c1.1,7.2,2.1,14.4,3.1,21.2h0c3.6,23.9,6.7,43.7,7.9,47.2,3.5,9.9,51.6,159.1,51.6,159.1s37.5-6.9,38.7-11c0,0-40.8-156.2-40.3-161.8s-5.1-165-5.1-165S1036.8,1483.1,1034.9,1492.3Z"/><path class="by" d="M1004.4,1442.9s-33.8,162-36.7,173.9-19,193.8-19,193.8,15.5,1.2,42.3,0c0,0,29.2-184,32.2-189.7,11.7-22.2,56.7-133.7,62.4-149.1s15.5-29.3,15.5-29.3S1062,1412.4,1004.4,1442.9Z"/><path class="bz" d="M1078.7,1184.1s-34.6,26.2-44.3,36.5-31.1,51.8-29.5,65c6.5,50.5,4.4,95,2.2,129.3-1.6,26.3-9.6,41.5-7.9,41.8,6.7,1.3,93.2,21.7,106.1,25.8,0,0-.4-96.9-4.4-109.1S1115.1,1233.7,1078.7,1184.1Z"/><path class="ah" d="M1078.7,1184.1s-63.7,69.3-60.1,61.5c11.3-24.7,23.8-32.6,23.7-37.7s-1.4-15.3-1.6-19.1c-.4-7.3-.8-13.2-.8-13.2s32.2-43.5,30.5-28.5S1078.7,1184.1,1078.7,1184.1Z"/><path class="ah" d="M1019.9,1101.7s-9.1,20.2-9.3,25,.9,8.5.1,14-5.9,17.5-5.3,20.9,9.1,2,10.1,8.6,7,19.1,10,19.4c7.8.8,38-10.9,40-17.1s13.5-41,17-47.6-52-44.1-57.3-33.6Z"/><path class="az" d="M1096,1118.2c4.3-17.3-15.6-19.8-15.6-19.8s-12.7-15.3-43.7-14-27.1,41.8-27.1,41.8,21.6-2.8,30.9-.3c0,0,.8,17.3-.3,21.6l11.7-.9s-1-15.3,4.6-16,7,32.6,17.3,40.2a10.9,10.9,0,0,1,1.5-4.7h0a135.9,135.9,0,0,0,8.4-16.8C1088.5,1139.4,1093.8,1127,1096,1118.2Z"/><path class="ah" d="M1048.7,1134.2s4.5-11.6,14.7-3.9c7.4,5.7-.7,25.3-8,25.1S1045.4,1144.4,1048.7,1134.2Z"/><path class="ca" d="M1067.3,1167s-1.6,6.2-3.3,7.7-9.7,7.6-23.5,11.7l1,12.3S1068.3,1188.9,1067.3,1167Z"/><path class="cb" d="M1024.3,1456.7s-4.3,8.3-7.4,11.5,17.1,22.7,17.1,22.7,9-18.7,8.8-20.6S1024.3,1456.7,1024.3,1456.7Z"/><path class="by" d="M1008.5,1464.6s-8.9,40.2-8.6,52.5,46.9-18.6,44.8-30.9Z"/><path class="cc" d="M1064.6,1286.3l18.2,61.8-39.2,72.6s26.7-61.9,25.9-77.5S1064.6,1286.3,1064.6,1286.3Z"/><path class="cd" d="M1045.7,1570.1h0c1.1,7.2,2.1,14.4,3.1,21.2,5.7-13,24.2-87,24.5-88.3Z"/><path class="ax" d="M1103.5,1342.6h2.3l-1.1-18.1c-.1,0-22.3,1-37.3-13-9.3-8.8-14.1-22-14.3-39.1-.5-55.4,37.8-61.1,39.4-61.3l-2.2-18c-1.5.1-14.9,2-28.5,12.8s-27.2,29.5-26.9,66.7c.3,22.4,7.1,40,20.3,52.3C1072.8,1341.2,1096.1,1342.6,1103.5,1342.6Z"/><path class="ah" d="M1090.3,1229.2s25.9,115.3,27.7,127.5-76.7,118.1-76.7,118.1l-20.7-11.2s60-111.2,60-116.3-27.3-101.1-27.3-101.1-2.1-16.9,11.3-24C1085.6,1211.2,1090.3,1229.2,1090.3,1229.2Z"/><path class="ce" d="M1066.4,1214.5s-28.6,9.2-7.1,63.5l42.1-10.6S1098.3,1200.9,1066.4,1214.5Z"/></svg>