<svg width="55" height="55" viewBox="0 0 55 55" fill="none" xmlns="http://www.w3.org/2000/svg">
<path fill-rule="evenodd" clip-rule="evenodd" d="M52 28C52 28.6131 51.9788 29.2212 51.937 29.8237C51.6334 29.83 51.3308 29.83 51.03 29.83C49.36 29.83 47.59 29.93 45.67 30.1C43.0061 30.3269 40.3811 30.6609 37.7759 31.0828V27.1994C37.8505 27.1919 37.9252 27.1855 38 27.18C39.63 27.18 40.93 27.18 42.66 27.09C45.24 26.98 47.76 26.78 50.11 26.47C50.7412 26.3839 51.3493 26.2913 51.9381 26.192C51.9791 26.7894 52 27.3923 52 28ZM30.668 28.6895V32.0905C29.3143 32.2515 28.2868 32.3363 27.2898 32.3744V29.0004C28.4213 28.9577 29.549 28.8539 30.668 28.6895ZM37.7759 26.8679C37.8572 26.8608 37.9385 26.8549 38.02 26.85C39.66 26.85 40.94 26.83 42.66 26.76C45.24 26.66 47.74 26.46 50.09 26.15C50.7321 26.0648 51.3322 25.9731 51.9143 25.8731C51.8254 24.7759 51.6685 23.6979 51.4476 22.6435C49.1454 22.812 46.8343 22.8243 44.53 22.68C42.37 22.61 41.53 22.61 40.53 22.61C39.6771 22.6066 38.8305 22.7556 38.03 23.05L37.7759 23.1465V26.8679ZM30.668 24.8489V28.341C29.5494 28.5138 28.4217 28.6267 27.2898 28.6787V24.8696C27.566 24.8829 27.8428 24.8897 28.12 24.89C28.9709 24.9242 29.8216 24.9103 30.668 24.8489ZM37.7759 22.8115L37.95 22.74C38.7822 22.4325 39.6628 22.2767 40.55 22.28C41.4901 22.28 42.313 22.298 44.7397 22.3512L44.7399 22.3512L45.14 22.36C47.2183 22.4855 49.3023 22.4734 51.3786 22.3238C50.979 20.5293 50.3939 18.8047 49.6445 17.1711C47.16 17.6166 44.6028 17.5195 42.15 16.88C39.4203 16.2945 38.4901 16.1108 37.7759 16.1248V22.8115ZM30.668 18.8464V24.5344C29.8447 24.5923 29.0175 24.6043 28.19 24.57C27.8894 24.5697 27.5892 24.5616 27.2898 24.5458V18.6838C28.0982 18.7981 28.9129 18.867 29.73 18.89C30.0445 18.8968 30.3579 18.8821 30.668 18.8464ZM36.135 15.8182H30.668V18.2581C30.3617 18.2987 30.0515 18.3162 29.74 18.31C28.9194 18.2856 28.1013 18.2139 27.2898 18.0953V15.8182H20.1818V17.3C17.5362 17.2993 15.6844 17.289 13.57 17.13C12.9773 17.1099 12.3856 17.0735 11.7955 17.0208V15.8182H4.6875V16.5577C4.40318 16.6816 4.13232 16.8365 3.88 17.02C3.05723 17.5651 2.30127 18.2047 1.62748 18.9255C2.62144 16.257 4.0411 13.7958 5.80389 11.6244C6.59793 11.561 7.3982 11.6335 8.17 11.84C13.9885 13.1378 19.9128 13.9043 25.87 14.13C29.441 13.7594 32.9594 12.9913 36.36 11.84C39.4119 11.3967 42.5131 11.4136 45.56 11.89L46.4898 11.9929C47.5961 13.407 48.5591 14.9385 49.3572 16.5656C47.0128 16.9697 44.6041 16.8745 42.29 16.28C38.44 15.46 38.06 15.4 36.88 15.61C36.6287 15.67 36.3802 15.7394 36.135 15.8182ZM4.6875 17.1601C3.724 17.6507 2.67662 18.5922 1.34 20.03L1.19367 20.1892C0.418135 22.6547 0 25.2785 0 28L1.69265e-05 28.03L0.17 27.94C1.17431 26.5679 2.61882 25.3659 4.6875 24.2632V17.1601ZM4.6875 24.5951C2.69915 25.6584 1.30396 26.8088 0.35 28.09C0.314623 28.1401 0.279247 28.1894 0.244126 28.2383L0.244108 28.2383C0.162391 28.352 0.0820612 28.4639 0.00634633 28.5802C0.314886 42.6717 11.8345 54 26 54C28.0436 54 30.0322 53.7642 31.94 53.3184C31.1654 53.0413 30.3779 52.8015 29.58 52.6C27.9335 52.1875 26.2639 51.8736 24.58 51.66C22.9797 51.5116 21.4168 51.0888 19.96 50.41C18.5285 49.6094 17.4557 48.2935 16.96 46.73C16.16 44.64 16.7 43.38 18.37 42.87C20.319 42.4634 22.331 42.4634 24.28 42.87C24.88 42.96 25.5 43.06 26.28 43.2C27.7639 43.5527 29.2768 43.7703 30.8 43.85C35.03 43.85 36.46 43.68 43.18 42.22C43.5223 42.1439 43.8617 42.0709 44.1999 42H30.668V40.423C28.826 40.5353 26.8669 40.59 24.86 40.59C24.388 40.5867 23.9168 40.5499 23.45 40.48C23.3551 40.4632 23.2604 40.4458 23.1658 40.4278C21.2764 41.6435 18.8233 42.3068 15.9886 42.3068C15.0359 42.3068 14.1276 42.233 13.2701 42.0895C12.8625 43.3633 12.6103 44.6831 12.52 46.02C12.4922 47.261 12.1029 48.4669 11.4 49.49L11.13 49.29C11.8071 48.3179 12.1764 47.1646 12.19 45.98C12.2835 44.6373 12.5337 43.3115 12.9345 42.0293C11.6378 41.7808 10.4631 41.369 9.4332 40.809C9.1083 43.7938 8.79908 45.2221 8.11 46.49C8.07936 46.5598 8.04255 46.6267 8 46.69L7.76 46.45L7.82 46.34C8.49061 45.1012 8.79686 43.663 9.1266 40.6354C7.52794 39.6931 6.30502 38.3762 5.55147 36.7455C5.44827 37.1564 5.36102 37.5715 5.29 37.99C5.05752 39.3345 4.65775 40.6447 4.1 41.89C4.05451 41.8218 4.02971 41.7618 4.00678 41.7064C3.97931 41.6399 3.95451 41.58 3.9 41.52C4.39865 40.285 4.76731 39.0014 5 37.69C5.08374 37.191 5.1924 36.6972 5.32538 36.2102C4.9083 35.1242 4.6875 33.9124 4.6875 32.5909V29.0602C3.17133 29.8725 2.14675 31.8449 1.13 35.24V35.34C1.1168 35.2938 1.10312 35.2495 1.0898 35.2065L1.08979 35.2064C1.04258 35.0537 1 34.916 1 34.76C2.00362 31.4237 3.07263 29.5179 4.6875 28.7102V24.5951ZM11.7955 26.0844V21.9525C14.6498 21.3745 16.8911 21.7426 19.78 22.88L20.1818 23.0447V27.0458C18.327 25.931 16.1578 25.4465 14 25.67C13.2566 25.7647 12.5205 25.9032 11.7955 26.0844ZM11.7955 26.4175V30.1718C13.444 29.9266 15.1367 30.048 16.75 30.54L17.95 30.87L19.17 31.24C19.5049 31.355 19.8422 31.4616 20.1818 31.5597V27.4683C18.3537 26.2952 16.1812 25.7774 14.02 26C13.2696 26.0937 12.5267 26.2332 11.7955 26.4175ZM20.1818 31.9133C19.7103 31.7811 19.2428 31.6333 18.78 31.47L17.87 31.2C17.41 31.06 17.04 30.95 16.67 30.86C15.081 30.3828 13.4143 30.2768 11.7955 30.5371V31.9773C11.7955 33.1948 12.2309 34.2406 12.9702 34.9833C12.9967 34.9788 13.0233 34.9744 13.05 34.97C15.0112 34.7575 16.9893 34.784 18.9411 35.048C19.7204 34.3019 20.1818 33.2305 20.1818 31.9773V31.9133ZM18.531 35.3894C16.4013 35.1406 14.6513 35.0861 13.2849 35.2664C13.998 35.8401 14.9282 36.1705 15.9886 36.1705C16.9708 36.1705 17.8413 35.8871 18.531 35.3894ZM26.4489 36.6789C28.3094 36.9902 28.6419 37 29.44 37C29.8184 37 30.2139 36.9869 30.668 36.9557V40.0615C28.8349 40.1686 26.8851 40.22 24.89 40.22C24.4629 40.2167 24.0366 40.1838 23.6141 40.1213C24.8547 39.2206 25.8196 38.061 26.4489 36.6789ZM48.3612 37.0881V41.2114L48.402 41.2047C49.2154 39.8278 49.9054 38.3694 50.4569 36.8447L48.3612 37.0881ZM45.9341 42H47.9127C47.1083 43.2564 46.1989 44.4391 45.1967 45.5356C41.5255 45.4606 37.8573 45.8243 34.27 46.62C30.94 47.28 29.43 47.85 29.21 48.62C28.99 49.39 29.69 49.82 31.31 50.53C31.51 50.62 32.16 50.89 32.92 51.19C33.2166 51.3107 33.5304 51.437 33.8426 51.5626C34.4302 51.799 35.0123 52.0332 35.4634 52.2241C34.5044 52.599 33.5177 52.9186 32.5072 53.179C31.5775 52.8219 30.6267 52.5216 29.66 52.28C27.9952 51.8441 26.3054 51.5101 24.6 51.28C23.0375 51.1431 21.5111 50.7336 20.09 50.07C18.7137 49.3121 17.6796 48.0562 17.2 46.56C16.47 44.65 16.93 43.58 18.41 43.13C20.3147 42.7445 22.278 42.7513 24.18 43.15C24.77 43.24 25.39 43.34 26.18 43.48C27.6862 43.8405 29.223 44.0582 30.77 44.13C35 44.13 36.48 43.99 43.21 42.56C44.1538 42.3569 45.037 42.1752 45.9341 42ZM48.3612 36.7553V36.2727H37.7759V35.9973C38.9042 35.8188 40.1944 35.6111 41.68 35.37L42.42 35.25C46.4007 34.6074 49.2183 34.1877 51.3146 33.956C51.1128 34.8171 50.8682 35.6617 50.5831 36.4875L48.3612 36.7553ZM37.7759 35.6383C38.8937 35.4617 40.1709 35.2569 41.64 35.02L42.39 34.9C46.4332 34.2414 49.2811 33.8191 51.397 33.5926C51.6433 32.4689 51.817 31.3181 51.9128 30.1453C51.6235 30.1549 51.3359 30.16 51.05 30.16C49.39 30.16 47.63 30.25 45.72 30.43C43.0785 30.6882 40.437 31.0351 37.7759 31.4219V35.6383ZM30.668 32.4366C29.3263 32.5957 28.2977 32.6789 27.2891 32.7157C27.2749 34.0464 27.0327 35.2641 26.5897 36.3522C28.3623 36.65 28.6951 36.65 29.46 36.65C29.8316 36.65 30.2205 36.6366 30.668 36.6049V32.4366ZM20.1818 22.6668L19.97 22.58C17.048 21.4448 14.7349 21.0609 11.7955 21.645V17.6097C12.3458 17.657 12.8975 17.6904 13.45 17.71C15.5986 17.833 17.4694 17.8665 20.1818 17.8697V22.6668ZM34.36 47.24C37.7249 46.4962 41.1618 46.1346 44.6057 46.1612C42.2648 48.559 39.4643 50.506 36.3466 51.8598L36.28 51.83C35.71 51.58 34.4 51.05 33.28 50.6C33.1016 50.5273 32.9285 50.4571 32.7648 50.3906C32.1854 50.1554 31.7237 49.968 31.56 49.89C30.31 49.35 29.77 48.95 29.83 48.76C29.89 48.57 30.2 48.39 30.83 48.14C31.9841 47.7575 33.1637 47.4567 34.36 47.24ZM8.26 11.55C7.54224 11.3599 6.80068 11.2803 6.06075 11.3129C10.8302 5.62006 17.9923 2 26 2C28.7968 2 31.4904 2.44158 34.0149 3.25883C30.6846 3.53995 27.343 3.67384 24 3.66H23.34C22.6995 3.63685 22.0614 3.57003 21.43 3.46L20.73 3.69C21.589 3.84761 22.4576 3.94783 23.33 3.99H24C27.5989 4.00477 31.196 3.8477 34.779 3.51946C36.124 4.00184 37.4177 4.59192 38.6497 5.27928C37.3213 5.36866 35.5614 5.49129 33.12 5.68H32.61C27.54 6 24.97 6.13 23.26 6.13C20.8714 6.00589 18.4931 5.72865 16.14 5.3L14.93 5.79C17.6843 6.27158 20.4667 6.57554 23.26 6.7C24.99 6.7 27.56 6.56 32.66 6.24H33.16C34.0997 6.17932 34.9383 6.12438 35.69 6.07513L35.6908 6.07508C37.3703 5.96505 38.6165 5.88341 39.5889 5.82947C40.6099 6.45657 41.5842 7.15222 42.5055 7.91H41.54C38.3021 7.91771 35.0706 8.1987 31.88 8.75C31.3678 8.82665 30.901 8.89683 30.474 8.96102L30.4727 8.96122C26.3333 9.58357 25.9413 9.64251 24.21 9.57C23.3509 9.53415 22.497 9.41696 21.66 9.22C17.9817 8.42556 14.2406 7.95708 10.48 7.82L9.83 8.13C13.7823 8.22945 17.7164 8.70154 21.58 9.54C22.4399 9.74121 23.3174 9.85843 24.2 9.89C26.13 9.98 26.41 9.94 31.92 9.07C35.1008 8.52189 38.3223 8.24423 41.55 8.24C41.9354 8.24 42.4147 8.24959 42.9225 8.26037C44.1077 9.27733 45.2002 10.3992 46.1857 11.6115C45.9959 11.589 45.7976 11.5652 45.59 11.54C42.5037 11.0798 39.3663 11.0798 36.28 11.54C32.9015 12.6843 29.407 13.4523 25.86 13.83C19.9362 13.6063 14.0452 12.8432 8.26 11.55Z" fill="#B0BEC5"/>
</svg>
