<svg xmlns="http://www.w3.org/2000/svg" width="54.32" height="54.32" viewBox="0 0 54.32 54.32"><defs><style>.cls-1{fill:#003726;}.cls-2{fill:#005844;fill-rule:evenodd;}.cls-3{font-size:36px;fill:#fff;font-family:Roboto-Black, Roboto;font-weight:800;}</style></defs><g id="Layer_2" data-name="Layer 2"><g id="Layer_1-2" data-name="Layer 1"><circle class="cls-1" cx="27.16" cy="27.16" r="27.16"/><path class="cls-2" d="M3.9,41.39A19.18,19.18,0,0,0,5,37.56a15.11,15.11,0,0,1,1.3-4.08,5.64,5.64,0,0,1,3.16-2.83,11.29,11.29,0,0,1,7.29-.24l1.2.33,1.22.37a21.43,21.43,0,0,0,6.68,1.16c2.8,0,4.79-.24,11.82-1.3,2.64-.43,5.3-.77,8-1,1.92-.17,3.69-.27,5.36-.27.7,0,1.41,0,2.12-.08,0,.11,0,.22,0,.33-.71.05-1.41.08-2.1.08-1.66,0-3.42.09-5.33.27-2.66.26-5.32.61-8,1-7,1.07-9,1.31-11.86,1.31a22.34,22.34,0,0,1-7.08-1.27l-.91-.27c-.46-.14-.83-.25-1.2-.34A10.92,10.92,0,0,0,9.6,31a5.29,5.29,0,0,0-3,2.67,16.32,16.32,0,0,0-1.31,4.19,16.36,16.36,0,0,1-1.19,3.9C4,41.61,4,41.5,3.9,41.39ZM1.13,35.21l0-.1c1.15-3.84,2.31-5.86,4.18-6.44a29.83,29.83,0,0,0,3.21-1.22,18.47,18.47,0,0,1,5.5-1.58,9.59,9.59,0,0,1,6.18,1.48A12.23,12.23,0,0,0,27,28.88,31.4,31.4,0,0,0,33.54,28l2-.46h0l.71-.17A8.26,8.26,0,0,1,38,27.05c1.63,0,2.93,0,4.66-.09,2.58-.11,5.1-.31,7.45-.62,1.1-.15,2.13-.32,3.11-.51,0-.11,0-.22,0-.33-1,.2-2,.37-3.13.52-2.35.31-4.85.51-7.43.61-1.72.07-3,.09-4.64.09a9,9,0,0,0-1.79.29l-.73.17h0l-2,.46a31.65,31.65,0,0,1-6.48.92,12,12,0,0,1-6.59-1.49A10,10,0,0,0,14,25.54a19,19,0,0,0-5.59,1.61l-.13.05a28.91,28.91,0,0,1-3.06,1.16C3.3,29,2.11,30.94,1,34.63,1,34.83,1.07,35,1.13,35.21ZM0,28.46c.11-.17.23-.33.35-.5C1.72,26.12,4,24.55,7.64,23.12c5.19-2.05,8-2,12.14-.37l1,.41a17.73,17.73,0,0,0,7.34,1.6,22.65,22.65,0,0,0,8.09-1.15l.82-.31,1-.38a7.16,7.16,0,0,1,2.5-.44c1,0,1.84,0,4,.07A51.05,51.05,0,0,0,52,22.47l.7-.14a3,3,0,0,0-.07-.32l-.69.14a47.2,47.2,0,0,1-6.8.08c-2.74-.06-3.6-.08-4.59-.08a7.42,7.42,0,0,0-2.6.46L37,23h0l-.81.3a22.2,22.2,0,0,1-8,1.14,17.36,17.36,0,0,1-7.22-1.58l-1-.41c-4.17-1.62-7.1-1.71-12.38.36-3.7,1.46-6,3.06-7.42,5L0,27.9C0,28.08,0,28.27,0,28.46Zm1-8.19.34-.37c2.51-2.7,4-3.65,5.83-3.15a33.06,33.06,0,0,0,6.28.83c2.27.13,4.23.16,7.2.16a27.35,27.35,0,0,1,4.92.5,21.83,21.83,0,0,0,4.16.52,6.89,6.89,0,0,0,3.84-1.07A9.58,9.58,0,0,1,37,16.08c1.05-.18,1.42-.13,5.15.67a17.48,17.48,0,0,0,8.82,0c-.09-.2-.18-.4-.28-.6a16.88,16.88,0,0,1-8.4,0c-3.85-.82-4.23-.88-5.41-.67a10.13,10.13,0,0,0-3.66,1.7,6.13,6.13,0,0,1-3.48,1,21.32,21.32,0,0,1-4-.5,27.66,27.66,0,0,0-5-.51c-2.95,0-4.91,0-7.17-.17a32.29,32.29,0,0,1-6.13-.8,4.28,4.28,0,0,0-3.56.69,12.64,12.64,0,0,0-2.34,2C1.28,19.31,1.13,19.79,1,20.27Zm4.32-8.72h0a7,7,0,0,1,2.85.16A98.42,98.42,0,0,0,25.87,14a48.24,48.24,0,0,0,10.49-2.29,30.85,30.85,0,0,1,9.2.05l2.71.3L48,11.68c-.64-.06-1.42-.15-2.41-.27a31.56,31.56,0,0,0-9.31,0,48.49,48.49,0,0,1-10.42,2.29,97.55,97.55,0,0,1-17.6-2.28,7.33,7.33,0,0,0-2.68-.2ZM44.88,8.16c-1.08,0-2.45-.05-3.33-.05a57.15,57.15,0,0,0-9.63.83c-5.51.87-5.79.91-7.72.82a13.64,13.64,0,0,1-2.62-.35A62.86,62.86,0,0,0,9.83,8l.65-.31A64,64,0,0,1,21.66,9.09a13.61,13.61,0,0,0,2.55.35c1.91.08,2.19,0,7.67-.82a57.54,57.54,0,0,1,9.66-.84c.79,0,2,0,3,0ZM40.88,5c.32.2.63.41.94.62-1.43,0-3.55.16-8.66.49l-.5,0c-5.1.32-7.67.46-9.4.46a65.22,65.22,0,0,1-8.33-.91l1.21-.49A55.92,55.92,0,0,0,23.26,6c1.71,0,4.28-.13,9.35-.45l.51,0C37.26,5.23,39.44,5.1,40.88,5ZM36.7,2.87l.6.26A113.07,113.07,0,0,1,24,3.86h-.67a19.67,19.67,0,0,1-2.6-.3l.7-.23a14.09,14.09,0,0,0,1.91.2H24A113.48,113.48,0,0,0,36.7,2.87Zm9.57,42.57a46.11,46.11,0,0,0-12,1.05c-3.33.66-4.84,1.23-5.06,2s.48,1.2,2.1,1.91c.2.09.85.36,1.61.66h0c1.13.46,2.51,1,3.1,1.28l.09,0c.29-.11.57-.22.84-.34l-.67-.3c-.57-.25-1.88-.78-3-1.23-.81-.33-1.51-.61-1.72-.71-1.25-.54-1.79-.94-1.73-1.13s.37-.37,1-.62a25.89,25.89,0,0,1,3.53-.9,45.83,45.83,0,0,1,11.25-1.06C45.88,45.87,46.07,45.66,46.27,45.44Zm6.31-12.09c-2.21.18-5.34.63-10.19,1.42l-.75.12c-8,1.29-10.31,1.63-12.18,1.63-1.11,0-1.31,0-6.32-.91-1.17-.21-2.07-.36-2.95-.49a24.37,24.37,0,0,0-7.14-.28C10.84,35.2,9.56,36.2,9.38,38l-.1.92-.08.89c-.36,3.51-.66,5.07-1.38,6.4l-.06.11.24.24a1.28,1.28,0,0,0,.11-.2c.75-1.38,1.05-2.95,1.41-6.51l.09-.9a2.45,2.45,0,0,0,0-.27c0-.24,0-.44.07-.64.32-3,3.83-3.54,10.44-2.57.88.13,1.78.28,2.94.49,5.05.89,5.24.91,6.38.91,1.9,0,4.23-.33,12.24-1.63l.74-.12c4.77-.77,7.87-1.22,10.06-1.41C52.53,33.57,52.55,33.46,52.58,33.35Zm-.82,2.89-.12.34-.54.06L48,37c-3.77.46-5.7.83-7.07,1.46-3,1.37-9.26,2-16.07,2a10,10,0,0,1-1.41-.11,22.14,22.14,0,0,1-3-.75c-2.4-.72-3.15-.9-4.13-.84A3,3,0,0,0,13.61,41a16.56,16.56,0,0,0-1.09,4.89,6.38,6.38,0,0,1-1.12,3.47l-.27-.2a5.91,5.91,0,0,0,1.06-3.31,17.26,17.26,0,0,1,1.11-5,3.38,3.38,0,0,1,3.06-2.46c1-.06,1.79.12,4.23.85a19.89,19.89,0,0,0,2.95.74,9.2,9.2,0,0,0,1.35.11c6.76,0,13-.59,15.94-1.94,1.41-.64,3.36-1,7.16-1.48l3.07-.37ZM22.94,53.87c-.22,0-.46-.08-.7-.11Zm26.71-13-.22.37-1.64.28c-1.59.29-3,.57-4.58.91C36.48,43.86,35,44,30.77,44a24.62,24.62,0,0,1-4.59-.65c-.79-.14-1.41-.24-2-.33A14.3,14.3,0,0,0,18.41,43c-1.48.45-1.94,1.52-1.21,3.43a6.15,6.15,0,0,0,2.89,3.51,13.43,13.43,0,0,0,4.51,1.21,42.3,42.3,0,0,1,5.06,1,24.51,24.51,0,0,1,3.57,1.19l-.54.13a25.65,25.65,0,0,0-3.11-1,42.66,42.66,0,0,0-5-.94,14,14,0,0,1-4.62-1.25,6.45,6.45,0,0,1-3-3.68c-.8-2.09-.26-3.35,1.41-3.86a14.47,14.47,0,0,1,5.91,0c.6.09,1.22.19,2,.33h0a25.25,25.25,0,0,0,4.52.65c4.23,0,5.66-.17,12.38-1.63,1.53-.34,3-.62,4.58-.91Z"/><text class="cls-3" transform="translate(5.19 39.44)">UL</text></g></g></svg>