<?xml version="1.0" encoding="utf-8"?>
<!-- Generator: Adobe Illustrator 25.1.0, SVG Export Plug-In . SVG Version: 6.00 Build 0)  -->
<svg version="1.1" id="Layer_1" xmlns="http://www.w3.org/2000/svg" xmlns:xlink="http://www.w3.org/1999/xlink" x="0px" y="0px"
	 viewBox="0 0 890.6 889.8" style="enable-background:new 0 0 890.6 889.8;" xml:space="preserve">
<style type="text/css">
	.st0{fill:none;}
	.st1{fill:#AED581;}
	.st2{fill:#B2EBF2;}
	.st3{fill:#E0E0E0;}
	.st4{fill:#ECEFF1;}
	.st5{fill:#C8D7AB;}
	.st6{fill:#F2EFE9;}
	.st7{fill:#FFFFE5;}
	.st8{fill:#CDEBB0;}
	.st9{fill:#C8E6C9;}
	.st10{fill:#A5D6A7;}
	.st11{fill:#FB8C00;}
	.st12{fill:#AAD3DF;}
	.st13{fill:#353D33;}
</style>
<rect x="1" class="st0" width="889.6" height="889.8"/>
<g>
	<path class="st1" d="M716.5,216.8l5.1,3.9c-18.6,6.2-58.5,58.5-78.1,62.4l-6-0.4c-15.2,21.6-46.5,52.4-70.3,64.2
		c-30.5,7.1-71.9,14.1-100.5-1.6c-2-3.4-5.8-10.7-4.5-14.8c-24.3-32.6-72.7-43.5-109.5-55.6l-4.8-6.2c-17.2-6.1-59.3-20-77.5-19
		c4.6-48.3,29.3-60.9,67-28.1c22.4,14.9,58.8,23.5,85.5,23.6l-2.4,30.4c13.8,2.5,28.1,17.3,38.4,25.7c8.4,3.2,34.4,21.2,42.4,26.2
		c27.6,6.5,46.5,5.5,72.8-5.4c-3-12.1-4.6-33.8-9-45c-1.3-1.4-5.6-2.1-7.4-2.3l-2.9-21.1c49.4-24.2-0.7-73-13.6-103
		c-20.4,9.4-49.8,19.8-70.4,29l23.6-36.3l-0.3-26.7c1.1-1.3,2.4-4.2,2.7-5.8c-0.8-8-16.7-44.9-19.9-53c13.9,1,27.7,2.6,41.4,4.9
		c92.7,16.3,176,66.3,234.1,140.3l-47.3,4.6l-16.3,12.4C695.4,220.7,710.9,221.6,716.5,216.8z"/>
	<path class="st1" d="M831.2,394c0-0.1,0-0.1-0.1-0.2c-1.6-14.3-4.2-28.7-7.5-42.5h0.1c-9.1-38.3-23.9-75-44.2-108.7
		c-11.8,10.4-33.4,15.3-48.1,19.9c-23.3,11.2-47.2,41.9-63.4,61.2c-17.5,16.8-44.7,37.6-66.5,48.7c-2.5-0.3-7.2-1.4-8.7-3.5
		c-3.5,2.3-10.9,4.3-15.1,4.2l-5-2.9c-21.4,11.9-52.3,10.5-75,18.6c-17.1-5.5-62.2-19.8-75-32.7c-8.9,0.5-24.5-3.6-32-8.4l-3.3,1.7
		c-32.7-11.9-91.6-27.9-108.4-60.6c-4-1.7-13.3-5.3-17.6-5.7c-4.4,45.6-31.9,42.2-34.7,78.1l5.8,0.7l1.5-14l37.1-0.3l4.6,5.8
		l21.5-7.6l14.6,4l18.8-5.4l2.3,2.1l3.4,17.3c-12.2,14-92.1,9-108.8,10c0.8,8.4-0.3,19.5,6.1,26.1c9.9,4,19.6-8.1,26.7-13.3
		l62.2-2.8c1.6-2.3,4.8-7.1,6.1-9.5c11-6.7,27.1-9.1,39.5-5.9l1.4,15.5c-2.5,0.3-7.5,0.8-9.9,1l-0.2-2.1l-4.1,0.5l1.5,11.8l4.5-0.5
		l2.4,17.3l3.3,2.1l0.6,4l9.7-1.3l0.6,2l3.6-0.3l0.5,5.2l3-0.3l1,1l0.3,2.1l1.7-0.4l1.1,0.9l0.3,2.2l2-0.2l1.1,0.9l0.2,1.3
		c1.4-0.3,4.4-0.6,5.8-0.7v0.7l8.1-1.2v-0.5l4.5-0.7l-0.4-3.3l2.6-0.3v-1l2.9-0.3l0.2,0.9l6.2-1l0.4,3.2l6.3-0.9l2.2,15.1l9.8-1.3
		l1.5,11.2l3.9,0.5l1.4-5.2l2.2-0.4c1.4-3.2,5.1-8.8,8.4-10.3l-0.8-22.6c5.9-5.7,16.7-11.7,19.7-19.6c55.1,10.8,94-5,145-19.2
		c3.6,0.8,8.9,4.4,11,7.5l1.2,6.8c4-0.2,10.5,2,13.6,4.4l2.1,3.9l-1.1,5.9l16-2.1c-0.6-4.9,2.2-13.9,4.4-18.2l-7.9-31l14.2-5.6
		c8.6,12.7,38.2,58.8,49.1,68.4c-1.1,3.2-4.8,14.7-5.9,18.1l-28.8,8.2c-2,3.1-6.9,10-10.4,11.5l-31.8,2.6l-2.6-1.4l-5.3,1.1l7,19.2
		c21.6-5.2,64.5-33.6,84.7-43.7l1-3.8l80,117.6l-3.2,27c6.7-18,11.9-36.7,15.9-55.6h0.2C834.1,475.6,836,434.4,831.2,394L831.2,394z
		"/>
	<path class="st1" d="M397.6,344l8.5,2.7l2.5-2.3l0.3-4l-8.3-3.9l0.3-9.9l5.7,2.3l-0.5-18.8l-17.8-8.8l-9.6,1.1l-5.6,6.9l-8.5-3.3
		l-10.6,6.3c-16.4,5.1-53.7-13.4-68.3-19.6l3,9.4c7.3,6,32.3,18.5,41,22.8l4.6-0.9c8.1,6.8,20.6,12.8,31.7,11.1
		c6.3,5.4,19.8,11.1,28.1,11.3L397.6,344z"/>
	<path class="st2" d="M98.8,312.9c12.7-5.6,37.9-19,51.5-21.3l2.8,4.1l8.1-1.5l0.2-6.2l6.7-2l7.4,2.8l2.5-7.5
		c32.5,7.9,31.8-14,76.9,0.3v0.3c7.3,0.8,17.6,3.9,24.4,6.9c17.1,32.8,75.5,48.6,108.4,60.6l3.3-1.7c7.5,4.8,23.1,8.9,32,8.4
		c12.6,12.7,58.1,27.2,74.9,32.7c22.7-8.2,53.6-6.7,75-18.6l5,2.9c4.2,0.1,11.6-1.9,15.1-4.2c1.6,2.2,6.3,3.3,8.7,3.5
		c21.8-11.2,48.9-31.9,66.5-48.7c16.3-19.3,40-50.2,63.4-61.2c14.7-4.5,36.3-9.5,48.1-19.9c-2.7-4.6-5.7-9.3-8.7-13.8
		c-5.5,10.5-20.4,14.2-31.3,13.7l-29.2,13.2l-3.1-3.5v-5.8c7.9-11.7,31-21.5,44.3-24.3l3.8,0.9l3.4,4.5l0.9-5.2l5.5-2.1
		c-4.1-5.8-8.3-11.5-12.8-17.1l-47.3,4.6l-16.3,12.4c6.8,0.6,22.2,1.6,27.9-3.3l5.1,3.9c-18.6,6.2-58.5,58.5-78.1,62.4l-6-0.4
		c-15.2,21.6-46.5,52.4-70.3,64.2C537,354,495.6,361,467,345.3c-2-3.4-5.8-10.7-4.5-14.8c-24.3-32.6-72.7-43.5-109.5-55.6l-4.8-6.2
		c-43.6-17.7-97-24.2-143.3-20.8l-6.1-4.4l-30.7,3.9c-9.4-3.1-21.2,2.3-27.1,9.9l-2.6-2.5l-12.7,8.7c-2.8-0.2-8.7-1-11.3-1.9
		c-9.6,18.2-17.7,37.1-24.2,56.6C91.9,316.9,96.7,314.1,98.8,312.9z M628.9,313.1c-0.4-4.5,5.1-10.8,8-13.6
		c3.1-0.5,9.8-1.5,12.9-2.1l1.9-5.5l2.9-1.7l4.6,1.3l-13.7,28l-5.5,2.4C637.1,320.6,631.2,315.3,628.9,313.1z M379.7,343.5
		l-13.4-8.6c-11.1,1.8-23.7-4.2-31.7-11.1l-4.7,0.9c-8.8-4.4-33.6-16.8-41-22.8l-2.9-9.4c14.9,6.4,51.5,24.8,68.2,19.6l10.6-6.3
		l8.5,3.3l5.6-6.8l9.6-1.2l17.8,8.8l0.4,18.8l-5.7-2.3l-0.3,9.9l8.3,3.9l-0.3,4l-2.4,2.3l-8.5-2.7l-3.3,2.2L379.7,343.5z M301,277.4
		l1.2-2c5,1.4,15.4,4.4,20.2,6.2l-0.5,1.7C317.1,282.4,305.1,280.1,301,277.4z M609.5,357l-5.1,5.8l-13.7-2.5l-0.3-5.8
		c3.9-0.8,12.7-2.3,16.6-1.4L609.5,357z M613.7,352.7l-13.6-6.7l3.2-5.7l9.3-3.9c2,2,7.1,7.2,8.6,9.5L613.7,352.7z M619.5,328.3
		l8.4,0.3l3.6,4.8v8.5l-8.1-0.9l-5.3-5.7L619.5,328.3z M330,266.2l13.4,5.8l2.1,3.8c-8.1,3.6-18.1-8.4-24.7-11.8L330,266.2z
		 M329.3,273l2.6,4.2l4.3,0.3l1.4,1c-14.9,4.8-31.6-5.3-44.5-11.7l-6.3,0.3l-5.1-4.7l1.8-3.9C301.2,260.9,315.3,258.8,329.3,273z"/>
	<g>
		<polygon class="st3" points="357.4,395 361.8,394.6 361.8,394.6 		"/>
		<path class="st3" d="M358.7,375.3h0.3C359,375.2,358.8,375.2,358.7,375.3z M238.2,166.1l-35.6,37
			C213.4,193.8,225.4,180.6,238.2,166.1z"/>
		<path class="st4" d="M531.2,491.5c5.2,27.5,10.2,66.3,14.2,94.1c84.5,4.8,177.5,19.2,260.5-3c0.1-0.3,0.2-0.6,0.3-0.9
			c-22.4,7.5-55,11-78.3,10.1c-40.5,2.4-86.2,0.6-126.6-3.4c-2.7-19.7-10.1-74.2-12.6-93.1l9-1.9l-8.1-63.2l21.1-8.1l-1.2-15.2
			l-2.8-0.3l0.4-15.5h2.9c0-0.8,2.1-14.3,1.9-15c-39.7,15.8-91.9,26-134.1,17.1c-3.1,7.8-13.7,14-19.7,19.6l0.8,22.6
			c-3.1,1.6-6.9,7.2-8.3,10.3l-2.3,0.4l-1.4,5.2l-3.8-0.5l-1.5-11.1l-9.9,1.3l-2.1-15.1l-6.3,1l-0.4-3.3l-6.2,1l-0.3-1l-2.8,0.4v0.9
			l-2.6,0.3l0.5,3.3l-4.5,0.7v0.5l-8.1,1.2v-0.7c-1.5,0.1-4.4,0.5-5.8,0.7v-1.3l-1.2-0.9l-2,0.2l-0.2-2.2l-1.1-0.9l-1.8,0.4
			l-0.3-2.1l-1-1l-3,0.3l-0.4-5.1l-3.6,0.2l-0.6-2l-9.8,1.3l-0.5-4l-3.4-2l-2.4-17.1h-0.1l2.3,17.2l-5.1,0.6l-1.5-12l-2,0.3l0.2,2.3
			l-6.1,0.8c0-0.8-2.2-18.1-2.4-19.5l-0.3-0.3l-0.6-6.8c0.3,0.1,8.6-1.3,11.8-1.8l-12.3,1.7l0.5,6.6h-2.8l0.2,1.5l-5.3,0.6V378
			l-4.4,0.6l-0.2-5.2l5.2-0.5V372l4.3-0.6l-0.2,2.4c0.8-0.1,2.8-0.2,3.6-0.2l-0.3-2.8l3.1-0.4l0.2,0.9l8.8-1.2v-0.9l2.9-0.3l0.3,2.4
			h0.9l0.4,3.4l-2.8,0.3l0.3,1.7l3.4-0.4l1,8.1l-4.6,0.4l-0.3-2.1l0.2,2.1c2.5-0.2,7.4-0.7,9.9-0.9l-1.5-15.7l-3-0.3l60.5-90.5
			c20.6,8.2,35.3,31.2,59.3,34.7l72.6-37.5l-2.9-21.1c49.3-24.2-0.8-73-13.7-103c-20.4,9.4-49.8,19.8-70.3,29l23.5-36.3l-0.2-26.7
			l-2.8-3.4c-14.9,16.7-19.3,42.9-22.9,64.6l-4.5,0.3l-0.3,2.7l3.8,1.1l0.4,6.3c-12.7,8.8-12.3,26.8-12.7,40.7l-5.9,6.1
			c-67.2-2.5-79.7,4.2-134.2-38.9c-5.7-9.6-19.7-26.6-29.8-31.6l16.8-17.5l18.8,45.5l10.8,5.1l6.5,12.1c8-6.2,34.5,0.3,43.3,1.7
			L381,194l-25.4-5.6c-9.8-19.8-7.1-94.9-7.1-117.1c-37.1,9.9-76.5,56.8-110.2,94.8l11.5-12l17.9,15.6c11.5-2.3,24,9.6,31.1,17.1
			l2,7.3c-3.1,3.1-11.7,5.2-15.9,5.8c-3.5,2.6-11,6.4-15.5,5.6l-0.2,4l2.3,3.7c-5.6,22.8-13.9,57.1-19,79.9
			c-34.8,52-41.6,55.4-23.3,116.8c-4.1,2.5-21.5,11.8-24,15.9c-10.4-1.5-63.4,7.1-69.7-4.9l2-8.2l6.9-5.3l-2.8-1.5l-16,15.1
			c13.9,12.6,45.2,10.3,62.3,9.3c2.3,21.5-5,58.3,4.8,77.9l20.9,1.1l3.2-3.3l11.2,31.7c2.6-0.3,36.2-4.3,37.9-4.5
			c0.1-3.2-2.3-32.6,0.4-34.6l25.4,25.4l-1.3,0.9l2,3.3c-5.6,5.4-18.6,17.7-19.2,26l-1.6,4.3l-1,2.9l-8.6-12.9l-3.5,11.5l-9.4-3.3
			l-0.3-15.9l-26.1,2.3l-0.3,5.7l-7.5,4.6c0,4.7,1.9,13,5.2,16.6l-3.1,23.9l47.8-6.3c-0.8,7.6-4.2,39.9-4.5,46.9
			c8.2,11.2,20.7,38.6,36.2,40.8l4.5,6c-3.4,3.2-11.6,19-18.1,15.1c-5.3,9.4-18.7,14.8-27.5,20.4c-10.8,8.1-26.2,15.5-37.7,22.4
			l6.9,5.3c52.6-32.2,112.4-65.3,173.2-78.6c13.8,26.1,16.6,77.8,22.5,106.1l-102,20.8v2.9l2.4,0.9
			c114.4-24.3,247.2-56.1,364.6-55.9l5.4-4.3c-87.1-2.3-180,15.1-264.5,34.5l-7.7-38.9l15.4-3.6l-3.3-2.2l5.8-1.2l-0.6-0.3
			l-18.2,4.1c-1.5-10.5-5.5-38.4-6.3-48.6l4.8-5.1c-4.7-2.7-10.8-7.5-11.3-13.4c11-12.6,24.2-32.1,35-45.2
			c36.5-25.8,85.1-22.6,127.4-17.1c33.7,4,105,5.4,139.4,3.4c26,0.2,67.8,4.8,92.5-4.9c2.4-5.2,4.6-10.4,6.8-15.6
			c-82.9,22.2-176,7.7-260.4,3c-4.1-27.9-9-66.5-14.2-94.1l-42.1,11.9l0,0L531.2,491.5z M286.8,435c-3.8,0.2-16.6,3.3-20.3,1.9
			c-7.4-7.7-4.2-26.3-9.2-35.2l1.2-2.4l-8.2-3.9c-4,3.3-10.8,7-16,4.5c-6.4-6.6-5.3-17.7-6.1-26.1c-2-12.3-0.3-29.5,8.2-39.2
			c24.4-19.1,25.4-57.7,34.2-85c1.9-9.6,4.2-30.6,11.8-37.8c35.6-31.4,52.8,35,140.8,33.3l-2.4,30.4l2,0.7
			c-0.4,0.6-62,90.6-62.3,91.2c-9-3-23.5,3-31.4,7l-2.3,4.1l17,12.1c-1.9,7.2-10.2,16-17.2,18.7l-23.5,24.2L286.8,435z M325.8,512.8
			c-1.8,0.2-5.7,1.7-7.3,0.4v-0.5c7-3.2,15-3.8,22.6-2.7l0.3,0.2v1.9C337.5,512.3,329.5,511.8,325.8,512.8z M341.2,670.4l-4.5-0.8
			l0.1-0.6C338.3,669.5,339.8,670,341.2,670.4l8,1.5C347.5,672,344.7,671.4,341.2,670.4z M350.2,508.9c-1.5,2.5-4.3,3.6-7.1,3.1
			c0-0.6-0.2-1.9,0.4-2.2c0.7,0,2.4-0.1,3.1-0.2c1-0.1,2.5-0.5,3.3-1.2l0.3,0.2L350.2,508.9L350.2,508.9z M369.6,510.2l-0.5,0.5
			l-13.4,0.6c-0.5-0.7-0.8-2-0.7-2.7C356.2,502.4,370.8,503.3,369.6,510.2z M513.3,538.1l-8.9-5.7l-9.1,1.2l-0.5-5.6l14.8-1l4,3.1
			l1,3.7L513.3,538.1z M515.3,499.2l2.8-0.4l-0.2-1.4l4.5-0.6l4.1,30.6l-4.8,0.6l-0.7-5.1l-3.3,0.4l1.4,9.9l-4,0.6l-4.3-32.2
			l4.8-0.7L515.3,499.2z M508.4,520.1l3.2-0.4l0.9,6.2l-9.7,1.3l-0.6-4.5l6.5-0.9L508.4,520.1z M499.2,506.3l1.4,10.4l-7.9,1
			l-1.4-10.4L499.2,506.3z M391.9,457.8l-2.6-19l0.9-1.3c2.4-0.5,8.1-1.5,10.5-1.6l0.4,2.8c0.5,0.8,6.9-0.4,7.7-0.4l1.3,1.9l5.8-0.9
			l0.9-1.7l4.6-0.9l0.8,0.6l1.9,15.2l-0.9,1.4L391.9,457.8z M485.9,503.1l-15.5,40.7l-23.2,3.4l-5.6-38.6c-4,0.7-15.9,2.6-19.2,5.1
			l-1.5-6.8c31.1-7.5,68.2-11.3,99.1-20c0.7,1.7,2.1,5,2.8,6.7L485.9,503.1z"/>
	</g>
	<path class="st1" d="M798.9,598.3c-14.6,31.8-33.8,61.5-56.4,88.2h-0.1c-6.6,8.3-17.3,18.6-25.4,25.7h1.4
		c-8.8,8.5-18.1,16.9-27.8,24.4c-87.1-2.3-180,15.2-264.5,34.6c-5.5-26.1-12.8-64-14.8-90.5l4.8-5.1c-4.7-2.7-10.8-7.5-11.3-13.4
		c11-12.6,24.3-32.1,35-45.3c36.5-25.8,85.1-22.6,127.4-17.1c54.2,6.7,132,2.3,186.3,4.6l4.3,8.1l-4.3-8.1
		C765.4,604.9,787.6,603,798.9,598.3z"/>
	<path class="st5" d="M135.5,420.9l2-8.1L135.5,420.9z M138.9,424.4l9.1,3.1L138.9,424.4z M222.5,387.2l6.7,22.7L222.5,387.2z"/>
	<path class="st1" d="M300.8,681.7L288.7,697l-5.7-0.3c-5.5,9.5-18.6,14.7-27.5,20.4c-10.8,8.1-26.2,15.5-37.8,22.4l-3.2-2.5h-0.1
		C101.5,648.7,47.7,495.4,79.7,355.9l0,0c2.7-12.5,6.4-25.9,10.5-37.9c15.9-9.1,42-22.7,60.1-25.6l3,3.3l8.1-1.4l0.2-6.3l6.7-2
		l7.5,3.8l2.4-8.5c31.5,7.9,34.5-14.5,76.9,0.6c-23,64.2-51.6,44.1-25.8,128.1l-19.4,11.3c2.8-11.7-0.6-31.8-6.9-42l-15.6-0.4
		c-9.4,7.3-35.6,27.5-44.6,34.5l-1.3,7l6.2,3.5l0.4,3.6c-3.2-1-10.8-3.3-12.5-6.5l2-8.1l6.9-5.3l-2.8-1.5c-0.5,0.5-15,14.2-16,15.1
		c13.9,12.6,45.2,10.3,62.3,9.3c2.3,21.5-5,58.3,4.8,77.9l20.9,1.1l3.2-3.3l11.2,31.7c2.6-0.3,36.2-4.3,37.9-4.5
		c0.1-3.2-2.3-32.6,0.4-34.6l25.4,25.4l-1.3,0.9l2,3.3c-5.6,5.4-18.6,17.7-19.2,26l-1.6,4.3l-1,2.9l-8.6-12.9l-3.5,11.5l-9.3-3.3
		L249,541l-26.1,2.4l-0.3,5.7l-7.5,4.6c0,4.7,1.9,13,5.2,16.6l-3.1,23.9l47.8-6.3c-0.8,7.6-4.2,39.9-4.5,46.9
		c8.2,11.2,20.6,38.5,36.1,40.7L300.8,681.7z"/>
	<path class="st6" d="M518.9,506.8l-2.9,0.4l0.7,4.8l2.9-0.4L518.9,506.8z"/>
	<path class="st6" d="M494.9,395.5l6.1,0.2l-8.5-0.8L494.9,395.5z"/>
	<path class="st6" d="M168,286.1l7.5,3.7l2.5-8.4l-2.5,7.5L168,286.1z"/>
	<path class="st7" d="M506.1,443.5l-7,0.9l1.2,9.4l7-0.9L506.1,443.5z"/>
	<path class="st8" d="M214.7,736.6l-0.7,0.3L214.7,736.6z"/>
	<path class="st8" d="M217.8,733.1l-3.1,3.5L217.8,733.1z"/>
	<path class="st3" d="M385.1,66.3c-0.3-0.2-7.6-1.5-7.9-1.8c-6.8,1.4-13.6,2.9-20.2,4.5l28.7,0.3L385.1,66.3z"/>
	<path class="st7" d="M360.3,367.4l5.1,0.6L360.3,367.4z"/>
	<path class="st3" d="M376,449.5l-0.3,1.2l-6.1,0.9c-0.9,1.6-2.9,4.7-3.9,6.3v0.9c0.3,0.4,1.6,0.8,2.1,0.9v0.6l-0.8,1.1
		c-7.3,1.2-15.8,3.8-23.2,2.5l-0.2-1.8l-3,0.3h3l0.3,2.9l6.9-0.8c0.2,5.5-4.4,10.5-2.7,16.1h0.4l1.1,8.1L347,489v0.9
		c1.9-0.2,5.7-0.6,7.5-0.9c-0.2,7.3,1.9,12.8-5.1,17.8c-9.1,5.3-21.3-2-33.2,5.5c-1.7-6.8,0.4-17.7,9.3-17l-0.3-2.4l15.3-2.1
		l-0.3-2.6l-14.7,1.5v1c-1.4,0.1-2.9,0.5-4,1.4c0.1-0.7,1.1-7.1,1.5-7.5c1.2-0.6,2.8-0.2,3.5,0.9l7-0.9l-0.3-2.5l-8.9,0.9l-0.6-0.3
		l-0.2-0.4c0.2-0.6,1.2-5.7,1.6-6c1.6-0.1,5.6-0.2,7.2-0.6l-0.2-1.9c-0.2,0-6.8,0.7-6.9,0.6l-0.3-0.5l1.3-5.4
		c-7.1-2.1-4.8,13.5-6,16.7c-5.6,6.2-6.6,23.4-6.6,31.2c-4.8,2.6-11.5,3.8-16.9,4.4l-28.8-27.1h-0.2c0.6-3.1,4.2-8.5,6.3-10.9
		l-0.3-1.8c-2.6-2.9-5.4-6.2-9.9-4.8l-2.7-29.9c1-5.4,37.5-7.8,43.6-8c2.5-1.8,5.8-3.6,8.9-3.8c5.6,4.6,11.8,13,18.7,16.6
		c2.2-0.2,11.2-0.9,13.1-1.8l1.2-4c0.3,0,5.9-0.8,6-0.7c1.6,4,2.3,10.8,1.2,15c-3.5,0.1-9.6,0.9-13.1,1.3v0.2
		c3.5-0.4,10.7-1.1,14.2-1.5c0.8-5.1,0.1-10.9-1.4-15.8l1.5-0.2c1.9-1.6,1.9-4.3,1.4-6.5c0.6-0.1,1.9-0.2,2.5-0.2
		c-0.1,0.2,0.3,2.7,0.3,3l2.1-0.3l0.2,0.9h0.9c1.3,2.2,4.2,5.2,6.3,6.6l6.2-0.8l0.8,1L376,449.5z"/>
	<path class="st3" d="M380.4,813.6l-0.8-0.2L380.4,813.6z"/>
	<path class="st3" d="M389,815.2c-0.1,0-1.6-0.3-1.6-0.3L389,815.2z"/>
	<path class="st3" d="M507.9,816.3c-9.9,1.5-19.7,2.5-29.7,3.2L507.9,816.3z"/>
	<path class="st7" d="M135.5,420.9l2-8.1L135.5,420.9z M138.9,424.4l9.1,3.1L138.9,424.4z M222.5,387.2l6.7,22.7L222.5,387.2z"/>
	<path class="st3" d="M523,813.8c-2.5,0.4-8.4,1.4-10.9,1.9L523,813.8z"/>
	<path class="st9" d="M733.4,426.3l-1,3.8c-20.4,10.2-62.9,38.5-84.7,43.7l-7-19.2l5.3-1.1c-2.5-7.1-5.1-23-5.9-30.5
		c-15.2-6.7-36.5,1.5-50.7,7.5l8.1,63.2l-9.1,1.9c2.6,18.6,10,73.6,12.6,93.1c40.4,4,86.1,5.8,126.6,3.4c23.2,0.9,56-2.7,78.3-10.2
		c4.7-7.2,6.5-29.6,7.5-38L733.4,426.3z M668,512.2l3.9,23l-41.6,7.2l-3.9-22.9L668,512.2z M596.2,446.7
		c0.5-19.3,27.7-26.1,35.5-7.5c1.7,2.2,4.3,30.6,4.9,33.9c2.4,9.9-0.7,20.9-10.6,25.2C595.1,508,599.5,465.2,596.2,446.7z
		 M602.4,581.5l-9.1-57.3l30.5-4.8l9,57.3L602.4,581.5z M638.5,571.2l-4.7-27.3l41.3-7.3l4.8,27.3L638.5,571.2z M681.3,470.9
		c3.9-2.5,45.8-29.8,50.9-33.1l23.8,32.4l-52.6,34.7L681.3,470.9z M709.1,507l48.2-31.2l19.7,31l-48.8,31L709.1,507z M753.7,578.4
		l-19.4-30.5l49.2-31.4l19.8,30.2L753.7,578.4z"/>
	<path class="st9" d="M611.4,493.8c13.7,6.6,25.3-6.7,21.2-20.2c-1.3-6.2-2-32-6.9-36.5c-5.9-7.4-17.6-6.3-22.6,1.5
		c-5.6,5.2,0.2,28.9,0.3,35.3C603.9,480.8,604.2,490.1,611.4,493.8z M606.5,486.2l-4.8-39.8l25.6-3.2l4.9,39.9L606.5,486.2z"/>
	<path class="st9" d="M348,158.3l7.3,30.2l25.5,5.6c0.4,9.4,0.5,28.9,0.4,38.3l67.8,2.5l5.9-6c0.3-13.8-0.1-31.7,12.6-40.7l-0.4-6.3
		l-3.7-1.1l0.3-2.7l4.5-0.3c2.8-20.4,8.4-43.2,19.2-60.8l-20.4-4.3l-1.5-12.1c-18.8-1.9-58.1-2.8-76.5,1.3l-3.3-32.6
		c-6.8,0-31.7-1.4-37.6,2.1L348,158.3z M353.7,75.1l27-0.2l0.3,40.8l-27,0.2L353.7,75.1z M354,118.1h27l0.3,40.7l-27,0.2L354,118.1z
		 M385.2,231.2l-1-62.6l39.3-0.7l1,62.7L385.2,231.2z M449.9,228.2l-6.7-4.4c-4.5,3.4-11.9,1.7-14.7-3.1l-0.3-10.6l4.9-0.3l1.8-3.2
		l12.5,9.5l-1.5,4.5l5.9,6.3L449.9,228.2z M459.7,106.4l0.9,52.1l-32.9,0.8l-0.2-52.2L459.7,106.4z M419,148.1l3.4,2.4l1.3,11.2
		l37.1-1.3l1.7-2.5l-0.5-41.4l14.3,2.8c0.1,6.4,0.6,23.2-2.8,28.8l-4.1-0.2l0.7,12c-1.5,1.3-6.1,6.1-8.2,6.1
		c-0.6,5.1-0.5,15.3,2.1,19.8l-7.5,8.1l-4.5,21.5c-5.8-5.4-18.5-14.6-25.9-17.4l-0.5-33.5l-41.6-1.4l0.2-11.7l2.8-3.5L419,148.1z"/>
	<g>
		<path class="st3" d="M496.7,110.9c-0.3,1.7-1.6,4.5-2.7,5.8l-2.8-3.4c-1.2,1.2-3.3,3.3-3.7,3.8l-20.4-4.3l-1.6-12.1
			c-18.7-1.9-58.2-2.8-76.5,1.3c-0.2-1.3-3.3-36-3.9-35.7c-0.3-0.2-7.6-1.5-7.9-1.8c31.8-6.3,64.3-8.6,96.7-6.8l2.9,0.2
			C480,65.9,495.9,102.9,496.7,110.9z"/>
	</g>
	<path class="st3" d="M630.9,385.3v3.4h-2.1v0.6h-2.2v-0.5h-2.4v-3.4L630.9,385.3z M615.3,381.8h2.1v-1.1h3.8v3.6h-0.4v2.1H618v0.9
		h2.3v0.8h2.9v2.3h0.3v3.4h-3.3v-0.4h-2.6V391H617v-3.8h-2.5v-3.9h0.6L615.3,381.8z M627.6,414l-10.6,0.3v0.6h-4.5v-4.5h0.6v-9.5
		h0.3v-7.6h3.4v9.2h-0.6v8.1h0.8v0.4l10.7-0.3l-0.2-6.8h3.3l0.2,6.9h0.2v3.1h-3.8L627.6,414z M643.4,416.5h-5v0.5h-2.3v-1h-0.9v-3.3
		h1.2v-0.9h2.5v0.9h4.6v0.5h1.3v2.8h-1.3L643.4,416.5z M642,410.8l-0.3-11.6h0.3v-0.9h-0.9v0.3h-2.7v-0.3h-5.5v0.7h-3v-0.4h-2.4
		l-1.1-1.9v-1.5H626v-2.6h3.3v2.6H629v0.5c1.8,0,7.4-0.1,9.3-0.2v-0.2h2.7v0.7h2l0.6-0.6l1.5,1.5l-0.5,0.5v1.7h0.5l0.3,11.6
		L642,410.8z M673.2,349.7l0.9,0.3l0.4-1.3l2.4,0.8l-0.4,1.3l2.8,0.9l-0.9,3l-2.8-0.9l-0.7,2.1l-3.3-1L673.2,349.7z M647.7,413.9
		v-3.3l7.5-0.2v-0.5l9-0.2v0.5l7.4-0.2v3.3l-9,0.3v-0.5H657v0.5L647.7,413.9z M685.2,423.9h-4.1l0.6,23h-1.6v1.1l-10.5,0.3l-1.8-1.2
		v-2.2h-0.7l-0.6-20.1l-12.6,0.3l0.6,21.5h3l0.2,3.3l-4.9,0.2l-1.3-1.1v-2.7h-0.3l-0.6-19.9h0.4v-2.5l1.5-2.5l15.7-0.4l1.4,1.1
		l0.7,23.3l9-0.3l-0.7-22.9l1.5-1.7h5.2L685.2,423.9L685.2,423.9z M688,393h-0.8l-0.4-18.4h-0.5v-3.9h-1.1v0.4l-5.6,0.2v-0.4h-1.3
		v1.3h0.8v2.1h-0.7l0.3,17.8h-0.8v2.7l0.6,0.7l-1.7,1.6l-0.3-0.3h-2v0.4h-2.4v-3h2.3v0.3h0.4v-3.8h0.3l-0.4-17.3h1.3v-2.8l-0.7-0.9
		l1.6-1.3h2.5v-0.3l5.6-0.2v0.3h2.5l1.9,1.2v3.6h0.6l0.4,17.3h0.6v2.7h-0.7v0.9h0.8v-0.4h2.3v3.6h-2.3v-0.5h-1.6l-1.5-1.5L688,393
		L688,393z M688.5,404.8l1.6-1.7l16.2-0.8l1.6,1.5l0.6,12.7h-3l-0.6-11.3l-13.7,0.6v1.1h0.5v2.4l-3.2,0.2L688.5,404.8z M714.7,430.2
		l-3.9,0.2v0.7l-12.6,0.6V431l-2.2,0.2l-1.3-1.1l0.3-0.3l-0.3-6.4l-4.1,0.2v-3.2l4.8-0.2l1.4,1.1l0.3,6.7l15.3-0.8l-0.6-11.1
		l3.3-0.2l0.6,12.5L714.7,430.2z"/>
	<path class="st3" d="M724,419.1l-4.4,13.4l-28.8,8.2c-2,3-7,9.9-10.4,11.4l-31.8,2.7l-2.6-1.4c-2.5-7.1-5.1-23-5.9-30.5
		c-7.3-3.4-21.9-2.6-29.5-0.6c-2-13.8-0.9-32.2,1.2-45.9l10.9-2.1c3.6,0.8,9,4.4,11.1,7.5l1.2,6.8c4-0.2,10.5,2,13.6,4.4l2.1,3.9
		l-1.1,5.9l16-2.1c-0.6-4.9,2.2-13.9,4.4-18.3l-7.9-30.9l14.1-5.6c8.6,12.7,38.3,58.8,49.2,68.4C725,415.3,724.2,418.2,724,419.1z"
		/>
	<path class="st3" d="M554.8,804.9c-0.1-0.7-0.7-1.7-1.3-2.1c-0.6-0.2-1.8-0.2-2.4,0c-0.6,0.4-1.1,1.4-1.2,2.1l0.3,1.2"/>
	<path class="st3" d="M317.8,760.5l42-5.4l-5.8-19.4l8-8.1c5.4-0.9,23.5-4.3,29.2-5.4l-18.1-48.9c-25.7,6.1-58.4,21.9-82.4,32.6
		L317.8,760.5z M318.6,738.7l4-2.1l1,1.8l-4,2.2L318.6,738.7z M325.2,709.9l0.6-0.3c0,0-0.8,0.2-0.9,0.3l-0.8-2.3l0.8-0.3v-0.4h-0.4
		l-0.9-2.7l4.3-1.4l0.9,3l-0.8,0.3l0.3,1l0.5-0.2l0.3,0.9l-0.5,0.2l0.3,1.2l0.6-0.2l0.7,2.2l-2.1,0.7l0.7,2.1l-0.5,0.2l0.4,1.2
		l0.9-0.3l-0.2-0.5l2.2-0.8l-0.6-1.6c3-1,10.4-3.3,13.5-4.3l1.3,3.9l-12.3,3.9l0.4,1.3l-3.7,1.2l-0.3-1l-1.1,0.3l0.2,0.5l-1.4,0.5
		l-0.2-0.6H327l-0.2-0.6l-0.9,0.3l-0.5-1.5l0.8-0.3l-0.3-0.9l-0.6,0.2l-1.1-3.3l1.4-0.4L325.2,709.9z M343.2,754.3l-0.3-1l-0.8,0.3
		l0.3,0.8l-1.6,0.4l-0.2-0.7l-0.9,0.3l0.2,0.6l-2.1,0.7l-0.3-0.8l-1.2,0.3l0.2,0.5l-1.5,0.4l-0.2-0.7h-0.3l-0.3-0.7l-0.6,0.2l-0.3-1
		l0.8-0.3l-0.4-1.4l-0.5,0.2l-0.3-1l-1.1,0.3l-0.3-0.8l0.8-0.2l-0.6-1.9l-0.5,0.2l-0.2-0.5h0.5l-0.7-2.1h-0.3l-0.2-0.4l0.9-0.3
		l-0.7-2.1l-0.7,0.3l-0.4-1.3l0.9-0.3l-0.4-1.5l-0.5,0.2l-0.6-1.8l3.2-0.9l0.6,1.8l-0.7,0.2l0.4,1.6l0.6-0.2l0.4,1.3l-0.9,0.3
		l0.4,1.4l0.7-0.3l0.4,1.3l-0.6,0.3l0.3,1.1l0.7-0.3l0.4,1.6l-0.6,0.2l0.3,0.8l0.6-0.2l0.3,1l0.8-0.3l0.4,1.4l-0.7,0.3l0.3,1.2
		l0.5-0.2l-0.3-0.9l2.8-0.9l0.3,1l0.3-0.2l-0.2-0.7l2.1-0.7l0.2,0.8h0.3l-0.3-0.9l3.9-1.2l1.3,3.9L343.2,754.3z M350.5,749.5
		l-1.2-1.3l0.5-0.5l-0.9-1l-0.5,0.5l-0.5-0.5l0.5-0.5l-0.9-1l-0.8,0.8l-1.1-1.1l-0.9,0.8l-0.9-0.9l0.7-0.7l-1.3-1.3l-0.7,0.6
		l-0.2-0.2l0.4-0.4L341,741l-0.8,0.8l-0.4-0.4l0.8-0.7l-1.4-1.4l-0.7,0.6l-2.6-2.7l3.3-3.3l2.3,2.5l-0.5,0.5l1.1,1.2l0.4-0.5
		l1.3,1.4l-0.7,0.6l1,1l0.5-0.5l0.7,0.7l-0.5,0.5l0.7,0.7l0.5-0.4l0.7,0.7l0.9-0.9l1.6,1.6l-0.6,0.6l0.5,0.6l0.9-0.8l1.1,1.1
		l-0.5,0.6l0.3,0.3l0.5-0.4l1.8,1.8L350.5,749.5z M352.3,727.4l-0.2-0.9l-2.1,0.4l0.2,0.7h-0.5V727l-2.1,0.5l0.2,1l-3.7,0.8
		l-0.2-0.9l-1.8,0.4l0.2,0.7h-0.5l-0.2-0.8L340,729v0.5l-1.6,0.3l0.2,0.8l-3.2,0.8l-0.3-1.3l-0.9,0.2l0.2,0.9l-0.9,0.3v-0.4h-0.4
		l-0.7-3h0.3v-0.5l1.3-0.3l0.2,0.5l0.7-0.2l-0.2-0.8l3.4-0.8l0.2,0.8l1.6-0.3v0.6l0.7-0.2v-0.5l1.5-0.3l0.2,0.8l1-0.2l-0.2-0.8
		l4.7-1l0.2,0.9l1.3-0.3l-0.3-0.9l1-0.2v0.6l1-0.3l-0.2-0.8l3.2-0.7l0.7,3.3L352.3,727.4z M381.7,714.5h-0.9v0.5h0.7v2.2h-0.6v0.3
		h0.6l-0.2,2.8h-0.9v0.7h0.5v1.5h-0.8v0.5h-0.7v0.6h-1.5v-0.7h-0.8l-0.3,0.8l-2.4-0.2v-1h-1.2v0.7h-1.5v-0.9h-0.5v0.7h-0.8l-0.2,2.5
		l-2.7-0.2v-0.9h-0.2v0.6l-2.6-0.2v-0.6h-0.3v0.4l-3.6-0.3l0.3-4.7l3.8,0.3v0.9h0.3v-0.6l2.1,0.2v0.9h0.6v-0.5h0.7v-1.7l2.3,0.2v0.8
		h0.3v-0.6l2,0.2v0.8h1.2V720l2.6,0.2v0.4h0.6V720h-0.7l0.2-2h0.7v-1.5h-0.9v-1.7h0.8v-1.1h-0.5l0.2-2.3l4.2,0.3L381.7,714.5z
		 M361.7,713.3l2-1.1l0.3,0.7l0.9-0.5l-0.3-0.8l1.1-0.6l0.4,0.8l1.3-0.7l-0.3-0.8l2.3-1.3l0.3,0.5l0.9-0.4l-0.3-0.6l2.1-1.1l0.2,0.3
		l3-1.5l1.9,3.6l-3.2,1.7l0.3,0.5l-2.2,1.2l-0.4-0.8l-0.8,0.4l0.3,0.7l-2.3,1.2l-0.5-0.9l-1,0.6l0.3,0.6l-1.3,0.7l-0.3-0.7l-0.4,0.2
		l0.4,0.8l-2.5,1.4l-0.3-0.5l-0.5,0.3l-1.5-2.9l0.6-0.3L361.7,713.3z M373.9,688.2l3.3,1.5l-0.8,1.7l-3.4-1.6L373.9,688.2z
		 M369.4,699.4l2.4-0.9l0.3,0.6l1.1-0.4l-0.3-0.9l-0.9,0.3l-1.2-2.8l3.5-1.5l1.3,3.1L375,697l0.5,1.2l0.3-0.2l0.4,1l-0.5,0.3
		l0.3,0.7l-0.9,0.3l0.3,0.5l-0.9,0.4l-0.4-0.9l-1.4,0.6l0.3,0.7l-1.8,0.8l1.1,2.7L370,706l-0.4-1l-1.7,0.8l0.4,0.9l-0.6,0.3
		l-0.3-0.8l-0.9,0.4l0.3,0.8l-2.6,1l-0.3-0.6l-2.1,0.9l-0.2-0.5l-0.9,0.4l0.3,0.8l-0.8,0.3l-0.3-0.7l-0.6,0.3l0.3,0.8l-2.9,1.2
		l-0.3-0.6l-0.5,0.3l-1.2-2.9l0.4-0.2l-0.2-0.4l2.9-1.3l0.3,0.8l0.7-0.3l-0.3-0.6l0.9-0.4l0.4,0.9l0.4-0.3l-0.3-0.7l2.7-1.2l0.3,0.7
		l2-0.9l0.2,0.6l1.2-0.5l-0.3-0.6l0.9-0.3l0.3,0.5l1.2-0.5l-0.3-0.5l1.9-0.8l-0.9-2l0.3-0.2V699.4z M354.9,700.3l0.4,0.4l1.4-1.2
		l-0.6-0.5l0.8-0.7l0.5,0.6l1.1-0.9l-0.5-0.6l3.1-2.7l0.3,0.4l1.4-1.3l-0.5-0.7l1-0.9l0.5,0.5l0.6-0.6l-0.3-0.4l2.1-1.8l3.1,3.4
		l-2.2,2l-0.8-0.9l-0.8,0.7l0.4,0.5l-1,0.9l-0.7-0.9l-1.4,1.2l0.6,0.8l-2.9,2.6l-0.8-0.9l-1,0.9l0.5,0.6l-0.7,0.7l-0.5-0.6l-1.4,1.2
		l0.4,0.4l-1.5,1.4l-2.1-2.5L354.9,700.3z M352.8,712.2l0.6,2.1l1-0.3l1.1,3.9l-1,0.3l0.6,2.1l-4,1.1l-2.3-8L352.8,712.2z
		 M334.6,696.1l0.7-0.3l-0.2-0.4l1.4-0.5l0.2,0.6l1.2-0.4l-0.2-0.8l4.3-1.4l0.3,0.5l0.9-0.3l-0.3-0.7l0.9-0.3l0.3,0.3l0.6-0.3
		l0.2,0.6l0.9-0.3l0.5,1.7l-0.9,0.3l0.3,1.1l1.3-0.4l1.5,4.5l-0.6,0.2l0.2,0.5l0.8-0.3l0.6,1.6l-0.9,0.3l0.3,0.9l0.7-0.3l0.9,2.5
		l-3.1,1l-0.3-0.8l-0.4,0.2l-0.6-1.7l0.5-0.2l-0.3-1.2l-0.5,0.2l-0.3-0.8l0.6-0.2l-0.5-1.6h-0.3l-1.2-3.9l0.6-0.2l-0.3-1.2l-1.5,0.5
		l0.2,0.6l-4.2,1.5v-0.4l-1.1,0.4l0.4,1.4l0.9-0.3l0.5,1.5l-3.5,1.2l-0.7-2.1l0.5-0.3l-0.4-1.3l-0.8,0.3l-0.4-1.4l0.8-0.3
		L334.6,696.1z M323.8,697.7l0.3-0.2l-0.2-0.3l1.2-0.4v0.3h0.3v0.3h0.3v-0.3l0.6-0.3l-0.2-0.4l4.1-1.5l1,2.9l-3.9,1.5l-0.2-0.4
		l-1.3,0.5l0.3,1l0.7-0.3l0.8,2.3l-2.8,1l-0.8-2.2h0.3l-1-2.9h0.3L323.8,697.7L323.8,697.7z M313.1,718.5h0.5v-0.9H313v-2.1h0.6
		v-5.3h0.9v-1.5h-0.4V708h-0.5v-0.8h0.6v-0.4h0.5v-0.4h0.7v0.8h2.6v-0.6h1.9v3h-3.5l0.2,11h-1.7v2.9h-1v1.2h1.1v-0.6h6.4v0.8h1v-1.3
		h-0.9v-3.3h2.5v5.1h0.5v0.7H324v0.3h-0.2v0.5h-1v-0.4h-7.3v-0.4h-1v0.4h-1.9v-0.6h-1v-1.5h0.9V723h-0.9v-3h2L313.1,718.5z"/>
	<path class="st3" d="M182.3,369.2l-35.5,29.1l-58.1-69.6l42.1-21.5c10.6,9.3,34.7,37.4,44,48.5l-4.1,3.7l-0.2,0.9l1.5,2.1l2.5-1.8
		L182.3,369.2z"/>
	<path class="st3" d="M209.7,224.1l3.7-2.4l5.6-13.2l2.7,3.5l-1.5,21.4c4.6,2.7,14.2,2.5,19.2,1.4c-6-10.6,2.9-26.4,5.2-37.1
		l-2.7-6.7l1.4-0.5c0.7,2.2,3.6,7.6,4.5,9.5c-3,6.6-9.7,27.5-5.7,34.4l11.9-1.3l12.1-35.3c-1.3-5.3-4.5-18.8-8.7-22.6l10.1-5.6
		l-17.9-15.5c-12.7,13.7-55.9,51.9-53.7,73.3L209.7,224.1z M228.5,217.8l1,12.4l-1.2,0.3l0.5,2.9h-3.4c-4.6-11.4,5.8-33.6,10.9-43.5
		l3,1.5l-1.1,2.1l1.1,0.6L228.5,217.8z M259.6,202.2l-9.1,26.8l-2.7-0.8l1-2.8l-1.6-0.7c9.6-19.3,6-32.8,3.1-52.1
		c0.9,0,2.5,0.4,3.3,0.8C255.2,174.1,258.9,201,259.6,202.2z M247.9,161.6l0.6,0.5l3.5-3.6l3.4,3.9l-12.2,12.4l-1.8-1.5l-4.8,4.7
		l-2.3-2.3L247.9,161.6z M204.9,206.2l0.5,0.2l0.5-2.7l2.2-2.1l-0.4-0.4l24.3-24.5l2.4,2.2l-1.5,1.5l0.7,0.9l-23.7,24.3
		c-1,3.2-3.7,16.9-7.1,18.5l-2.3-0.4C201.5,219.5,203.8,210.3,204.9,206.2z"/>
	<path class="st3" d="M326.6,378.4l-3.7,5.5l-62.2,2.8l-10.6,8.8l8.3,3.9l-1.2,2.3c4.9,9,1.6,27.6,9.1,35.3
		c10.1,1,26.3-3.4,36.6-3.5l23.6-24.2c6.9-2.7,15.3-11.5,17.1-18.8L326.6,378.4z M320.1,412.9l-0.9-0.3l-0.9,0.5L318,414l0.6,0.8
		l-0.9,1.4l-28.1-21.5l-0.7,0.9c-0.6-0.6-1.5-2.1-1.8-2.9c0-1.5,1.2-2.9,2.3-3.8c1.3-0.3,3.1-0.2,4.2,0.4l-0.7,1.2
		c1.3,1,25.9,19.7,28,21.4L320.1,412.9z"/>
	<path class="st3" d="M567.4,204c-6.2-5.5-11.2-19.6-12.4-27.6c-7-1-17-2.6-23.9-3.6c-3.6,6.5-23.1,60.1-32,60.7l2.2,7.5l29.8-5.1
		l9.5,6.3l-7.4,13.1l11.1,5.7l22.8-17.8c3.6-6.7,6.1-20.8,5.8-28.4L567.4,204z M519.8,234.6l-0.8,1.9c-0.4,0.1-15.6,2.7-16.6,2.9
		l-1.1-4.3l13.8-2.7c0.3-1.1,2.1-6,1.7-7.1h-1.4l1.5-5l3.6,0.9c0.8,1.5-0.2,4.2-0.7,5.7l1.8,0.5L519.8,234.6z M523.5,211.5l-2.8,8.1
		l-4.3-0.9l1.5-6.3l-0.6-0.6l1.8-3.3l0.9,0.2c1.6-2.1,5.7-7.1,7.5-9l-0.8-0.9l3.3-2.3l0.5,0.9l3.6-2c0.4-3.9,0.2-11.5-0.6-15.3
		l4.1-0.7l0.3,6.3l0.8,0.3c0.3,3.2,0.7,8.9-0.2,12.1C532.7,200.7,527,206,523.5,211.5z M540,238c-20-7.1-8.9-26.8,5.4-33.1
		c14.4,0.5,19.1,19.9,11.7,30.3C552.4,238,545.3,239.2,540,238z M561.4,242.6l-3.3,2.3l-0.5-0.7c-2.3,0.8-7.4,2.7-9.7,3.6l-4,6.9
		l-3.6-2.1l5.2-9.8l1.7,1c4.6-2,11.5-3.3,14.5-7.7l3.1,2.7L561.4,242.6z M569.2,225.4h0.5c0.2,1.2-0.3,3.3-0.9,4.3l-0.6-0.2
		l-2.5,5.7l-4.2-1.8c8.2-13.2,0.2-30.9-14.2-35.5c0.3-3.3-0.5-8.6-0.4-11.9h1v-6.6l4.2,0.3l0.3,6.7l-0.8,0.2l0.3,8.5l3.6,1.5
		l0.4-0.7l3.8,2.7l-0.5,0.8c1.5,1.8,6.2,7.4,7.6,9.1l0.9,0.3l2,4.4l-0.8,0.3L569.2,225.4z"/>
	<path class="st3" d="M476.4,119.4c0.1,6.4,0.6,23.2-2.8,28.8l-4.1-0.2l0.7,12c-1.5,1.3-6.1,6.1-8.2,6.1c-0.7,5.1-0.6,15.3,2.1,19.8
		l-7.5,8.1l-4.5,21.5c-5.8-5.4-18.5-14.6-25.9-17.4l-0.5-33.5l-41.7-1.4l0.3-11.7l2.7-3.5h32l3.4,2.4l1.3,11.2l37.1-1.3l1.7-2.5
		l-0.6-41.5L476.4,119.4z"/>
	<path class="st3" d="M316.2,373.2l20.4-9.4l-3.4-17.3l-2.3-2.1l-18.8,5.4l-14.6-4l-21.5,7.6l-4.6-5.8l-37.1,0.3l-1.5,14l-5.8-0.7
		l0.9,12.6L316.2,373.2z M246.4,373.1h-6.9v-4h10.8v4H246.4z M250.9,353.8l-6.8,0.2v0.6h-3.4V354h-6v-3.8l16.1-0.3L250.9,353.8z
		 M308.3,372.2v-0.7h-2.1v0.7h-13v-0.8h-2.4v0.7h-13.4v-0.9h-1.8v0.9h-6.8v0.7c-2.4,0.1-6.1-0.2-7.5-2.3h-4.5v-3.4h57.9v5.1
		L308.3,372.2z M327.5,367.1l-0.3-0.5l-2,1l0.2,0.3l-6.9,3.3l-1.9-3.9l15.1-7.2l2,4L327.5,367.1z M275.4,356.8l0.7,0.4
		c3.2-1.3,9.6-3.7,12.8-4.8v0.3l2.1-0.8v-0.3c4-2.1,9-3,13.1-0.8v0.3l2.1,0.7l0.2-0.3l6.2,1.6l4.7-2l0.2,0.3l2.1-0.9l-0.2-0.3l7-2.8
		l1.6,4l-6.1,2.5l0.2,0.3l-2.8,1.2V355l-4.1,1.6l-0.2-0.3c-2.7,1.1-7.1-0.3-9.7-1.2v0.4l-2.1-0.7v-0.3c-3.3-1.7-7.5-1.4-10.6,0.7
		l0.2,0.3l-2.1,0.9V356c-9.3,2.9-15.9,9.5-22-2h-5v0.5h-3.4V354H254v-3.8C260.7,350.3,272.6,348,275.4,356.8z M229.2,363.9l9.6,0.3
		l-0.3,9.2h-9.7L229.2,363.9z"/>
	<path class="st10" d="M688.6,466.1l-7.4,4.8l22,34l52.6-34.7L732,437.8L688.6,466.1z"/>
	<path class="st10" d="M423.5,167.7l-39.3,0.7l1.1,62.7l39.3-0.7L423.5,167.7z"/>
	<path class="st4" d="M156.3,402.8l31-23.9l15.6,0.4c6.3,10.3,9.8,30.3,6.9,42l-4.5,4.5l-57.2,1.5l-0.4-3.5l-6.2-3.5l1.3-7.1
		C143.3,412.8,155.8,403.4,156.3,402.8z"/>
	<path class="st10" d="M803.4,546.7l-19.8-30.2l-49.2,31.4l19.3,30.5L803.4,546.7z"/>
	<path class="st10" d="M709.1,506.9l19.1,31l48.8-31l-19.7-31L709.1,506.9z"/>
	<path class="st10" d="M623.5,520l-30.5,4.8l9,57.4l30.5-4.8L623.5,520z"/>
	<path class="st10" d="M460.6,158.5l-0.9-52.1l-32.2,0.6l0.2,52.2L460.6,158.5z"/>
	<path class="st3" d="M522.7,493.6l-36.9,9.5l-15.5,40.7l-23.2,3.4l-5.6-38.6c-4,0.7-15.9,2.7-19.2,5l-1.5-6.7
		c31.1-7.6,68.2-11.4,99-20C520.6,488.5,522,491.9,522.7,493.6z"/>
	<path class="st1" d="M349.7,205.9l-11.8,3.7l-6.5-12.1l-10.8-5.1L301.8,147l-16.7,17.5c10.1,5.1,24.1,22.1,29.8,31.7
		c5.4,3,19.3,10.4,21.4,16.7c10.3,6.7,32.7,18.2,45,19.6v-21.1L349.7,205.9z"/>
	<path class="st1" d="M591.4,522.9l-4.6-3.8c-3.3,2.8-8.9,9.3-11.3,13l3,54l21.2,0.3L591.4,522.9z"/>
	<path class="st10" d="M675.4,536.2l-41.4,7.3l4.8,27.3l41.4-7.3L675.4,536.2z"/>
	<path class="st3" d="M514.9,172.2c-1.8,9.2-8,41.6-9.6,50.2L479.6,210c1.5-7.4,4.7-22.4,6.3-29.8
		C492.9,177.7,507.7,173.2,514.9,172.2z"/>
	<path class="st10" d="M380.6,75.2l-27,0.2l0.2,40.8l27-0.2L380.6,75.2z"/>
	<path class="st10" d="M381,118.2l-27,0.2l0.2,40.7l27-0.2L381,118.2z"/>
	<path class="st10" d="M627.7,442.7l-25.7,3.2l4.9,39.8l25.7-3.2L627.7,442.7z"/>
	<path class="st10" d="M668.1,511.9l-41.6,7.3l4,23l41.6-7.3L668.1,511.9z"/>
	<path class="st3" d="M565.5,583.2L547,584l-5.1-44.1c0.5-1,1.8-3.3,2.7-3.9c2.2-0.2,12.8-2.5,14.7-0.9l1.2,2.6l1.8-0.5
		C564.6,548.5,565.9,571.6,565.5,583.2z"/>
	<path class="st10" d="M545.3,430.7l38.3-8.5l-5.3-23.9l-38.3,8.5L545.3,430.7z"/>
	<path class="st11" d="M392,483.1l1.8-1.8l-0.7-5.7c-8.3,0.3-22.4,3.4-30.1,4.5c-6.4,6-6.4,13.5-0.8,19.9c4.5,2.1,10,4.1,11.3,9.6
		c0.9-0.1,13.7-1.2,14.9-1.3l-0.3-2.6c1.2-0.1,4.8-0.4,5.9-0.5L392,483.1z"/>
	<path class="st11" d="M82.5,362l-2,0.3l-2.1,3.9c5.2,3.1,15,8.2,20.5,9.8l8.8-13.5c-1-2.1-2.5-4.4-2.3-6.8
		c-2.8-1.6-11.3-7.9-14.3-8.8L82.5,362z"/>
	<path class="st1" d="M519.4,564.1l-9.2,1.3l-0.9,18c-4.1,2-18.6,1.6-23.2,1.5c-2.2-1.2-0.8-18.2-0.9-20.2l-14.8-1.3l-1.7,17.7
		l-9.4,10.4l-0.3,7.8c-20.7,6.2-34.2,30.3-47,45.8c3.3-6.8,0.2-19.1-2.7-25.5c-2.1-5.7-13.1-53.3-19.4-55.3l-12,10.7l-5.7-3.3
		l-19.1-49.4l-33,2.4c10.4,5.3,15.1,39.2,17.5,49c-8.4,3.7-19.1,10.5-24.5,18.2l1.3,0.7c-6.7,12.3-4.2,29.5,0.9,41.9
		c6.4,1.7,29.4-9.8,35.3-12.1l5.1,10.4L339,653.4l-2.3,16.4l-42.2-17.9l-0.3,0.4L271.9,617l8.4-69.2c7.3-9.7,25.3-24.7,35.9-30.6
		c24.8-0.5,78.2-3.8,102.1-9.4l1.9,7.2l18.9-3.6c0.5,2.7,6.5,37.7,7,40.1l26.2-3.3l11.2-24.1l5.4-0.2l0.9,11l15.3-1.5l10.3,7.5
		C516.4,546.7,518.4,558.3,519.4,564.1z"/>
	<path class="st3" d="M574,322.1l-29.1,9.2c-4.2,3.8-38.4-3.3-43.8-3.8l-30.7-20.1l14.7,4.8l72.6-37.5c1.8,0.2,6,0.9,7.4,2.3
		c3.1,5,2.7,14,4.4,19.6L574,322.1z"/>
	<path class="st1" d="M550.5,238.1c16.6-4.1,11.4-33.1-5.1-33.2C523.6,215,522.2,240.9,550.5,238.1z"/>
	<path class="st1" d="M548.4,807.6c-2.2,0.7-6.4,1.6-8.7,2.1l-11.2,2.5l-5.6,1.1l-10.9,1.9c-8.4,1.1-33.4,3.9-41.8,4.2
		c-13.9,0.7-27.9,0.6-41.8-0.3c-13.8-0.9-27.5-2.4-41-4.8c-8.3-1.3-17.2-3-25.3-5.1c-4.5-1-15.5-4.2-20.1-5.6l-6.6-2
		c-4.6-1.5-9.1-3-13.6-4.7l40.4-8.7l4.3-0.9l38.8-8.3l130.6-25.7c24.1-4.9,57.5-8.5,82.1-8.6l25.3-1.2l4.3-0.3l8.8-0.4l27.2-1.5
		c-5.1,3.9-10.3,7.7-15.6,11.4l0,0l-3.7,2.5l0,0l-6.3,4.1l0,0c-32,20.8-67.3,36.5-104,46.7l-2.5,0.6l-2.4,0.7l-2.3-14.7h-0.9
		L548.4,807.6z"/>
	<path class="st10" d="M605.5,494.4c15.4,13.7,37-2.4,31-21.4c-1.5-7.4-1.8-33-7.8-38.5c-7.4-9.6-22.6-8.2-29.1,1.7
		c-6.6,6.5-0.7,30.1-0.4,38C599.7,481,600.3,489.4,605.5,494.4z M606.8,489.3c-3.5-7.2-9.2-44.5-3.8-50.9c5.1-7.7,16.8-8.9,22.6-1.5
		c6.2,10.1,6.4,35.1,7.5,46.5C631.6,495.6,613.3,500,606.8,489.3z"/>
	<path class="st4" d="M216.2,499.8l-2.1,2.6l-9,0.4l-2.1-1.5l-5.7,0.7l-1.5-13.8h1.9l-0.4-3.7h-1.8l-0.9-8.5l1.5-0.3l0.7-3l17.1-1.2
		L216.2,499.8z"/>
	<path class="st1" d="M390,437.7l-1,1.3l2.6,19l31.4-4l0.9-1.4l-1.9-15.2l-0.8-0.6l-4.5,0.9l-1,1.7l-5.7,0.9l-1.3-2l-6.8,0.9l-1-0.4
		l-0.4-2.8C398.1,436.2,392.3,437.2,390,437.7z M410,441l5.6-0.8l1.9,1.3l0.3,2.1l-1,1.8l-6.3,0.9l-1.6-1.2l-0.3-2.1L410,441z"/>
	<path class="st3" d="M538.6,473.9l-15.3,0.5l-1.3-34.8l15.3-0.5L538.6,473.9z"/>
	<path class="st3" d="M199.6,303l41.8-3.8l1.4-6.7c-5.7-2.7-53.6,2.5-60.6,2.8l2.2,8.9L199.6,303z"/>
	<path class="st3" d="M583.7,511.1l0.6,9l-4.4,3.3l-12,1.5l-3.1-23.1l14.1-1.1l-0.3-3.2l3.9-0.4l0.3-4.5l3.1-2.5l1.5,17L583.7,511.1
		z"/>
	<path class="st3" d="M288.7,139.8l1.4,1.3l-19.8,20.3l-10.6-10.5l19.7-20l1.6,1.4l3.3-3.3l7.7,7.4L288.7,139.8z"/>
	<path class="st4" d="M250.3,460.4l-0.5-5.4v0.2l-0.7-7.7l-2-1.9c-10,0.9-32,2.9-42.2,3.9l-0.6-6.2c12.7,0.8,40-8.7,50-0.4
		c0.5,5.7,1.2,14.2,1.7,19.9l-5.5,0.7L250.3,460.4z"/>
	<path class="st4" d="M231,523.9l1,12.2l30.3-3.1l-1.2-11.8L231,523.9z"/>
	<path class="st1" d="M352.8,501.3l-5.4,0.6v-0.7l-2.4,0.3v0.7l-17.2,1.9l-4.9-4.8l3.7-0.4l-0.5-4.2c-2.4,0.2-5.9,0.7-7.5,2.7
		c-1.5,4.3-3.4,9.8-1.8,14.3c11.5-7.5,24.2,0.1,33.2-5.5c7-4.6,5-10.6,5.1-17.6l-3.7,0.4L352.8,501.3z"/>
	<path class="st3" d="M510.2,565.4l-0.9,18c1.8,2.3,12.6,2.4,15.2,2.7c0.3-1.5,0.7-5,0.9-6.6l-2.7-0.9c0.5-3.5-2.5-11-3.3-14.4
		L510.2,565.4z"/>
	<path class="st8" d="M214.7,736.6l-0.7,0.3L214.7,736.6z"/>
	<path class="st4" d="M580.6,442l-29.6,4.5l-0.5-4.8l29.7-6.4L580.6,442z"/>
	<path class="st3" d="M539.3,576.5l-0.3-2.1l-11.1,1l0.3,11.4l3-0.2l0.2,2l8.7-0.8l0.9-2.1l2.4-1l-0.7-7.3L539.3,576.5z"/>
	<path class="st4" d="M374.8,429.7l-1-6.5l4.3-0.6l-0.6-4.9l-8.9,1.1l-2.2,2.1l-6,1l0.9,9.3C363.2,431.1,372.7,429.9,374.8,429.7z"
		/>
	<path class="st3" d="M519.5,480.6l-0.3-4.2l-5.6,0.6l-0.4-3.8l-11.5,1.5l0.3,3.6l-4.5,0.5l0.7,4.8
		C502.6,482.7,514.9,481.2,519.5,480.6z"/>
	<path class="st3" d="M509.5,527l-14.8,1l0.5,5.6l9.1-1.2l8.9,5.7l1.2-4.4l-1-3.6L509.5,527z"/>
	<path class="st1" d="M512.4,585.1c-2.8,2-9,3.3-12.4,3.3l-2.1,2.6l26.1-0.8l0.5-4.2L512.4,585.1z"/>
	<path class="st1" d="M458.8,476.5l-0.9-6.6l-5.2,0.7l-0.2-0.9l-6.2,0.8l1.3,9.4l4.9-0.7l-0.3-1.9L458.8,476.5z"/>
	<path class="st10" d="M600.2,390.1l-7.2,1.6l2.7,12l7.2-1.6L600.2,390.1z"/>
	<path class="st10" d="M593,391.9l-7.2,1.6l2.7,12l7.2-1.6L593,391.9z"/>
	<path class="st10" d="M603.1,402.8l-7.2,1.6l2.7,12l7.2-1.6L603.1,402.8z"/>
	<path class="st10" d="M595.7,404.8l-7.2,1.6l2.7,12l7.2-1.6L595.7,404.8z"/>
	<path class="st4" d="M238.5,373.4l0.3-9.2l-9.6-0.3l-0.4,9.6L238.5,373.4z"/>
	<path class="st1" d="M368,506.5c-3.6-2.5-9.7-2.9-12.9,0.5c-0.7,1.3-0.5,3.1,0.3,4.4l13.3-0.7l0.5-0.4
		C369.7,509,369.1,507.4,368,506.5z"/>
	<path class="st1" d="M340.8,510.1c-7.5-1.2-15.6-0.5-22.6,2.7v0.5c5.4,0.8,16.6-2,22.7-0.9c0-0.3,0.2-1.8,0.2-2L340.8,510.1z"/>
	<path class="st4" d="M607,391.3l-0.3,15.5l2.7,0.3l0.6-15.7L607,391.3z"/>
	<path class="st1" d="M328.6,480v-0.4h-0.9c0.1-0.6,0.6-3.6,0.5-4.1c-0.6-0.1-1.9-0.2-2.4,0c-0.5,0.3-1.5,5.4-1.6,6l0.2,0.4l0.6,0.3
		l8.9-0.9l-0.2-2.1L328.6,480z"/>
	<path class="st1" d="M327,484.8c-0.8-1-2.3-1.5-3.4-0.9c-0.3,0.4-1.3,6.9-1.5,7.5c1-0.9,2.7-1.2,4-1.4c0.1-0.7-0.4-4.5-0.5-5.2H327
		z"/>
	<path class="st1" d="M349.6,508.3c-1.6,1.4-4.3,1.2-6.3,1.3c-0.6,0.3-0.4,1.7-0.4,2.2c3,0.5,5.8-0.7,7.2-3.3v-0.3L349.6,508.3z"/>
	<path class="st2" d="M296.3,393l-3.5-2.7l0.7-1.3c-1.1-0.6-2.9-0.7-4.1-0.3c-1.1,0.9-2.3,2.3-2.3,3.8c0.3,0.8,1.2,2.3,1.7,2.9
		l0.7-1l28.2,21.6l0.8-1.4l-0.5-0.8l0.3-0.9l0.9-0.5l0.9,0.3l0.9-1.1L296.3,393z"/>
	<path class="st2" d="M249.3,478.7c-3.7,2-3.1,7.5,0.9,8.7l11-0.8l-0.6-9.1C259.5,477.7,250,478.4,249.3,478.7z"/>
	<path class="st12" d="M410.4,446.3l6.3-0.9l1.1-1.8l-0.3-2.1l-1.9-1.3L410,441l-1.5,2l0.3,2.1L410.4,446.3z"/>
	<path class="st2" d="M269.6,485.5c4.2-2.9,0.7-10.1-4.2-8.1l0.8,8.7L269.6,485.5z"/>
	<path class="st12" d="M146.4,292.2l-17,6.3c4.4-1.6,16-6,20.7-6.1l3,3.3l-2.8-4.1L146.4,292.2z"/>
	<path class="st1" d="M195.5,227.4l-0.2,0.7c0.7-0.1,13.9-3.5,14.7-3.6l3.6-2.4h0.2l5.4-12.5l2.1,2.7c0,0.5-1.5,21.2-1.5,21.6
		c4.9,2.4,14.1,2.7,19.4,1.4l0.9,2.1l-1.4,2.1l0.6,0.6c0.2-0.2,3.6-2.2,3.8-2.4c0.1,0-0.4-2.8-0.4-2.9c0.3,0,11.4-1.2,11.8-1.2
		c-0.2-0.2,12.1-35.3,12.1-35.5l0,0l-4.3-16l0,0l-4.1-6.1l9.6-5.7c11.2-1.9,23.6,9.5,30.6,16.9l1.8,6.9c-3,3.1-11.5,5.1-15.6,5.6
		c-3.7,2.7-11,6.4-15.8,5.6v4.5h0.1l2.1,3.5l-7.8,32.3l0,0l-0.6,2.1c-17.9-1.8-39.7-0.8-57.7-0.4l-6.1-4.3c-0.3-0.1-30.6,3.9-31,3.9
		c-5.8-2.4-15.3,0.5-20.5,3.1l-6.6,6.4c-0.2-0.2-2.5-2.4-2.6-2.5c-0.4,0.2-12.4,8.8-12.8,9c-2.5-0.2-8.2-0.9-10.6-1.8
		c16.4-31.5,37.5-60.4,62.1-86c4.6-7.1,30.2-29.5,42.2-38.5l-3.5,3.3l3.9-3l0,0l2.2-1.7l-2.6,1.4c31.4-24.3,66.4-43.5,103.7-57
		l-2.5,1.4l1.8-0.7l-45.4,44.1l0,0l-74.4,78.5h-0.1L195.5,227.4z"/>
	<path class="st1" d="M759.6,222.3l-0.9,5.2l-3.4-4.5l-3.8-0.9c-13.3,2.8-36.3,12.6-44.3,24.3v5.8l3.1,3.5l29.2-13.2
		c10.9,0.5,25.8-3.2,31.3-13.7c-2-2.9-3.9-5.8-5.8-8.7L759.6,222.3z"/>
	<path class="st1" d="M304,260.1c-5,0.7-15.6-0.6-20.6-1.6l-1.8,3.9l5.1,4.7c16.6-0.2,32.9,18.4,50.8,11.4l-1.4-1.1l-4.3-0.3
		C327.5,269.1,313.2,260.6,304,260.1z"/>
	<path class="st1" d="M639.9,322l5.4-2.4l13.7-28l-4.5-1.3l-2.9,1.7l-2,5.5c-3,0.5-9.7,1.6-12.8,2.1l-6.9,7.7l-1.1,5.8
		C631.2,315.2,637.1,320.6,639.9,322z"/>
	<path class="st1" d="M618.5,342.6l-5.9-6.2l-9.3,3.9l-3.2,5.7l13.6,6.7l7.5-6.8L618.5,342.6z"/>
	<path class="st1" d="M618,335.4l5.4,5.7l8.1,0.9v-8.5l-3.5-4.8l-8.5-0.3L618,335.4z"/>
	<path class="st1" d="M600.8,352.7l-10.5,1.8l0.2,5.8l13.8,2.5l5.1-5.8l-2.6-3.9L600.8,352.7z"/>
	<path class="st8" d="M239.9,227.2c0.4-1.3,6.3-26.3,7.8-27.1c-0.8-1.9-3.8-7.3-4.5-9.5l-1.4,0.5l2.7,6.7
		c-2.3,10.7-11.2,26.4-5.3,37.1l2.7-0.3C242,233.4,240.2,228.3,239.9,227.2z"/>
	<path class="st11" d="M240.1,225.8c-0.4,3.3,2.5,8.3,2.4,11.8l-3.5,2.2l1.4-2.3c-7.5-11.6,1.3-27.9,4.2-39.7l-2.7-6.7l1.4-0.5
		c0.7,2.2,3.6,7.6,4.5,9.5C245.8,200.6,241,224.7,240.1,225.8z"/>
	<path class="st1" d="M331.5,271.5c3.4,1.9,10,7.3,14.1,4.3l-2.1-3.8c-5.2-2.5-16.9-7.3-22.6-8.1L331.5,271.5z"/>
	<path class="st1" d="M322,283.3l0.5-1.7c-4.8-1.8-15.2-4.8-20.2-6.2l-1.2,2C305,280.1,317.2,282.4,322,283.3z"/>
	<path class="st11" d="M577.8,443.4l-1.2,1.4l-33.1,3.9L547,478l10.6-1.5c0.2,3.2,3.5,5.8,6.6,5.6l0.3,1.2l3.9-0.6l-0.9-6.1
		l19.5-2.3l-3.5-31.4L577.8,443.4z"/>
	<path class="st11" d="M337.7,462.6l0.3,2.7l-7.3,0.9c0.1,0.2-0.7,4-0.8,4.3l1.1-0.2v0.3l1.2-0.2c0.2,1.1,0.4,3.4,0.5,4.5l-4.8,0.6
		c0.1,0.5-0.4,3.6-0.5,4.1h0.9v0.4l5-0.6c0.1,1.1,0.3,3.4,0.5,4.5c-1.1,0.1-7.6,0.9-8.5,1l0.5,4.2l14.7-1.6l0.3,2.6l-15.3,2.1
		c0.2,1.5,0.7,5.1,0.9,6.6l-3.7,0.4l4.9,4.8l17.2-1.9v-0.7l2.4-0.3v0.7l5.4-0.6l-1.4-12.4l-3.9,0.4v-0.9l2.6-0.3l-1.1-8.1h-0.4
		c-1.7-5.6,2.9-10.6,2.7-16.1l-6.9,0.8l-0.3-2.9L337.7,462.6z"/>
	<path class="st11" d="M348.2,433.6l-1.7,2.2l3.6,2.7l-0.9,1.2l-3.1,0.3v-0.8l-11.2,1.5l-1.8,2.2l-5.2,0.7l-4.1-3.2l-0.5-4.5
		l-1.3,0.2l-0.9-0.7l-0.3-2.1l2-0.3l-0.4-3.8l1.1-1.5l-0.8-6.2l-1-0.8l-0.3-2.3l0.9-1.1l3.4,2.6l1.8-2.3l-3.4-2.6l0.8-1l24.4-3.2
		l0.7,0.5c0.4,3.1,2.7,20.9,3,23.5l-1,1.4L348.2,433.6z"/>
	<path class="st11" d="M468.2,425.5l16.6-0.3l7.5,4.9l5.8-1.5c2.6-11.2,20.6-9.9,29.1-13.9l-0.9-3.9h0.8l-0.3-1.1l-7.6,1.8l0.3,1.5
		c-0.6,0.2-1.9,0.4-2.5,0.5l-0.3-1.4c-3.2,0.7-11.8,2.6-14.8,3.5l1.7-9.6c-3-0.1-9-0.2-12-0.2v1.6l-14.3,0.4v2.8l-2.1,0.2l-0.2,1.7
		l-9.2,9.7L468.2,425.5z"/>
	<path class="st11" d="M445.2,494.7l-1.5-11.8l0.9-1.2l-0.3-5.3l-1.2-1.3l-6.4,0.9l0.2,2.1l-24.5,3.6v-1.5l-4.3,0.5l-0.2-1
		l-10.6,1.5c0.5,2.9,1.5,9.6,1.9,12.5l-2,0.5l1.2,8.2l1.7-0.2l0.4,1.5l15.4-2.3v-0.9l20.2-2.9l-0.3-1.7l5.1-0.6v0.5l3.1-0.3v-0.7
		L445.2,494.7z M405.1,499.6l-0.8-5.1c0.9-0.1,4.1-0.6,5-0.7c0.1,0.8,0.6,4.2,0.8,5.1L405.1,499.6z M437.9,491.7L415,495
		c-0.1-0.5-0.2-1.6-0.3-2.1l1.3-0.3l-0.4-2.5l4.8-0.7v0.5l3.6-0.4l-0.4-3.4c0.5,0.1,13.6-1.9,14.2-1.9l0.9,7.4L437.9,491.7z"/>
	<path class="st11" d="M494.8,457.9l2.7,20.8l4.6-0.6l-1.1-8.6c0.7-0.2,10.7-1.4,11.7-1.5l1.1,8.8l4.8-0.6l-2.7-21.2l-2.7,0.3
		l-0.4-3.3h0.4l-1.5-11l-2.2,0.3V441h0.6l-0.3-1.9l-2.1,0.3v0.4h-0.4l-0.3-2.1c-2.3,0.3-7,0.9-9.3,1.2l0.3,1.5l-1.8,0.2l0.3,2.1h0.6
		v0.3l-2.2,0.3l1.4,10.6h0.6c0.1,0.9,0.3,2.8,0.4,3.7L494.8,457.9z M506.2,443.3l1.2,9.4l-7,0.9l-1.2-9.4L506.2,443.3z"/>
	<path class="st11" d="M465.8,285.7l16.9-18.3c-1.3-2.1-6.6-4-8.8-4.7l-17.4,18.8l0.3,0.3c-1.7,2-7.3,6.6-3.2,9
		c0.3,0.1,6.4-0.5,6.9-0.5l0.5,0.5v9.2c0.1,0.1,0.4,0.3,0.5,0.4h0.4c0-0.1,3.7-3,3.9-3.2L465.8,285.7L465.8,285.7z"/>
	<path class="st3" d="M519.1,533.1l-1.4-9.9l3.3-0.4l0.7,5.1l4.8-0.6l-4.1-30.7l-4.5,0.7l0.2,1.5l-2.7,0.4l0.3,1.6l-4.8,0.7
		l4.3,32.3L519.1,533.1z M516.5,512l-0.6-4.7l2.8-0.4l0.7,4.8L516.5,512z"/>
	<path class="st11" d="M476.9,257.2l20.1,8.2l6-10.2c-2.8-4.3-16.7-8.4-21.3-9.9L476.9,257.2z"/>
	<path class="st11" d="M447.4,216.2l-12.4-9.5l-1.8,3.2l-4.9,0.3l0.3,10.6c2.8,4.8,10.1,6.4,14.7,3.2l6.7,4.4l2-1.2l-5.9-6.3
		L447.4,216.2z"/>
	<path class="st11" d="M253.5,173.4c-0.8-0.4-2.3-0.8-3.2-0.8c2.8,19.1,6.5,33.3-3.1,52.1l1.6,0.7l-1,2.8l2.6,0.8
		C258.8,210.8,261.2,192.5,253.5,173.4z"/>
	<path class="st11" d="M486.6,466.5l-0.6-5.1c-0.3,0-1,0.1-1.3,0.1L483,448l2-0.3l-0.5-3.9l-8.6-7.5l-3.7,0.4l2.7,21.8l-4,0.6
		l-2.1-16l-1.9,0.3l-0.2-1.4l-5.3,0.8l2,14.5l-3.2,0.4l-1.5-10.9l-3.3,0.4c0,0.4,0.1,1.2,0.2,1.5l-2.4,0.3l1.7,11.9l2.4-0.3v0.6
		l0.9-0.1c0,0.4,0.1,1.3,0.2,1.6l4.5-0.6l0.2,1.5c0.5-0.1,1.6-0.2,2.1-0.3l-0.2-1.5l10.3-1.5l1.6,13l3.9-0.4
		c0.1,0.6,0.2,1.7,0.3,2.2l-23,3l0.3,1.5l-4.2,0.5l0.3,3.2l-1.6,0.5l2.1,6.3l6.6-2.1l-0.2-0.8l0.7-0.1l0.2,0.8l22.5-3.5l-0.3-5.4
		h1.8l-0.4-4.5l-0.9,0.1c-0.1-0.6-0.3-1.9-0.4-2.5l1.6-0.2l-0.7-5.7C485.6,466.5,486.3,466.5,486.6,466.5z"/>
	<path class="st11" d="M202.7,224c3.2-1.6,6.1-15.5,7.1-18.5l23.6-24.3l-0.7-0.9l1.6-1.5l-2.4-2.2l-24.3,24.5l0.4,0.3l-2.2,2.1
		l-0.5,2.7l-0.5-0.2c-1.1,4.2-3.4,13.3-4.5,17.4L202.7,224z"/>
	<path class="st11" d="M278,461.9l-0.7-5.3h0.8l0.3,1.8l13.3-1.8l-0.7-5.1l-1,0.2l-0.2-1.4l2.8-0.3l-0.7-5.1l-14.5,1.9v0.9l-1.5,0.2
		l0.3,1.6l-5.2,0.7l1.7,12.5L278,461.9z"/>
	<path class="st11" d="M356.7,398.2c-0.4,0.1-1.3,0.2-1.8,0.2l-2-14.8l-6.1,0.7c0.2,1.5,2.3,18.7,2.4,19.6l6.1-0.8l-0.3-2.4l2.1-0.2
		l1.5,12l5.2-0.7l-2.4-17.2c-0.5,0.1-4.7,0.4-5.1,0.6L356.7,398.2z"/>
	<path class="st11" d="M245.6,545l-15.1,1.2l1,12.9l15.1-1.2L245.6,545z"/>
	<path class="st11" d="M239.2,194.2l-1-0.6l1-2.1l-3-1.5c-5.2,10-15.5,32-10.9,43.5h3.5l-0.5-2.9l1.2-0.3
		C225.5,221.2,235.4,202.1,239.2,194.2z"/>
	<path class="st11" d="M246.1,570.9l-15.3,1.1l0.9,12l14.9-0.9L246.1,570.9z"/>
	<path class="st11" d="M234.5,436.7h3.5v1.3l2.4-0.2v-1.3l2.7-0.2l-0.8-12.1l0.7-0.3c0.5-0.8,0.2-1.8-0.3-2.5l-0.7-0.3l-0.3-4.5
		l-8.8,0.6L234.5,436.7z"/>
	<path class="st3" d="M534,555.7l-1.3-9.3l3.9-0.5l-1.8-13.8l-7,0.9l0.9,6.3l-1.7,0.3l2.2,16.7L534,555.7z"/>
	<path class="st11" d="M241.4,173.3l1.8,1.5l12.1-12.4l-3.3-3.9l-3.5,3.6l-0.6-0.5l-13.6,14.1l2.3,2.3L241.4,173.3z"/>
	<path class="st11" d="M588.3,477.4v2.5h-1.4v2.1h-1.2c-0.2,0.6-0.6,2-0.8,2.6l1.1,0.4l-0.9,2.1l2.1,0.9l1.8-0.3l0.8,5.1
		c0.7-0.1,3.6-0.1,4-0.7l-0.9-7l1.7-0.3l-0.9-7.8L588.3,477.4z"/>
	<path class="st3" d="M500.5,516.7l-1.4-10.4l-7.9,1l1.4,10.4L500.5,516.7z"/>
	<path class="st11" d="M492.2,229.2l-6,1.7l3.5,12.4l6-1.7L492.2,229.2z"/>
	<path class="st11" d="M473.1,211.3l-5.8,0.5l1,10.9l5.8-0.5L473.1,211.3z"/>
	<path class="st11" d="M477,222.4l-2.2,5.3l10.2,4.2l2.2-5.3L477,222.4z"/>
	<path class="st3" d="M552.4,512.3l-3.7,0.7l2.7,14.4l3.7-0.7L552.4,512.3z"/>
	<path class="st3" d="M512.5,525.8l-0.9-6.2l-3.2,0.4l0.2,1.6l-6.4,0.9l0.6,4.5L512.5,525.8z"/>
	<path class="st11" d="M538,185.5l-0.3-6.3l-4.1,0.7c0.8,3.8,0.9,11.4,0.6,15.3l-3.6,2l-0.5-0.9l-3.3,2.3l0.7,0.9
		c-1.7,1.9-5.8,6.9-7.4,9l-0.9-0.2l-1.8,3.3l0.5,0.5l-1.5,6.3l4.3,0.9c2.1-9.3,9.3-17.6,17.9-21.6c0.8-3.2,0.5-8.9,0.2-12.1
		L538,185.5z"/>
	<path class="st11" d="M519.8,234.6l2-7.3l-1.9-0.5c0.6-1.5,1.6-4.1,0.8-5.7l-3.6-0.9l-1.5,5l1.4,0.1c0.4,1.1-1.4,6-1.7,7.1
		l-13.9,2.7l1.1,4.2c1.2-0.2,16-2.7,16.6-2.8L519.8,234.6z"/>
	<path class="st11" d="M538.4,241.3l-7.4-3.8c-2,3.3-9.2,4.6-12.6,5.1l0.8,4.4c0.4,0,8.5-1.6,8.9-1.5l1.6,1l-2.5,4.3
		c1.4,0.9,4.1,2.6,5.5,3.4c0.4-0.7,5.5-9.4,5.7-9.8l-1.5-0.7L538.4,241.3z"/>
	<path class="st11" d="M569,213.4l0.8-0.3l-2-4.4l-0.9-0.3c-1.4-1.6-6.2-7.3-7.7-9.1l0.6-0.8l-3.9-2.7l-0.3,0.7L552,195l-0.3-8.5
		l0.9-0.2l-0.3-6.7l-4.2-0.3v6.6h-1c-0.2,3.2,0.5,8.6,0.4,11.9c14.5,4.6,22.3,22.3,14.2,35.5l4.2,1.8l2.5-5.7l0.5,0.2
		c0.5-1,1.2-3.1,0.9-4.3h-0.5L569,213.4z"/>
	<path class="st11" d="M558,239.8c-2.7,1-8.1,3.1-10.8,4.1l-1.7-1l-5.2,9.8l3.5,2.1l4.1-6.9c2.4-0.9,7.4-2.8,9.7-3.7l0.4,0.8
		c2.1-1.1,5.4-4.3,6.8-6.1l-3.1-2.7L558,239.8z"/>
	<path class="st11" d="M258.6,507.8l-0.4-5c-9,0.8-27.5,2.5-36.5,3.3l0.3,5.1l0.9-0.1l0.3,3.2l7.5-0.7l0.3,6.3l7.5-0.5l-0.3-4.5
		l5.9-0.5l-0.2-1.9c0.6,0,13.5-1.2,14.4-1.3l-0.2-3.3L258.6,507.8z"/>
	<path class="st11" d="M226.9,494.6l-3,0.3c-0.2-4.4-0.6-10.6-1.1-14.9h-0.3l-0.4-5.7l3.2-0.1l-0.4-4.7l-8.9,0.6l0.3,4.5l-0.5,0.1
		l0.5,5.7l-0.4,0.1c0.2,2,0.6,7.3,0.8,9.3h0.4l0.5,5.5h0.5l0.4,6.3l9.1-0.8L226.9,494.6z"/>
	<polygon class="st11" points="217.1,462.8 218.5,462.7 218.8,467.3 223.3,466.9 223,462.3 224,462.2 223.9,461 228.6,460.7 
		228.3,455.8 223.7,456.1 223.7,455.2 222.4,455.3 222,450.3 217.5,450.6 217.8,455.8 216.5,455.9 216.6,457 212.3,457.4 
		212.6,461.8 217.1,461.5 	"/>
	<polygon class="st11" points="231.7,459.8 236.4,459.5 236.5,460.7 237.9,460.6 238.2,465.2 242.7,464.9 242.4,460.3 243.6,460.1 
		243.6,458.6 248,458.2 247.7,453.8 243.1,454.1 243,453.2 241.8,453.4 241.4,448.6 236.7,449 237,453.8 236.1,453.9 236.2,454.9 
		231.4,455.2 	"/>
	<polygon class="st11" points="229.2,500.8 221.6,501.4 221.6,502.7 219.2,502.9 219.4,506.3 229.8,505.4 	"/>
	<polygon class="st11" points="331.8,360 316.7,367.2 318.6,371.2 325.4,367.9 325.2,367.5 327.3,366.6 327.5,367.1 333.8,364.1 	
		"/>
	<polygon class="st11" points="234.7,354.1 240.7,354 240.7,354.6 244.1,354.5 244.1,354 250.8,353.8 250.8,350 234.6,350.3 	"/>
	<path class="st11" d="M319.2,355.3l2.7-1.2l-0.1-0.3l6.1-2.5l-1.6-4l-7,2.8l0.2,0.3l-2.1,0.9l-0.2-0.4l-4.8,2.1l-6.2-1.6l-0.1,0.3
		L304,351l0.1-0.3c-4.2-2.3-9.2-1.3-13.2,0.8l0.2,0.3l-2.1,0.8l-0.1-0.3c-3.2,1.1-9.7,3.6-12.9,4.8c-5.2-9.3-13.6-6.8-22.5-7.1
		l-0.1,3.8l6.4,0.1v0.6h3.3V354c0.6,0,4.5,0,5.1,0c6.2,11.4,12.7,4.9,22,2l0.2,0.3l2.1-0.9l-0.1-0.3c3.1-2.1,7.3-2.4,10.6-0.7
		l-0.1,0.3l2.1,0.6l0.1-0.3c2.6,0.9,7,2.4,9.7,1.1l0.2,0.4l4.1-1.6L319.2,355.3z"/>
	<path class="st11" d="M284.1,367c-6.6,0-20.6,0-27.2-0.1v3.4h4.4c1.6,2.1,5.2,2.5,7.6,2.4l-0.1-0.7h6.8v-0.9h1.8v0.9
		c3.3,0,10,0,13.4,0.1v-0.7h2.4v0.8c3.1,0,9.7,0,12.9,0v-0.7h2.2v0.7l6.6,0.1v-5.2C307.3,367.1,291.8,367.1,284.1,367z"/>
	
		<rect x="239.3" y="369.1" transform="matrix(1 -6.981091e-03 6.981091e-03 1 -2.5848 1.7037)" class="st11" width="6.9" height="4"/>
	<polygon class="st11" points="678.1,422.3 678.8,446.1 669.4,446.3 668.8,422.1 667.3,421 651.1,421.5 649.5,424 649.6,426.6 
		649.2,426.6 649.8,447.2 650.2,447.2 650.3,450.1 651.6,451.2 656.6,451 656.5,447.5 653.4,447.6 652.8,425.4 665.8,425 
		666.4,445.8 667.1,445.7 667.2,448.1 669,449.4 679.9,449.1 679.9,447.9 681.6,447.9 680.9,424 685.2,424 685.2,420.6 679.5,420.5 
			"/>
	<polygon class="st11" points="691.3,396.4 691.3,397 693.7,396.9 693.6,393.3 691.2,393.4 691.3,393.7 690.4,393.8 690.4,392.9 
		691,392.9 691,390.1 690.4,390.1 690,372.8 689.4,372.8 689.3,369.2 687.4,368 685,368.1 685,367.8 679.4,367.9 679.4,368.2 
		676.9,368.3 675.3,369.6 675.9,370.3 676,373.2 674.7,373.3 675.2,390.7 674.7,390.7 674.9,394.4 674.5,394.4 674.5,394.1 
		672.1,394.2 672.2,397.2 674.5,397.2 674.5,396.8 676.5,396.8 676.9,397.1 678.6,395.5 678,394.8 677.9,392 678.7,392 678.3,374.3 
		678.9,374.3 678.9,372 678.2,372.1 678.2,370.8 679.5,370.8 679.5,371.3 685,371.1 685,370.7 686.1,370.7 686.2,374.5 686.8,374.5 
		687.2,393 687.9,393 688,394.9 689.4,396.5 	"/>
	<polygon class="st11" points="631.1,410.3 630.9,403.7 627.6,403.8 627.7,410.6 617.4,410.8 617.4,411.2 615.7,411.2 615.7,402.6 
		616.6,402.6 616.6,393.1 612.3,393.1 612.3,400.9 613.2,400.9 613.2,410.3 612.3,410.3 612.3,414.6 617.4,414.5 617.4,413.9 
		627.7,413.6 627.7,413.3 631.3,413.2 631.2,410.3 	"/>
	<polygon class="st11" points="715.1,416 711.7,416.1 712.3,427.2 697,428 696.7,421.3 695.3,420.2 690.4,420.3 690.6,423.5 
		694.6,423.3 695,429.7 694.7,430 696,431.1 698.2,431 698.2,431.7 710.9,431.1 710.9,430.4 714.7,430.2 715.7,428.5 	"/>
	<path class="st11" d="M644.5,399.2v-1.9l0.5-0.6l-1.5-1.5l-0.6,0.6l-2,0.1v-0.7l-2.7,0.1v0.2l-6.6,0.2v0.1l-2.7,0.1v-0.5h0.3
		l-0.1-2.6l-3.3,0.1l0.1,2.6h0.3c-0.2,1,0.6,2.6,1.2,3.4l2.4-0.1v0.4l3-0.1v-0.7l5.5-0.2v0.5l2.7-0.1v-0.3h0.9v0.9h-0.3l0.3,11.6
		l3.4-0.1l-0.3-11.6h-0.5V399.2z"/>
	<polygon class="st11" points="691.7,406.9 691.2,406.9 691.2,405.8 704.9,405.1 705.5,416.6 708.5,416.5 707.9,403.8 706.3,402.3 
		690,403.1 688.5,404.8 688.7,409.4 691.9,409.3 	"/>
	<polygon class="st11" points="656.9,413.2 662.9,413.1 662.9,413.6 672.2,413.5 672.1,410 664.5,410.2 664.5,409.7 655.2,409.9 
		655.2,410.6 648.2,410.6 648.2,413.8 656.9,413.6 	"/>
	<path class="st11" d="M617.4,391.4v2.6c1.4,0,4.5,0,6-0.1l-0.1-3.3h0.1V388h-2.6v-0.9h-2.6v-0.9h2.6v-1.9l0.9-0.1V381h-4.3v0.9
		h-1.7v1.7h-0.9v4.3h2.6V391.4z"/>
	<polygon class="st11" points="643.1,413 643.1,412.6 638.5,412.7 638.5,411.8 636.1,411.8 636.1,412.8 634.9,412.8 634.9,416.1 
		635.9,416.1 635.9,417.2 638.2,417.1 638.2,416.6 643.2,416.5 643.2,416 644.5,415.9 644.4,413 	"/>
	<polygon class="st11" points="675.6,353.8 678.3,354.6 679.4,351.6 676.5,350.8 677,349.5 674.5,348.7 674.1,350 673.2,349.7 
		671.6,354.8 674.9,355.8 	"/>
	<polygon class="st11" points="626.9,389.7 629.5,389.7 629.5,388.9 631.2,388.9 631.2,385.4 624.3,385.5 624.3,388.9 626.9,388.9 	
		"/>
	<path class="st11" d="M403.4,432.8l0.3,2.5l4.2-0.7l0.2,0.7l7.7-1.1l-0.1-0.6l4.5-0.7c-0.3-2.2-0.8-5.6-1.2-7.9l-2.6,0.4l-0.2-1
		l-2.3,0.3l0.2,0.9l-2.8,0.4l0.5,3l-4.5,0.7l0.2,0.6l-4.4,0.6L403.4,432.8z"/>
	<path class="st11" d="M443.5,456.4c-0.1-0.5-0.3-2.2-0.3-2.7l-1.8,0.3l-1.4-11.9l-0.7-0.7l-5.4,0.8l0.1,0.4l-2.6,0.3l-2-14.6
		l-1.5-0.7L426,428l0.1,0.6l-3.5,0.5l0.3,2.7l-0.4,0.1l3.3,24c-8.7,1.1-27.3,3.2-35.8,4.5c0-1-3.3-21.8-3.5-23.5l6-0.9l-0.2-0.9
		l2.7-0.4c-0.1-0.6-0.3-2.2-0.4-2.8l-2.6,0.3l-0.3-2.4l-3.1,0.4l-0.4-3.2l-1.9,0.3l-0.3-2.1l-1.2-0.7l-6.2,0.9l-0.3-2.6l-2.6,0.3
		l0.8,5.7l-0.3,0.1l0.3,2.9l-12.2,1.6l0.9,6.3l12.2-1.6c0.5,1.6,0.1,4,0.5,5.6l0.7,0.7l-2.1,0.3c0.2,1.9,0.8,5.9,1.1,7.8l2.1-0.3
		c-0.9,1.9,0.2,4.7,0.6,6.7l-8.6,1.1l0.1,0.4l-3.3,0.5l0.3,2.7l-7.6,1c-1.1,2.3-0.8,5.4,0.9,7.3l8.1-1l0.3,1.8l3.4-0.4l0.3,2.7
		c1.5-0.2,8.7-1.1,10-1.3l-0.4-3.3l0.7-0.1c-0.1-0.6-0.3-1.8-0.3-2.4c1.2-0.1,19.5-2.8,20.7-2.7l1.5,11.1l0.9,0.4l2.5-0.3l0.3,2.5
		l5.6-0.8c-0.1-0.5-0.3-1.9-0.3-2.4l0.8-0.1l-0.4-3.3l9-1.2l0.7-0.6l-0.6-5.2l-0.8-0.3l-0.3-2.8c0.3,0,2-0.3,2.2-0.3l0.8,0.4
		l1.9-0.1l0.3,1.8l0.9,0.8l0.9,5.1l0.5,0.5l2.6-0.3l0.5-0.6l-0.9-5.2h0.4l0.6-0.9l-0.3-2l6.5-0.9l0.8-1l-0.3-2.7L443.5,456.4z"/>
	<path class="st11" d="M250.1,369h-3.9v4h3.9V369z"/>
	<path class="st13" d="M718.7,711.8"/>
	<path class="st11" d="M323.6,738.4l-0.9-1.8l-4,2.1l1,1.9L323.6,738.4z"/>
	<path class="st11" d="M329,717.7l1.1-0.3l0.3,1l3.7-1.2l-0.4-1.3L346,712l-1.3-3.9c-3.1,1-10.5,3.3-13.5,4.3l0.5,1.6l-2.1,0.7
		l0.2,0.6l-0.9,0.3l-0.4-1.2l0.4-0.2l-0.7-2.1l2.1-0.7l-0.7-2.2l-0.6,0.2l-0.3-1.2l0.5-0.2l-0.3-0.9l-0.6,0.3l-0.3-1l0.8-0.3l-0.9-3
		l-4.3,1.4l0.9,2.7l0.4-0.1l0.1,0.4l-0.8,0.3l0.8,2.3l0.8-0.3v0.1l-0.6,0.3l0.7,1.9l-1.4,0.4l1.1,3.3l0.5-0.2l0.3,0.9l-0.8,0.3
		l0.4,1.5l0.9-0.3l0.3,0.6l0.3-0.1l0.3,0.5l1.3-0.4L329,717.7z"/>
	<polygon class="st11" points="381.7,714.5 381.9,711.6 377.7,711.4 377.5,713.7 378.1,713.7 378,714.8 377.2,714.7 377.1,716.5 
		378,716.5 377.9,717.7 377.1,717.7 377,719.7 377.7,719.7 377.7,720.4 377.1,720.3 377.1,719.9 374.5,719.8 374.5,720.3 
		373.3,720.2 373.4,719.4 371.5,719.3 371.4,719.9 371.1,719.8 371.2,719 368.9,718.8 368.8,720.5 368,720.5 368,721 367.4,720.9 
		367.5,719.9 365.4,719.9 365.3,720.5 365,720.5 365.1,719.5 361.3,719.3 361,724 364.6,724.2 364.6,723.8 364.8,723.8 364.8,724.4 
		367.4,724.6 367.4,724 367.5,724 367.5,724.8 370.2,725 370.4,722.5 371.2,722.6 371.2,721.9 371.7,722 371.6,722.9 373.1,722.9 
		373.2,722.3 374.4,722.3 374.3,723.4 376.7,723.5 377,722.7 377.8,722.8 377.7,723.5 379.2,723.5 379.3,722.9 379.9,722.9 
		379.9,722.4 380.6,722.4 380.7,720.9 380.3,720.9 380.3,720.2 381.2,720.2 381.4,717.4 380.8,717.4 380.8,717.1 381.4,717.1 
		381.5,714.9 380.8,714.9 380.8,714.4 	"/>
	<path class="st11" d="M323.8,720.3l-2.6,0.1l0.1,3.3h0.9v1.3h-1v-0.8l-6.4,0.1v0.6h-1.1v-1.2h1v-3h1.7l-0.2-11
		c0.7,0,2.8-0.1,3.5-0.1v-3.3l-2.1,0.1v0.6l-2.6,0.1v-0.8h-0.7v0.4h-0.5v0.4h-0.6v0.8h0.5v0.7h0.5v1.5h-0.9l0.1,5.3h-0.6l0.1,2.1
		h0.7v0.9h-0.5v1.6h-1.9l0.1,3.1h0.9v1.4h-0.8v1.5h1.1v0.6l1.8-0.1v-0.3h1v0.4l7.3-0.1v0.4h0.9v-0.5h0.3v-0.3h0.5v-0.7h-0.5
		L323.8,720.3z"/>
	<polygon class="st11" points="361.5,708.2 361.7,708.7 363.8,707.8 364.1,708.4 366.6,707.4 366.4,706.6 367.3,706.2 367.7,707 
		368.3,706.7 367.8,705.8 369.6,705 370,706 372.3,705.1 371.2,702.4 373,701.6 372.7,700.9 374.1,700.3 374.5,701.2 375.5,700.8 
		375.2,700.3 376.1,700 375.7,699.3 376.3,699 375.7,698 375.4,698.2 375,697 375.6,696.7 374.3,693.7 370.8,695.2 372,698.1 
		372.7,697.6 373.2,698.6 372.1,699.1 371.7,698.5 369.4,699.4 369.6,700 369.3,700 370.2,702.1 368.3,702.9 368.5,703.4 
		367.3,703.9 367.1,703.4 366.2,703.7 366.4,704.3 365.3,704.8 365.1,704.2 363,705.1 362.8,704.4 360,705.6 360.3,706.3 
		359.8,706.6 359.4,705.6 358.6,706 358.8,706.6 358.2,706.9 357.8,706.1 354.8,707.4 355.1,707.8 354.6,708 355.8,710.9 
		356.3,710.7 356.5,711.3 359.5,710.1 359.2,709.3 359.8,709 360,709.7 360.9,709.4 360.6,708.6 	"/>
	<polygon class="st11" points="341.9,750.4 342.1,751.3 341.9,751.4 341.6,750.6 339.5,751.3 339.7,752 339.3,752.1 339,751.2 
		336.1,752 336.5,753 335.9,753.1 335.6,751.9 336.3,751.7 335.9,750.3 335,750.6 334.7,749.5 334.1,749.7 333.9,748.9 334.5,748.8 
		334,747.1 333.4,747.3 333,746.3 333.7,746 333.3,744.7 332.6,745 332.2,743.6 333.1,743.3 332.7,741.9 332.1,742.2 331.6,740.5 
		332.3,740.4 331.7,738.6 328.6,739.5 329.1,741.3 329.7,741.1 330.1,742.6 329.3,742.8 329.7,744 330.4,743.9 331,745.9 
		330.2,746.2 330.3,746.6 330.7,746.4 331.4,748.6 330.9,748.8 331.1,749.3 331.6,749.1 332.2,751 331.4,751.2 331.7,751.9 
		332.8,751.6 333.1,752.6 333.6,752.5 334.1,753.8 333.2,754.1 333.5,755.1 334.1,754.9 334.4,755.6 334.7,755.5 334.9,756.2 
		336.5,755.8 336.3,755.3 337.5,754.9 337.7,755.7 339.9,755 339.6,754.3 340.6,754.1 340.7,754.8 342.4,754.3 342.1,753.6 
		342.9,753.3 343.1,754.3 346.9,753.1 345.7,749.2 	"/>
	<polygon class="st11" points="334.4,698.1 335.2,697.8 335.6,699.2 335.1,699.4 335.8,701.5 339.2,700.3 338.7,698.8 337.9,699 
		337.4,697.6 338.6,697.2 338.7,697.6 342.9,696.2 342.7,695.7 344.2,695.2 344.6,696.4 343.9,696.5 345.2,700.4 345.5,700.3 
		346.1,701.9 345.5,702.1 345.7,702.9 346.2,702.7 346.6,703.9 346.1,704.1 346.7,705.8 347.1,705.6 347.3,706.4 350.4,705.4 
		349.6,702.9 348.8,703.1 348.5,702.3 349.4,701.9 348.9,700.3 348.1,700.6 347.9,700 348.5,699.8 347,695.3 345.7,695.8 
		345.4,694.6 346.2,694.3 345.7,692.6 344.8,692.9 344.5,692.3 343.9,692.6 343.7,692.2 342.8,692.5 343.1,693.2 342.1,693.4 
		341.9,692.8 337.6,694.3 337.8,695.1 336.6,695.4 336.5,694.9 335,695.3 335.2,695.8 334.6,696.1 334.7,696.4 333.9,696.7 	"/>
	<polygon class="st11" points="375.4,706.1 372.5,707.7 372.3,707.3 370.2,708.4 370.5,709 369.6,709.5 369.4,709 367.1,710.3 
		367.4,711 366.1,711.7 365.7,710.9 364.5,711.5 364.9,712.3 364,712.8 363.6,712.1 361.6,713.2 362,713.9 361.4,714.2 363,717.1 
		363.5,716.9 363.7,717.3 366.2,716 365.8,715.2 366.1,715.1 366.6,715.7 367.8,715.1 367.5,714.5 368.6,713.9 369.1,714.7 
		371.5,713.5 371.1,712.8 371.9,712.4 372.3,713.1 374.5,712 374.2,711.4 377.4,709.7 	"/>
	<polygon class="st11" points="351,745.4 350.6,745.1 351.2,744.5 350.1,743.4 349.2,744.1 348.6,743.5 349.2,742.9 347.6,741.3 
		346.7,742.2 346.1,741.5 345.5,741.9 344.9,741.2 345.4,740.7 344.7,740 344.1,740.5 343.1,739.5 343.8,738.8 342.5,737.5 
		342.1,738 341,736.8 341.5,736.3 339.2,733.8 335.9,737 338.5,739.8 339.2,739.2 340.5,740.5 339.8,741.1 340.2,741.6 341,740.9 
		342.7,742.7 342.3,743.1 342.5,743.3 343.1,742.7 344.4,744 343.7,744.6 344.7,745.6 345.5,744.7 346.7,745.9 347.4,745.2 
		348.4,746.2 347.9,746.7 348.3,747.1 348.8,746.7 349.8,747.7 349.2,748.2 350.5,749.5 353.4,746.8 351.6,745 	"/>
	<polygon class="st11" points="350.9,724.3 351,725.1 350,725.3 349.8,724.7 348.9,724.9 349.1,725.8 347.9,726 347.6,725.2 
		342.9,726.2 343.1,727 342,727.1 341.9,726.4 340.4,726.7 340.5,727.2 339.8,727.4 339.7,726.8 338.1,727.1 337.9,726.4 
		334.4,727.1 334.6,727.9 333.9,728.1 333.8,727.5 332.5,727.8 332.6,728.3 332.3,728.4 333,731.4 333.4,731.4 333.5,731.8 
		334.5,731.5 334.3,730.7 335.2,730.5 335.4,731.7 338.6,731 338.4,730.2 340.1,729.9 339.9,729.4 341.6,728.9 341.8,729.8 
		342.3,729.7 342.1,729 343.9,728.6 344.1,729.5 347.8,728.7 347.5,727.6 349.6,727.1 349.7,727.7 350.3,727.7 350.1,727 
		352.1,726.5 352.3,727.4 354.7,726.8 354,723.6 	"/>
	<polygon class="st11" points="357,702.8 356.6,702.4 358,701.2 358.4,701.8 359.2,701.1 358.7,700.5 359.7,699.5 360.5,700.4 
		363.4,697.8 362.8,697 364.1,695.8 364.8,696.7 365.9,695.8 365.4,695.2 366.2,694.6 367,695.4 369.1,693.4 366,690 364,691.8 
		364.4,692.2 363.7,692.8 363.3,692.3 362.3,693.2 362.8,693.9 361.4,695.2 361,694.6 358,697.4 358.5,698 357.4,698.9 356.9,698.3 
		356.1,698.9 356.6,699.5 355.3,700.7 354.9,700.3 353.4,701.7 355.5,704.2 	"/>
	<polygon class="st11" points="354.4,714 353.4,714.3 352.8,712.2 348.8,713.3 351,721.4 355.2,720.3 354.6,718.1 355.5,717.9 	"/>
	<polygon class="st11" points="324.5,701 324.1,701.2 325,703.4 327.8,702.4 327,700 326.3,700.3 326,699.3 327.3,698.8 
		327.4,699.2 331.4,697.7 330.3,694.8 326.2,696.3 326.4,696.7 325.8,696.9 325.9,697.2 325.6,697.3 325.5,697 325.2,697.1 
		325.1,696.8 323.9,697.1 324.1,697.6 323.7,697.7 323.8,698.1 323.5,698.2 	"/>
	
		<rect x="374.3" y="688.1" transform="matrix(0.4242 -0.9056 0.9056 0.4242 -408.6682 737.0975)" class="st11" width="1.9" height="3.7"/>
	<path class="st11" d="M363.6,376.3l-3.4,0.3l-0.3-1.7l2.7-0.3l-0.4-3.3l-0.9,0.1L361,369l-2.9,0.4v0.9l-8.7,1.2l-0.2-0.9l-3.1,0.4
		l0.3,2.7c-0.8,0-2.8,0.1-3.6,0.2l0.1-2.4l-4.3,0.6l0.2,0.8l-5.3,0.5l0.2,5.2l4.4-0.6l0.1,7.8l5.2-0.7l-0.2-1.4l2.7-0.2l-0.5-6.5
		l13.5-2c0,2.1,0.9,7.7,1.1,9.7l4.7-0.5L363.6,376.3z"/>
	<path class="st11" d="M463,264.7l0.9,2.1l-13.5,4.7v-3.1c-2.8-0.4-10.7,3.9-13.1,5.1l-6.8-4.1l7.2-0.9l0.3-4.5h-1l0.5-6.6h-1.1
		l0.4-5l26,2.1l2.1,9.4L463,264.7z"/>
	<path class="st3" d="M340.7,462.3l3-0.3l0.2,1.8c7.4,1.3,15.9-1.3,23.2-2.5l0.9-1.1v-0.6c-0.5-0.2-1.7-0.6-2.1-0.9v-0.9
		c1-1.5,2.9-4.7,3.9-6.3l6.1-0.9c0.5-1.3,0.3-3.3-0.7-4.3l-6.2,0.8c-2.1-1.4-5.1-4.4-6.3-6.6h-0.9l-0.2-0.9l-2.2,0.3
		c0-0.3-0.3-2.8-0.3-3c-0.6,0-1.9,0.1-2.5,0.2c0.5,2.2,0.5,5-1.4,6.6l-1.5,0.2c1.4,4.9,2.2,10.7,1.5,15.8
		c-3.6,0.3-10.8,1.1-14.3,1.4C340.7,461.1,340.7,462.3,340.7,462.3z"/>
	<path class="st3" d="M470.8,463.5l2.9-0.4l1.4,12l-16.2,2.4c-0.1-3.3-1.2-8.7-1.5-11.9C461,465,467.2,464.1,470.8,463.5z"/>
	<path class="st3" d="M437.9,491.7h0.7l-0.9-7.5c-0.6,0-13.6,2.1-14.2,2l0.3,3.4l-3.5,0.4v-0.5l-4.8,0.7l0.3,2.5l-1.2,0.3
		c-0.1,0.5,0.1,1.6,0.3,2.1L437.9,491.7z"/>
	<path class="st3" d="M359.7,382.8c-0.1-0.6-1-7.2-0.9-7.6c-0.4,0-12.6,2.2-13,2.1l0.6,6.9l0.3,0.3l6.1-0.7l2,14.8
		c0.5,0,1.4,0,1.8-0.2l-0.3-2.9l0.7-0.2l-1.5-11.8L359.7,382.8z"/>
	<path class="st3" d="M407.4,488.5v2.8l1.6-0.3l-0.3-2.3C408.3,488.8,407.7,488.7,407.4,488.5z"/>
	<path class="st3" d="M401.6,488.5l-0.8,0.3l0.4,3.3h0.3v-3.6H401.6z"/>
	<path class="st3" d="M406.6,488.3v3.2c-0.9,0.1-3.3,0.5-4.3,0.6L406.6,488.3z"/>
	<path class="st3" d="M349.7,407.2l3.2-0.4l0.4,3.9c0.7,0.6,2.4,2,3.3,2.2l1.7-0.2c0.1-0.5-1.2-11.6-1.2-12.1h-2l0.3,2.4l-6.1,0.7
		C349.5,404.4,349.7,406.7,349.7,407.2z"/>
	<path class="st3" d="M409.4,495l-0.2-1.3c-0.9,0.2-4.1,0.7-5,0.8l0.8,5.1l5-0.8L409.4,495z"/>
	<path class="st1" d="M226.2,745.8l-1-0.8l21.6-12.3l43.7-26.2c0.2,0.3,26.9,54.2,27.2,54.5c1,0.1,41.9-5.5,42.9-5.4
		c-0.2-0.7-5.7-19-5.9-19.6l7.7-7.9l8.1-1.5c0.7,0,20.7-4.1,21.4-3.9c-0.2-0.7-17.9-48.3-18.1-49l23.7-6.7
		c9,12.6,15.7,64.4,18.2,79.7l0,0l0.7,4.3l0,0l3.4,21.2c-0.3,0-101.6,20.6-101.9,20.5v2.7c-4.3-1.6-8.5-3.3-12.8-5.1l-9.1-3.9
		l-4.1-1.9l-2.6-1.2c-1-0.5-6.2-2.9-7-3.4c-4-2-8.1-4.1-12-6.3c-7.1-3.8-14.3-7.9-21.1-12.3l0,0c-3.7-2.2-7.3-4.6-10.9-7.1l0,0
		c-0.3-0.1-1.8-1.3-2.1-1.5l0,0C234.1,751.4,228.1,747.2,226.2,745.8z"/>
	<path class="st3" d="M409,491.1c-0.3,0-7.4,1.1-7.7,1c-0.4-2.8-0.7-6.4-1.2-9.2c1.7-0.2,5.9-0.7,7.6-0.9c0.2,0.8,0.3,2.3,0.4,3.2
		l0,0C408.4,487,408.7,489.3,409,491.1z"/>
	<path class="st3" d="M531.8,568.5v-0.9c-0.5-0.1-2.6,0.3-3.2,0.3v0.6l-2.2,0.3l-1.2-9.5l1.9-0.3l-0.3-2c2.2-0.3,6.7-0.8,8.9-1.1
		l0.3,2.8h0.9l1.5,11.2l-6.3,0.9L531.8,568.5z"/>
	<path class="st1" d="M175.7,176"/>
</g>
</svg>
