<svg width="48" height="48" viewBox="0 0 48 48" fill="none" xmlns="http://www.w3.org/2000/svg">
<path fill-rule="evenodd" clip-rule="evenodd" d="M48 24C48 24.5659 47.9804 25.1273 47.9418 25.6834C47.6616 25.6892 47.3823 25.6892 47.1046 25.6892C45.5631 25.6892 43.9292 25.7815 42.1569 25.9385C39.6979 26.1479 37.2749 26.4562 34.8701 26.8457V23.261C34.9389 23.2541 35.0079 23.2482 35.0769 23.2431C36.5815 23.2431 37.7815 23.2431 39.3785 23.16C41.76 23.0585 44.0862 22.8738 46.2554 22.5877C46.838 22.5082 47.3994 22.4227 47.9429 22.3311C47.9807 22.8825 48 23.439 48 24ZM28.3089 24.6365V27.7758C27.0594 27.9245 26.1109 28.0027 25.1906 28.0379V24.9234C26.235 24.884 27.276 24.7882 28.3089 24.6365ZM34.8701 22.955C34.9451 22.9484 35.0202 22.943 35.0954 22.9385C36.6092 22.9385 37.7908 22.92 39.3785 22.8554C41.76 22.7631 44.0677 22.5785 46.2369 22.2923C46.8296 22.2137 47.3836 22.129 47.9209 22.0367C47.8388 21.0239 47.694 20.0288 47.4901 19.0555C45.365 19.2111 43.2317 19.2224 41.1046 19.0892C39.1108 19.0246 38.3354 19.0246 37.4123 19.0246C36.625 19.0215 35.8435 19.159 35.1046 19.4308L34.8701 19.5198V22.955ZM28.3089 21.0913V24.3148C27.2764 24.4743 26.2354 24.5785 25.1906 24.6265V21.1104C25.4455 21.1227 25.701 21.129 25.9569 21.1292C26.7424 21.1608 27.5276 21.148 28.3089 21.0913ZM34.8701 19.2106L35.0308 19.1446C35.799 18.8608 36.6118 18.717 37.4308 18.72C38.2986 18.72 39.0582 18.7366 41.2982 18.7857H41.2984L41.6677 18.7938C43.5861 18.9097 45.5098 18.8985 47.4264 18.7604C47.0575 17.104 46.5174 15.512 45.8257 14.0041C43.5323 14.4153 41.1718 14.3257 38.9077 13.7354C36.388 13.1949 35.5293 13.0254 34.8701 13.0383V19.2106ZM28.3089 15.5505V20.801C27.549 20.8544 26.7854 20.8655 26.0215 20.8338C25.7441 20.8336 25.467 20.8261 25.1906 20.8115V15.4004C25.9368 15.5059 26.6888 15.5695 27.4431 15.5908C27.7334 15.597 28.0227 15.5835 28.3089 15.5505ZM33.3554 12.7553H28.3089V15.0075C28.0262 15.045 27.7398 15.0611 27.4523 15.0554C26.6948 15.0329 25.9397 14.9667 25.1906 14.8572V12.7553H18.6294V14.1231C16.1873 14.1224 14.4779 14.1129 12.5262 13.9662C11.979 13.9476 11.4329 13.914 10.8882 13.8654V12.7553H4.32692V13.4379C4.06447 13.5522 3.81445 13.6952 3.58154 13.8646C2.82206 14.3678 2.12425 14.9582 1.50229 15.6235C2.41979 13.1603 3.73025 10.8884 5.35744 8.88406C6.0904 8.82554 6.82911 8.89246 7.54154 9.08308C12.9125 10.281 18.381 10.9886 23.88 11.1969C27.1763 10.8548 30.4241 10.1458 33.5631 9.08308C36.3802 8.67388 39.2429 8.68948 42.0554 9.12923L42.9137 9.22422C43.9349 10.5295 44.8238 11.9432 45.5605 13.4452C43.3964 13.8182 41.173 13.7303 39.0369 13.1815C35.4831 12.4246 35.1323 12.3692 34.0431 12.5631C33.8111 12.6185 33.5817 12.6825 33.3554 12.7553ZM4.32692 13.9939C3.43754 14.4468 2.47073 15.3159 1.23692 16.6431L1.10185 16.79C0.385971 19.0659 0 21.4878 0 24L1.56245e-05 24.0277L0.156923 23.9446C1.08398 22.6781 2.41737 21.5685 4.32692 20.5506V13.9939ZM4.32692 20.857C2.49152 21.8385 1.20366 22.9004 0.323077 24.0831C0.290421 24.1293 0.257766 24.1748 0.225347 24.22H0.22533C0.149899 24.3249 0.0757488 24.4282 0.00585815 24.5356C0.290664 37.5431 10.9242 48 24 48C25.8864 48 27.722 47.7823 29.4831 47.3708C28.7681 47.115 28.0411 46.8937 27.3046 46.7077C25.7848 46.3269 24.2436 46.0372 22.6892 45.84C21.212 45.703 19.7694 45.3127 18.4246 44.6862C17.1032 43.9471 16.113 42.7325 15.6554 41.2892C14.9169 39.36 15.4154 38.1969 16.9569 37.7262C18.756 37.3508 20.6132 37.3508 22.4123 37.7262C22.9662 37.8092 23.5385 37.9015 24.2585 38.0308C25.6282 38.3563 27.0247 38.5572 28.4308 38.6308C32.3354 38.6308 33.6554 38.4738 39.8585 37.1262C40.1744 37.0559 40.4877 36.9885 40.7999 36.9231H28.3089V35.4674C26.6086 35.571 24.8002 35.6215 22.9477 35.6215C22.512 35.6185 22.077 35.5845 21.6462 35.52C21.5586 35.5045 21.4711 35.4884 21.3838 35.4718C19.6398 36.594 17.3754 37.2063 14.7587 37.2063C13.8793 37.2063 13.0409 37.1382 12.2493 37.0057C11.8731 38.1815 11.6403 39.3998 11.5569 40.6338C11.5313 41.7794 11.1719 42.8925 10.5231 43.8369L10.2738 43.6523C10.8989 42.755 11.2398 41.6904 11.2523 40.5969C11.3386 39.3575 11.5696 38.1337 11.9395 36.9501C10.7426 36.7207 9.65825 36.3406 8.70757 35.8237C8.40766 38.5789 8.12223 39.8973 7.48615 41.0677C7.45787 41.1321 7.42389 41.1939 7.38462 41.2523L7.16308 41.0308L7.21846 40.9292C7.83749 39.7857 8.12018 38.4582 8.42455 35.6634C6.94887 34.7936 5.82002 33.578 5.12443 32.0728C5.02917 32.4521 4.94863 32.8352 4.88308 33.2215C4.66848 34.4626 4.29946 35.672 3.78462 36.8215C3.74262 36.7586 3.71973 36.7032 3.69857 36.6521C3.67321 36.5907 3.65032 36.5354 3.6 36.48C4.06029 35.34 4.40059 34.1551 4.61538 32.9446C4.69268 32.484 4.79298 32.0282 4.91574 31.5786C4.53074 30.5762 4.32692 29.4576 4.32692 28.2378V24.9786C2.92738 25.7285 1.98162 27.5491 1.04308 30.6831V30.7754C1.03089 30.7327 1.01826 30.6918 1.00597 30.6522L1.00596 30.6521C0.962382 30.5111 0.923077 30.384 0.923077 30.24C1.8495 27.1603 2.83627 25.4011 4.32692 24.6556V20.857ZM10.8882 22.2318V18.4177C13.5229 17.8842 15.5918 18.2239 18.2585 19.2738L18.6294 19.4259V23.1192C16.9172 22.0902 14.9149 21.6429 12.9231 21.8492C12.2369 21.9366 11.5574 22.0645 10.8882 22.2318ZM10.8882 22.5392V26.0047C12.4098 25.7784 13.9723 25.8905 15.4615 26.3446L16.5692 26.6492L17.6954 26.9908C18.0045 27.0969 18.3159 27.1953 18.6294 27.2859V23.5092C16.9419 22.4263 14.9365 21.9484 12.9415 22.1538C12.2489 22.2403 11.5631 22.3691 10.8882 22.5392ZM18.6294 27.6123C18.1941 27.4902 17.7626 27.3538 17.3354 27.2031L16.4954 26.9538C16.0708 26.8246 15.7292 26.7231 15.3877 26.64C13.9209 26.1995 12.3824 26.1017 10.8882 26.3419V27.6714C10.8882 28.7952 11.2901 29.7606 11.9725 30.4461C11.997 30.442 12.0215 30.4379 12.0462 30.4338C13.8565 30.2377 15.6824 30.2622 17.4841 30.5058C18.2034 29.8171 18.6294 28.8282 18.6294 27.6714V27.6123ZM17.1055 30.821C15.1397 30.5913 13.5243 30.541 12.263 30.7074C12.9212 31.237 13.7799 31.542 14.7587 31.542C15.6654 31.542 16.4689 31.2804 17.1055 30.821ZM24.4144 32.0113C26.1318 32.2986 26.4387 32.3077 27.1754 32.3077C27.5247 32.3077 27.8898 32.2956 28.3089 32.2668V35.1337C26.6168 35.2326 24.817 35.28 22.9754 35.28C22.5811 35.277 22.1876 35.2466 21.7976 35.1889C22.9428 34.3575 23.8335 33.2871 24.4144 32.0113ZM44.6411 32.389V36.1951L44.6788 36.189C45.4296 34.918 46.0665 33.5718 46.5756 32.1643L44.6411 32.389ZM42.4007 36.9231H44.2271C43.4846 38.0828 42.6451 39.1746 41.72 40.1867C38.3312 40.1175 34.9452 40.4532 31.6338 41.1877C28.56 41.7969 27.1662 42.3231 26.9631 43.0338C26.76 43.7446 27.4062 44.1415 28.9015 44.7969C29.0862 44.88 29.6862 45.1292 30.3877 45.4062C30.6615 45.5176 30.9511 45.6342 31.2393 45.7501C31.7817 45.9683 32.319 46.1845 32.7354 46.3607C31.8502 46.7068 30.9394 47.0018 30.0066 47.2422C29.1485 46.9125 28.2708 46.6353 27.3785 46.4123C25.8417 46.0099 24.2819 45.7016 22.7077 45.4892C21.2654 45.3629 19.8564 44.9849 18.5446 44.3723C17.2742 43.6727 16.3196 42.5134 15.8769 41.1323C15.2031 39.3692 15.6277 38.3815 16.9938 37.9662C18.752 37.6103 20.5643 37.6166 22.32 37.9846C22.8646 38.0677 23.4369 38.16 24.1662 38.2892C25.5565 38.622 26.9751 38.823 28.4031 38.8892C32.3077 38.8892 33.6738 38.76 39.8862 37.44C40.7574 37.2525 41.5726 37.0848 42.4007 36.9231ZM44.6411 32.0818V31.6363H34.8701V31.3821C35.9116 31.2174 37.1025 31.0256 38.4738 30.8031L39.1569 30.6923C42.8314 30.0991 45.4323 29.7117 47.3673 29.4978C47.181 30.2927 46.9553 31.0723 46.6921 31.8346L44.6411 32.0818ZM34.8701 31.0507C35.9019 30.8877 37.0808 30.6987 38.4369 30.48L39.1292 30.3692C42.8614 29.7613 45.4902 29.3715 47.4434 29.1624C47.6707 28.1251 47.8311 27.0629 47.9195 25.9803C47.6525 25.9891 47.387 25.9938 47.1231 25.9938C45.5908 25.9938 43.9662 26.0769 42.2031 26.2431C39.7648 26.4814 37.3265 26.8016 34.8701 27.1587V31.0507ZM28.3089 28.0953C27.0704 28.2422 26.121 28.319 25.1899 28.353C25.1768 29.5813 24.9533 30.7053 24.5443 31.7097C26.1806 31.9846 26.4878 31.9846 27.1938 31.9846C27.5369 31.9846 27.8958 31.9722 28.3089 31.943V28.0953ZM18.6294 19.077L18.4338 18.9969C15.7366 17.949 13.6014 17.5947 10.8882 18.1338V14.409C11.3961 14.4526 11.9054 14.4834 12.4154 14.5015C14.3987 14.6151 16.1256 14.646 18.6294 14.649V19.077ZM31.7169 41.76C34.823 41.0734 37.9955 40.7396 41.1745 40.7642C39.0137 42.9775 36.4286 44.7748 33.5507 46.0244L33.4892 45.9969C32.9631 45.7662 31.7538 45.2769 30.72 44.8615C30.5553 44.7944 30.3955 44.7296 30.2444 44.6682C29.7096 44.4511 29.2834 44.2782 29.1323 44.2062C27.9785 43.7077 27.48 43.3385 27.5354 43.1631C27.5908 42.9877 27.8769 42.8215 28.4585 42.5908C29.5238 42.2377 30.6126 41.96 31.7169 41.76ZM7.62462 8.81538C6.96207 8.63991 6.27755 8.56643 5.59454 8.59652C9.99711 3.34159 16.6083 0 24 0C26.5817 0 29.0681 0.407612 31.3984 1.162C28.3242 1.42149 25.2397 1.54508 22.1538 1.53231H21.5446C20.9534 1.51094 20.3644 1.44926 19.7815 1.34769L19.1354 1.56C19.9283 1.70549 20.7301 1.798 21.5354 1.83692H22.1538C25.4759 1.85056 28.7963 1.70557 32.1037 1.40258C33.3452 1.84785 34.5394 2.39254 35.6766 3.02703C34.4504 3.10953 32.8259 3.22273 30.5723 3.39692H30.1015C25.4215 3.69231 23.0492 3.81231 21.4708 3.81231C19.2659 3.69774 17.0706 3.44183 14.8985 3.04615L13.7815 3.49846C16.324 3.943 18.8923 4.22358 21.4708 4.33846C23.0677 4.33846 25.44 4.20923 30.1477 3.91385H30.6092C31.4766 3.85783 32.2507 3.80712 32.9446 3.76166L32.9454 3.76161C34.4957 3.66005 35.646 3.58469 36.5436 3.5349C37.4861 4.11376 38.3854 4.7559 39.2358 5.45538H38.3446C35.3558 5.4625 32.3729 5.72188 29.4277 6.23077C28.9549 6.30152 28.524 6.36631 28.1298 6.42556L28.1286 6.42574C24.3077 7.00022 23.9458 7.05462 22.3477 6.98769C21.5547 6.9546 20.7665 6.84642 19.9938 6.66462C16.5985 5.93129 13.1452 5.49884 9.67385 5.37231L9.07385 5.65846C12.7221 5.75026 16.3536 6.18604 19.92 6.96C20.7138 7.14573 21.5238 7.25394 22.3385 7.28308C24.12 7.36615 24.3785 7.32923 29.4646 6.52615C32.4007 6.02021 35.3744 5.7639 38.3538 5.76C38.7096 5.76 39.152 5.76885 39.6208 5.7788C40.7148 6.71754 41.7233 7.75311 42.633 8.87215C42.4578 8.85138 42.2747 8.82941 42.0831 8.80615C39.2342 8.38135 36.3381 8.38135 33.4892 8.80615C30.3706 9.86243 27.1449 10.5714 23.8708 10.92C18.4026 10.7135 12.9648 10.0091 7.62462 8.81538Z" fill="#212121"/>
</svg>
